<?xml version="1.0" encoding="utf-8"?>
<!-- Generator: Adobe Illustrator 16.0.0, SVG Export Plug-In . SVG Version: 6.00 Build 0)  -->
<!DOCTYPE svg PUBLIC "-//W3C//DTD SVG 1.1//EN" "http://www.w3.org/Graphics/SVG/1.1/DTD/svg11.dtd">
<svg version="1.1" id="Layer_1" xmlns="http://www.w3.org/2000/svg" xmlns:xlink="http://www.w3.org/1999/xlink" x="0px" y="0px"
	 width="14px" height="20px" viewBox="0 0 14 20" enable-background="new 0 0 14 20" xml:space="preserve">
<path fill="#FFFFFF" d="M7.856,6.372C7.971,6.22,8.123,6.106,8.314,6.029c0.189-0.038,0.342,0,0.532,0.077l0.608,0.38
	c0.19,0.076,0.268,0.229,0.343,0.419c0.038,0.19,0,0.38-0.075,0.533L8.885,8.922h1.712c0.19,0,0.343,0.076,0.495,0.229
	c0.113,0.152,0.189,0.304,0.189,0.494v0.724c0,0.189-0.076,0.343-0.189,0.494c-0.152,0.152-0.305,0.19-0.495,0.19H8.885l0.838,1.484
	c0.075,0.19,0.113,0.38,0.075,0.571c-0.075,0.19-0.152,0.342-0.343,0.418L8.847,13.87c-0.19,0.114-0.343,0.152-0.532,0.076
	c-0.191-0.038-0.344-0.152-0.458-0.304L7.02,12.158l-0.875,1.484c-0.076,0.152-0.229,0.266-0.419,0.304
	c-0.19,0.076-0.381,0.038-0.532-0.076l-0.647-0.342c-0.153-0.076-0.267-0.229-0.305-0.418c-0.075-0.191-0.037-0.381,0.076-0.571
	l0.837-1.484H3.441c-0.189,0-0.342-0.038-0.494-0.19c-0.152-0.151-0.229-0.305-0.229-0.494V9.645c0-0.19,0.076-0.342,0.229-0.494
	s0.305-0.229,0.494-0.229h1.713L4.317,7.438C4.204,7.286,4.166,7.095,4.241,6.905c0.038-0.19,0.151-0.343,0.305-0.419l0.647-0.38
	c0.151-0.077,0.342-0.115,0.532-0.077c0.19,0.077,0.343,0.191,0.419,0.343L7.02,7.857"/>
</svg>
