<?xml version="1.0" encoding="utf-8"?>
<!-- Generator: Adobe Illustrator 16.0.0, SVG Export Plug-In . SVG Version: 6.00 Build 0)  -->
<!DOCTYPE svg PUBLIC "-//W3C//DTD SVG 1.1//EN" "http://www.w3.org/Graphics/SVG/1.1/DTD/svg11.dtd">
<svg version="1.1" id="Layer_1" xmlns="http://www.w3.org/2000/svg" xmlns:xlink="http://www.w3.org/1999/xlink" x="0px" y="0px"
	 width="14px" height="20px" viewBox="0 0 14 20" enable-background="new 0 0 14 20" xml:space="preserve">
<path fill="#FFFFFF" d="M11.561,5.604c0,0.951-0.153,1.75-0.458,2.436c-0.266,0.646-0.723,1.333-1.407,1.979
	c-0.305,0.304-0.647,0.647-1.065,0.99l-0.114,2.131c0,0.038-0.038,0.076-0.114,0.115L6.271,14.51c0,0.038-0.039,0.038-0.076,0.038
	c-0.038,0-0.076-0.038-0.114-0.077l-0.382-0.342c-0.036-0.038-0.076-0.115-0.036-0.19l0.456-1.523l-1.562-1.56l-1.521,0.456H2.997
	c-0.076,0-0.114,0-0.152-0.037l-0.343-0.344c-0.076-0.075-0.076-0.152-0.038-0.228l1.257-2.132c0.038-0.076,0.075-0.076,0.151-0.113
	l2.094-0.076c0.381-0.458,0.686-0.799,0.989-1.104c0.686-0.685,1.37-1.179,1.979-1.446c0.646-0.266,1.445-0.38,2.436-0.38
	c0.037,0,0.077,0,0.113,0.037C11.522,5.528,11.561,5.566,11.561,5.604 M10.153,7.62c0.075-0.114,0.151-0.228,0.151-0.38
	c0-0.152-0.076-0.304-0.151-0.381c-0.117-0.113-0.229-0.152-0.383-0.152c-0.15,0-0.303,0.039-0.38,0.152
	C9.276,6.936,9.239,7.088,9.239,7.24c0,0.152,0.037,0.266,0.151,0.38c0.077,0.076,0.229,0.153,0.38,0.153
	C9.924,7.773,10.036,7.696,10.153,7.62z"/>
</svg>
