<?xml version="1.0" encoding="utf-8"?>
<!-- Generator: Adobe Illustrator 16.0.0, SVG Export Plug-In . SVG Version: 6.00 Build 0)  -->
<!DOCTYPE svg PUBLIC "-//W3C//DTD SVG 1.1//EN" "http://www.w3.org/Graphics/SVG/1.1/DTD/svg11.dtd">
<svg version="1.1" id="Layer_1" xmlns="http://www.w3.org/2000/svg" xmlns:xlink="http://www.w3.org/1999/xlink" x="0px" y="0px"
	 width="14px" height="20px" viewBox="0 0 14 20" enable-background="new 0 0 14 20" xml:space="preserve">
<path fill="#FFFFFF" d="M10.921,12.075l1.18-2.017c-0.037-0.038-0.037-0.077-0.037-0.077s0-0.037,0.037-0.076L11.147,8.23
	l-0.721,3.425l0.418,0.456C10.882,12.112,10.882,12.075,10.921,12.075 M10.235,12.456L9.97,13.749l0.723-1.293H10.235z
	 M4.185,12.456H3.31l0.875,1.599V12.456z M4.185,7.203V5.947L3.31,7.508L4.185,7.203z M10.882,7.888
	c-0.037-0.038-0.076-0.113-0.076-0.152V7.698l-1.18-2.093c-0.039,0-0.039,0-0.076,0l-2.436,2.55l1.713,1.826L10.882,7.888z
	 M8.94,10.096l1.332,1.408l0.725-3.464V8.002L8.94,10.096z M7.077,12.037l-0.229,0.267h0.457L7.077,12.037z M5.136,10.02l-0.762-0.8
	v1.599L5.136,10.02z M6.999,8.269l-1.674,1.79l1.752,1.751l1.637-1.713L6.999,8.269z M9.36,5.529H9.284L5.821,6.785l1.178,1.256
	L9.36,5.529z M4.374,5.605v1.522l1.143-0.419L4.45,5.605C4.413,5.605,4.413,5.605,4.374,5.605z M4.374,7.317V9.03l0.838,0.875
	l1.674-1.75L5.63,6.861L4.374,7.317z M3.271,7.698c0,0,0,0,0.039,0v0.038c0,0.039-0.039,0.114-0.078,0.152l0.953,0.99V7.356
	L3.271,7.698z M3.31,12.304h0.875v-1.066l-0.914,0.989C3.271,12.265,3.271,12.304,3.31,12.304z M4.374,12.304H6.62l0.342-0.38
	l-1.713-1.79l-0.875,0.952V12.304z M4.526,14.434l1.902-1.979H4.374v1.903C4.45,14.396,4.487,14.396,4.526,14.434z M9.626,14.359
	l0.076-0.152l0.381-1.751H7.687l1.863,1.94C9.587,14.359,9.626,14.359,9.626,14.359z M10.122,12.304l0.113-0.571l-1.408-1.485
	L7.19,11.96l0.342,0.343H10.122z M10.692,12.304c0.037-0.039,0.037-0.039,0.037-0.077l-0.342-0.381l-0.115,0.458H10.692z
	 M6.772,5.529H4.642L5.669,6.67l3.119-1.142H7.228c-0.074,0.076-0.15,0.114-0.229,0.114C6.925,5.643,6.849,5.605,6.772,5.529z
	 M1.899,9.905c0.039,0.039,0.039,0.039,0.039,0.076c0,0.039-0.039,0.077-0.039,0.077l1.182,2.017c0.037,0,0.037,0,0.037,0.037h0.037
	l1.029-1.102V9.067L3.155,8.002c-0.037,0-0.113,0.038-0.152,0.038L1.899,9.905z M7.228,14.434h2.17l-1.902-1.979H6.696l-1.902,1.979
	h1.979c0.076-0.038,0.152-0.075,0.227-0.075C7.077,14.359,7.153,14.396,7.228,14.434z M12.708,9.981
	c0,0.077-0.037,0.152-0.076,0.191c-0.037,0.075-0.113,0.114-0.188,0.114l-1.143,1.979c0.037,0.039,0.037,0.075,0.037,0.113
	c0,0.077-0.037,0.153-0.076,0.191c-0.037,0.075-0.115,0.113-0.191,0.113l-1.064,1.904c0,0,0,0.038,0,0.076
	c0,0.075-0.037,0.151-0.076,0.228c-0.076,0.038-0.152,0.075-0.229,0.075c-0.115,0-0.189-0.037-0.229-0.075H7.228
	c-0.037,0.075-0.113,0.114-0.229,0.114c-0.113,0-0.189-0.039-0.227-0.114H4.526c-0.039,0.075-0.152,0.114-0.229,0.114
	s-0.152-0.039-0.229-0.114c-0.076-0.076-0.076-0.152-0.076-0.228c0-0.038,0-0.076,0-0.115l-1.066-1.865
	c-0.076,0-0.152-0.038-0.189-0.113c-0.037-0.038-0.076-0.114-0.076-0.191c0-0.038,0-0.075,0.039-0.113l-1.143-1.979
	c-0.076,0-0.152-0.039-0.189-0.114c-0.039-0.039-0.076-0.114-0.076-0.191c0-0.076,0.037-0.153,0.076-0.19
	c0.037-0.076,0.113-0.114,0.189-0.114l1.104-1.902c0-0.039,0-0.039,0-0.039c0-0.152,0.076-0.228,0.189-0.305l1.143-2.017
	c0-0.038,0-0.077,0-0.114c0-0.076,0.039-0.152,0.076-0.229c0.076-0.038,0.152-0.077,0.229-0.077c0.115,0,0.189,0.039,0.266,0.115
	h2.209C6.81,5.034,6.886,4.995,6.999,4.995c0.115,0,0.191,0.039,0.229,0.115h2.246c0.039-0.076,0.152-0.115,0.229-0.115
	s0.152,0.039,0.229,0.077c0.076,0.076,0.076,0.153,0.076,0.229c0,0.038,0,0.076,0,0.114l1.141,1.979
	c0.078,0.038,0.154,0.038,0.229,0.115c0.039,0.076,0.078,0.114,0.078,0.228c0,0.039,0,0.076-0.039,0.152l1.066,1.789
	c0.037,0,0.113,0.038,0.15,0.114C12.671,9.829,12.708,9.905,12.708,9.981z"/>
</svg>
