<?xml version="1.0" encoding="utf-8"?>
<!-- Generator: Adobe Illustrator 16.0.0, SVG Export Plug-In . SVG Version: 6.00 Build 0)  -->
<!DOCTYPE svg PUBLIC "-//W3C//DTD SVG 1.1//EN" "http://www.w3.org/Graphics/SVG/1.1/DTD/svg11.dtd">
<svg version="1.1" id="Layer_1" xmlns="http://www.w3.org/2000/svg" xmlns:xlink="http://www.w3.org/1999/xlink" x="0px" y="0px"
	 width="14px" height="20px" viewBox="0 0 14 20" enable-background="new 0 0 14 20" xml:space="preserve">
<path fill="#FFFFFF" d="M9.442,7.792c0.076,0.076,0.076,0.19,0.038,0.267l-3.007,6.433c-0.039,0.114-0.152,0.152-0.229,0.152
	c-0.039,0-0.039,0-0.076,0c-0.076-0.038-0.115-0.077-0.152-0.115c-0.039-0.037-0.039-0.114-0.039-0.152l1.104-4.528l-2.246,0.57
	c-0.037,0-0.037,0-0.075,0c-0.076,0-0.113,0-0.189-0.038c-0.039-0.076-0.077-0.152-0.077-0.228l1.142-4.605
	c0-0.038,0.038-0.114,0.076-0.114C5.75,5.394,5.826,5.356,5.864,5.356H7.69c0.076,0,0.152,0.038,0.19,0.076
	C7.92,5.47,7.957,5.546,7.957,5.584s0,0.076-0.037,0.114L6.968,8.287l2.207-0.533c0.038-0.038,0.076-0.038,0.076-0.038
	C9.328,7.716,9.366,7.754,9.442,7.792"/>
</svg>
