<?xml version="1.0" encoding="utf-8"?>
<!-- Generator: Adobe Illustrator 16.0.0, SVG Export Plug-In . SVG Version: 6.00 Build 0)  -->
<!DOCTYPE svg PUBLIC "-//W3C//DTD SVG 1.1//EN" "http://www.w3.org/Graphics/SVG/1.1/DTD/svg11.dtd">
<svg version="1.1" id="Layer_1" xmlns="http://www.w3.org/2000/svg" xmlns:xlink="http://www.w3.org/1999/xlink" x="0px" y="0px"
	 width="14px" height="20px" viewBox="0 0 14 20" enable-background="new 0 0 14 20" xml:space="preserve">
<path fill="#FFFFFF" d="M11.985,6.594V9.03c0,0.076-0.037,0.113-0.113,0.152C11.796,9.22,11.72,9.22,11.681,9.144l-0.684-0.685
	l-3.539,3.54c-0.039,0.039-0.078,0.076-0.115,0.076c-0.039,0-0.115-0.038-0.115-0.076l-1.332-1.294l-2.32,2.322L2.509,11.96
	l3.273-3.273c0.037-0.039,0.076-0.039,0.113-0.039c0.076,0,0.115,0,0.152,0.039l1.295,1.293l2.588-2.588L9.245,6.747
	C9.208,6.669,9.169,6.594,9.208,6.518C9.245,6.442,9.284,6.442,9.36,6.442h2.436c0.037,0,0.113,0,0.113,0.038
	C11.948,6.518,11.985,6.556,11.985,6.594 M12.708,13.559v0.723H1.292V5.718h0.686v7.84H12.708z"/>
</svg>
