<svg version="1.1" xmlns="http://www.w3.org/2000/svg" xmlns:xlink="http://www.w3.org/1999/xlink" x="0px" y="0px"
	 width="459.666px" height="459.002px" viewBox="0 0 459.666 459.002" enable-background="new 0 0 459.666 459.002"
	 xml:space="preserve">
<g id="gains" class="droppable">
	<path fill="#FFF" d="M2.913,228.742h226.322L388.371,69.613c0,0-48.371-66.294-159.136-66.294
		C137,3.319,76.059,56.06,41.23,103.77C8.523,148.573,2.913,228.742,2.913,228.742z"/>
</g>
<g id="pains" class="droppable">
	<path fill="#FFF" d="M2.913,228.488h226.322l159.136,159.129c0,0-48.371,66.295-159.136,66.295
		C137,453.912,76.059,401.17,41.23,353.461C8.523,308.658,2.913,228.488,2.913,228.488z"/>
</g>
<g id="jobs" class="droppable">
	<path fill="#FFF" d="M388.958,69.058L229.82,229.085l159.129,159.137c0,0,39.632-38.39,58.731-97.751
		c21.906-68.083,4.016-128.202-21.097-173.122C399.587,69.058,388.958,69.058,388.958,69.058z"/>
</g>
<g id="lines">
	<g>
		<path fill="none" stroke="#231F20" stroke-width="3.9467" d="M229.235,455.961c124.791,0,226.318-101.527,226.318-226.322
			c0-124.792-101.527-226.32-226.318-226.32c-124.797,0-226.322,101.528-226.322,226.32
			C2.913,354.434,104.438,455.961,229.235,455.961z"/>
		<line fill="none" stroke="#231F20" stroke-width="1.6885" x1="229.235" y1="228.742" x2="2.913" y2="228.742"/>
		<g>
			<path fill="#231F20" d="M115.414,322.094h4.979v0.973h-3.986v3.114h3.986v0.973h-3.986v4.878h-0.993V322.094z"/>
			<path fill="#231F20" d="M121.61,324.681h0.966v1.074c0.288-0.423,0.592-0.739,0.912-0.949c0.319-0.209,0.652-0.313,1-0.313
				c0.261,0,0.54,0.083,0.837,0.249l-0.493,0.798c-0.198-0.086-0.364-0.129-0.499-0.129c-0.315,0-0.62,0.13-0.912,0.389
				c-0.293,0.259-0.517,0.661-0.669,1.206c-0.117,0.419-0.176,1.266-0.176,2.54v2.486h-0.966V324.681z"/>
			<path fill="#231F20" d="M126.007,324.681h0.945v3.433c0,0.837,0.045,1.414,0.136,1.729c0.135,0.45,0.394,0.806,0.774,1.067
				c0.381,0.261,0.836,0.392,1.363,0.392s0.976-0.127,1.343-0.382c0.368-0.255,0.622-0.589,0.762-1.003
				c0.095-0.284,0.142-0.886,0.142-1.804v-3.433h0.967v3.607c0,1.014-0.118,1.777-0.355,2.291c-0.236,0.513-0.592,0.915-1.067,1.205
				c-0.475,0.291-1.07,0.437-1.786,0.437c-0.717,0-1.314-0.146-1.794-0.437c-0.479-0.29-0.838-0.695-1.074-1.216
				c-0.236-0.52-0.354-1.303-0.354-2.348V324.681z"/>
			<path fill="#231F20" d="M138.235,325.484l-0.607,0.629c-0.506-0.491-1.001-0.736-1.483-0.736c-0.308,0-0.57,0.102-0.789,0.304
				c-0.22,0.203-0.329,0.439-0.329,0.709c0,0.239,0.091,0.467,0.271,0.683c0.18,0.221,0.56,0.479,1.137,0.777
				c0.704,0.364,1.183,0.716,1.436,1.054c0.248,0.343,0.372,0.728,0.372,1.155c0,0.604-0.212,1.114-0.636,1.533
				s-0.954,0.629-1.59,0.629c-0.425,0-0.829-0.093-1.215-0.277s-0.705-0.439-0.957-0.764l0.594-0.675
				c0.483,0.545,0.996,0.817,1.538,0.817c0.379,0,0.701-0.122,0.968-0.365s0.399-0.529,0.399-0.858c0-0.27-0.088-0.511-0.264-0.723
				c-0.176-0.207-0.573-0.468-1.191-0.783c-0.664-0.343-1.115-0.681-1.354-1.014s-0.358-0.714-0.358-1.142
				c0-0.559,0.19-1.022,0.571-1.392c0.382-0.369,0.863-0.554,1.445-0.554C136.869,324.492,137.549,324.822,138.235,325.484z"/>
			<path fill="#231F20" d="M140.735,321.951h0.946v2.729h1.5v0.817h-1.5v6.533h-0.946v-6.533h-1.29v-0.817h1.29V321.951z"/>
			<path fill="#231F20" d="M144.242,324.681h0.966v1.074c0.288-0.423,0.592-0.739,0.912-0.949c0.319-0.209,0.652-0.313,1-0.313
				c0.261,0,0.54,0.083,0.837,0.249l-0.493,0.798c-0.198-0.086-0.364-0.129-0.499-0.129c-0.315,0-0.62,0.13-0.912,0.389
				c-0.293,0.259-0.517,0.661-0.669,1.206c-0.117,0.419-0.176,1.266-0.176,2.54v2.486h-0.966V324.681z"/>
			<path fill="#231F20" d="M156.083,324.681v7.351h-0.932v-1.264c-0.396,0.482-0.842,0.845-1.335,1.088s-1.032,0.365-1.618,0.365
				c-1.04,0-1.929-0.378-2.665-1.132c-0.736-0.755-1.104-1.672-1.104-2.753c0-1.059,0.372-1.964,1.115-2.716
				s1.637-1.128,2.682-1.128c0.604,0,1.149,0.128,1.639,0.385c0.488,0.257,0.917,0.642,1.287,1.155v-1.352H156.083z
				 M152.304,325.403c-0.526,0-1.013,0.13-1.458,0.389s-0.8,0.622-1.062,1.09c-0.264,0.468-0.395,0.963-0.395,1.484
				c0,0.518,0.132,1.013,0.397,1.484c0.266,0.473,0.622,0.841,1.069,1.104c0.448,0.264,0.929,0.395,1.441,0.395
				c0.518,0,1.008-0.13,1.471-0.392c0.464-0.261,0.82-0.613,1.069-1.059c0.25-0.445,0.375-0.947,0.375-1.505
				c0-0.851-0.28-1.562-0.84-2.133C153.812,325.689,153.123,325.403,152.304,325.403z"/>
			<path fill="#231F20" d="M165.347,326.208l-0.75,0.466c-0.648-0.86-1.532-1.29-2.652-1.29c-0.896,0-1.639,0.288-2.23,0.863
				c-0.591,0.576-0.887,1.275-0.887,2.099c0,0.535,0.136,1.04,0.408,1.512c0.271,0.473,0.646,0.839,1.12,1.1
				c0.475,0.262,1.007,0.392,1.596,0.392c1.08,0,1.961-0.43,2.646-1.29l0.75,0.493c-0.352,0.529-0.823,0.939-1.416,1.231
				c-0.592,0.291-1.267,0.438-2.023,0.438c-1.162,0-2.126-0.369-2.892-1.108c-0.766-0.738-1.148-1.637-1.148-2.695
				c0-0.712,0.18-1.373,0.537-1.983c0.358-0.609,0.851-1.086,1.477-1.429c0.626-0.342,1.326-0.513,2.101-0.513
				c0.487,0,0.956,0.074,1.409,0.223c0.452,0.148,0.837,0.342,1.151,0.581C164.858,325.534,165.126,325.839,165.347,326.208z"/>
			<path fill="#231F20" d="M167.492,321.654c0.215,0,0.398,0.076,0.552,0.229c0.152,0.153,0.229,0.338,0.229,0.554
				c0,0.212-0.076,0.395-0.229,0.548c-0.153,0.153-0.337,0.229-0.552,0.229c-0.211,0-0.393-0.076-0.545-0.229
				s-0.229-0.336-0.229-0.548c0-0.216,0.076-0.4,0.229-0.554S167.281,321.654,167.492,321.654z M167.022,324.681h0.945v7.351h-0.945
				V324.681z"/>
			<path fill="#231F20" d="M173.413,324.492c1.133,0,2.071,0.409,2.815,1.229c0.677,0.747,1.015,1.632,1.015,2.654
				c0,1.027-0.357,1.925-1.072,2.692c-0.715,0.769-1.635,1.152-2.758,1.152c-1.128,0-2.05-0.384-2.765-1.152
				c-0.715-0.768-1.072-1.665-1.072-2.692c0-1.018,0.338-1.9,1.015-2.648C171.334,324.903,172.276,324.492,173.413,324.492z
				 M173.41,325.417c-0.787,0-1.463,0.291-2.027,0.872c-0.565,0.581-0.848,1.283-0.848,2.107c0,0.531,0.129,1.027,0.387,1.486
				c0.257,0.459,0.605,0.814,1.044,1.064s0.92,0.375,1.444,0.375c0.523,0,1.005-0.125,1.443-0.375s0.787-0.605,1.044-1.064
				c0.258-0.459,0.387-0.955,0.387-1.486c0-0.824-0.283-1.526-0.851-2.107S174.191,325.417,173.41,325.417z"/>
			<path fill="#231F20" d="M178.993,324.681h0.946v1.317c0.378-0.504,0.797-0.882,1.256-1.132c0.46-0.25,0.96-0.374,1.5-0.374
				c0.55,0,1.037,0.14,1.463,0.418c0.426,0.279,0.74,0.655,0.942,1.129c0.203,0.473,0.304,1.209,0.304,2.209v3.783h-0.945v-3.506
				c0-0.847-0.035-1.412-0.105-1.696c-0.109-0.486-0.319-0.853-0.631-1.098c-0.311-0.245-0.716-0.368-1.216-0.368
				c-0.572,0-1.085,0.189-1.537,0.567c-0.453,0.378-0.751,0.847-0.896,1.405c-0.09,0.365-0.135,1.031-0.135,2v2.695h-0.946V324.681z
				"/>
			<path fill="#231F20" d="M193.62,329.593l0.797,0.419c-0.261,0.513-0.563,0.928-0.905,1.242c-0.343,0.315-0.729,0.556-1.157,0.72
				c-0.428,0.164-0.912,0.247-1.453,0.247c-1.199,0-2.137-0.394-2.813-1.179c-0.676-0.786-1.014-1.675-1.014-2.666
				c0-0.932,0.286-1.763,0.858-2.492c0.726-0.928,1.697-1.392,2.914-1.392c1.254,0,2.254,0.475,3.003,1.425
				c0.531,0.671,0.802,1.509,0.811,2.514h-6.613c0.018,0.854,0.291,1.554,0.818,2.1s1.179,0.818,1.955,0.818
				c0.374,0,0.738-0.064,1.092-0.195c0.354-0.13,0.655-0.303,0.903-0.518C193.063,330.42,193.332,330.072,193.62,329.593z
				 M193.62,327.613c-0.126-0.505-0.31-0.908-0.551-1.21c-0.242-0.302-0.561-0.545-0.958-0.729
				c-0.396-0.185-0.813-0.276-1.251-0.276c-0.722,0-1.342,0.231-1.86,0.695c-0.379,0.338-0.665,0.845-0.858,1.521H193.62z"/>
			<path fill="#231F20" d="M200.119,325.484l-0.607,0.629c-0.506-0.491-1.001-0.736-1.483-0.736c-0.308,0-0.57,0.102-0.789,0.304
				c-0.22,0.203-0.329,0.439-0.329,0.709c0,0.239,0.091,0.467,0.271,0.683c0.18,0.221,0.56,0.479,1.137,0.777
				c0.704,0.364,1.183,0.716,1.436,1.054c0.248,0.343,0.372,0.728,0.372,1.155c0,0.604-0.212,1.114-0.636,1.533
				s-0.954,0.629-1.59,0.629c-0.425,0-0.829-0.093-1.215-0.277s-0.705-0.439-0.957-0.764l0.594-0.675
				c0.483,0.545,0.996,0.817,1.538,0.817c0.379,0,0.701-0.122,0.968-0.365s0.399-0.529,0.399-0.858c0-0.27-0.088-0.511-0.264-0.723
				c-0.176-0.207-0.573-0.468-1.191-0.783c-0.664-0.343-1.115-0.681-1.354-1.014s-0.358-0.714-0.358-1.142
				c0-0.559,0.19-1.022,0.571-1.392c0.382-0.369,0.863-0.554,1.445-0.554C198.752,324.492,199.433,324.822,200.119,325.484z"/>
		</g>
		<path d="M157.474,356.204c-7.523,0-8.686,7.334-8.686,7.334h3.281c0,0,0.771-4.246,5.404-4.246s5.404,4.246,5.404,4.246h3.279
			C166.157,363.538,164.997,356.204,157.474,356.204 M151.876,351.187c1.387,0,2.51-1.123,2.51-2.51s-1.123-2.51-2.51-2.51
			c-1.385,0-2.508,1.123-2.508,2.51S150.491,351.187,151.876,351.187 M163.069,351.187c1.385,0,2.51-1.123,2.51-2.51
			s-1.123-2.51-2.51-2.51s-2.508,1.123-2.508,2.51S161.683,351.187,163.069,351.187"/>
		<g>
			<path fill="#231F20" d="M136.212,93.832l4.635,9.938h-1.073l-1.562-3.27h-4.281l-1.548,3.27h-1.108l4.695-9.938H136.212z
				 M136.087,95.943l-1.703,3.598h3.397L136.087,95.943z"/>
			<path fill="#231F20" d="M142.09,93.582h0.945v10.188h-0.945V93.582z"/>
			<path fill="#231F20" d="M151.19,101.331l0.797,0.419c-0.261,0.514-0.563,0.928-0.905,1.243c-0.343,0.315-0.729,0.555-1.157,0.719
				c-0.428,0.165-0.912,0.247-1.453,0.247c-1.199,0-2.137-0.393-2.813-1.179c-0.676-0.786-1.014-1.674-1.014-2.665
				c0-0.933,0.286-1.763,0.858-2.493c0.726-0.928,1.697-1.392,2.914-1.392c1.254,0,2.254,0.475,3.003,1.425
				c0.531,0.671,0.802,1.509,0.811,2.513h-6.613c0.018,0.854,0.291,1.554,0.818,2.1c0.527,0.546,1.179,0.819,1.955,0.819
				c0.374,0,0.738-0.065,1.092-0.195c0.354-0.13,0.655-0.303,0.903-0.518S150.902,101.811,151.19,101.331z M151.19,99.352
				c-0.126-0.504-0.31-0.907-0.551-1.209c-0.242-0.302-0.561-0.545-0.958-0.73c-0.396-0.185-0.813-0.277-1.251-0.277
				c-0.722,0-1.342,0.232-1.86,0.696c-0.379,0.338-0.665,0.845-0.858,1.52H151.19z"/>
			<path fill="#231F20" d="M160.331,96.419h0.946v5.857c0,1.032-0.09,1.786-0.271,2.263c-0.248,0.676-0.678,1.196-1.29,1.561
				c-0.613,0.365-1.35,0.547-2.209,0.547c-0.631,0-1.197-0.089-1.699-0.268c-0.503-0.178-0.911-0.418-1.227-0.718
				s-0.605-0.74-0.871-1.318h1.026c0.279,0.486,0.641,0.847,1.082,1.081c0.442,0.234,0.99,0.351,1.644,0.351
				c0.646,0,1.189-0.12,1.634-0.36c0.444-0.24,0.762-0.542,0.95-0.906c0.189-0.364,0.284-0.951,0.284-1.761v-0.378
				c-0.355,0.45-0.791,0.796-1.305,1.037c-0.515,0.241-1.06,0.361-1.637,0.361c-0.677,0-1.312-0.168-1.907-0.503
				s-1.055-0.787-1.38-1.354c-0.324-0.567-0.486-1.191-0.486-1.871c0-0.68,0.169-1.314,0.507-1.902
				c0.338-0.588,0.806-1.053,1.403-1.395s1.228-0.514,1.891-0.514c0.55,0,1.062,0.114,1.538,0.341s0.935,0.603,1.376,1.125V96.419z
				 M157.541,97.143c-0.536,0-1.033,0.129-1.493,0.388c-0.459,0.259-0.819,0.617-1.081,1.074c-0.261,0.458-0.392,0.952-0.392,1.483
				c0,0.807,0.271,1.473,0.811,2c0.541,0.527,1.241,0.791,2.102,0.791c0.869,0,1.568-0.261,2.098-0.784s0.794-1.209,0.794-2.061
				c0-0.554-0.122-1.048-0.365-1.483s-0.588-0.778-1.033-1.03C158.534,97.269,158.054,97.143,157.541,97.143z"/>
			<path fill="#231F20" d="M162.946,96.419h0.966v1.074c0.288-0.423,0.592-0.74,0.912-0.949c0.319-0.209,0.652-0.314,1-0.314
				c0.261,0,0.54,0.083,0.837,0.25l-0.493,0.797c-0.198-0.086-0.364-0.128-0.499-0.128c-0.315,0-0.62,0.129-0.912,0.388
				c-0.293,0.259-0.517,0.661-0.669,1.206c-0.117,0.419-0.176,1.266-0.176,2.54v2.486h-0.966V96.419z"/>
			<path fill="#231F20" d="M168.262,92.974h1.452l-1.993,2.081h-0.933L168.262,92.974z M167.323,96.419h0.945v7.351h-0.945V96.419z"
				/>
			<path fill="#231F20" d="M177.558,96.419v7.351h-0.932v-1.263c-0.396,0.482-0.842,0.844-1.335,1.087s-1.032,0.365-1.618,0.365
				c-1.04,0-1.929-0.377-2.665-1.131s-1.104-1.672-1.104-2.753c0-1.059,0.372-1.964,1.115-2.716
				c0.743-0.752,1.637-1.128,2.682-1.128c0.604,0,1.149,0.128,1.639,0.385c0.488,0.256,0.917,0.642,1.287,1.155v-1.352H177.558z
				 M173.779,97.143c-0.526,0-1.013,0.129-1.458,0.388c-0.445,0.258-0.8,0.622-1.062,1.09c-0.264,0.468-0.395,0.962-0.395,1.484
				c0,0.518,0.132,1.012,0.397,1.484c0.266,0.473,0.622,0.84,1.069,1.104c0.448,0.263,0.929,0.395,1.441,0.395
				c0.518,0,1.008-0.131,1.471-0.392c0.464-0.261,0.82-0.614,1.069-1.06c0.25-0.445,0.375-0.947,0.375-1.505
				c0-0.85-0.28-1.561-0.84-2.132C175.287,97.428,174.597,97.143,173.779,97.143z"/>
			<path fill="#231F20" d="M183.381,97.224l-0.607,0.628c-0.506-0.491-1.001-0.736-1.483-0.736c-0.308,0-0.57,0.101-0.789,0.304
				c-0.22,0.203-0.329,0.439-0.329,0.709c0,0.239,0.091,0.466,0.271,0.682c0.18,0.221,0.56,0.48,1.137,0.777
				c0.704,0.365,1.183,0.716,1.436,1.054c0.248,0.342,0.372,0.728,0.372,1.155c0,0.604-0.212,1.115-0.636,1.534
				c-0.424,0.418-0.954,0.628-1.59,0.628c-0.425,0-0.829-0.092-1.215-0.277s-0.705-0.439-0.957-0.763l0.594-0.676
				c0.483,0.545,0.996,0.817,1.538,0.817c0.379,0,0.701-0.122,0.968-0.365s0.399-0.529,0.399-0.858c0-0.271-0.088-0.511-0.264-0.723
				c-0.176-0.207-0.573-0.468-1.191-0.784c-0.664-0.342-1.115-0.68-1.354-1.013c-0.239-0.333-0.358-0.714-0.358-1.142
				c0-0.559,0.19-1.022,0.571-1.392c0.382-0.37,0.863-0.554,1.445-0.554C182.015,96.23,182.696,96.562,183.381,97.224z"/>
		</g>
		<path d="M165.241,128.137c0,0-1.326,5.684-7.768,5.684c-6.443,0-7.768-5.684-7.768-5.684h-3.221c0,0,1.988,8.716,10.988,8.716
			c8.904,0,10.988-8.716,10.988-8.716H165.241z M162.968,122.831c1.361,0,2.463-1.103,2.463-2.462c0-1.361-1.102-2.465-2.463-2.465
			s-2.463,1.104-2.463,2.465C160.505,121.729,161.606,122.831,162.968,122.831 M151.979,122.831c1.359,0,2.461-1.103,2.461-2.462
			c0-1.361-1.102-2.465-2.461-2.465c-1.361,0-2.463,1.104-2.463,2.465C149.517,121.729,150.618,122.831,151.979,122.831"/>
		<g>
			<path fill="#231F20" d="M291.244,204.785v-0.973h5.445v0.973h-2.217v8.965h-1.014v-8.965H291.244z"/>
			<path fill="#231F20" d="M297.607,206.399h0.967v1.074c0.287-0.423,0.592-0.74,0.912-0.949c0.318-0.209,0.652-0.314,1-0.314
				c0.26,0,0.539,0.083,0.836,0.25l-0.492,0.797c-0.199-0.086-0.365-0.128-0.5-0.128c-0.314,0-0.619,0.129-0.912,0.388
				c-0.293,0.259-0.516,0.661-0.668,1.206c-0.117,0.419-0.176,1.266-0.176,2.54v2.486h-0.967V206.399z"/>
			<path fill="#231F20" d="M309.451,206.399v7.351h-0.932v-1.264c-0.396,0.482-0.842,0.845-1.336,1.088
				c-0.492,0.243-1.031,0.365-1.617,0.365c-1.041,0-1.93-0.378-2.666-1.132c-0.736-0.755-1.104-1.672-1.104-2.753
				c0-1.059,0.371-1.964,1.115-2.716c0.742-0.752,1.637-1.128,2.682-1.128c0.604,0,1.148,0.128,1.639,0.385
				c0.488,0.256,0.916,0.642,1.287,1.155v-1.352H309.451z M305.672,207.123c-0.527,0-1.014,0.129-1.459,0.388
				c-0.445,0.258-0.799,0.622-1.062,1.09s-0.395,0.962-0.395,1.484c0,0.518,0.133,1.012,0.398,1.484
				c0.266,0.473,0.621,0.841,1.068,1.104c0.449,0.264,0.93,0.395,1.441,0.395c0.518,0,1.008-0.13,1.471-0.392
				c0.465-0.261,0.82-0.613,1.07-1.059c0.25-0.445,0.375-0.947,0.375-1.505c0-0.85-0.281-1.561-0.84-2.132
				C307.18,207.408,306.49,207.123,305.672,207.123z"/>
			<path fill="#231F20" d="M311.639,213.75v-10.188h0.947v4.101c0.395-0.486,0.838-0.85,1.328-1.091
				c0.492-0.241,1.029-0.361,1.613-0.361c1.041,0,1.928,0.377,2.664,1.132c0.734,0.754,1.104,1.669,1.104,2.746
				c0,1.063-0.373,1.97-1.115,2.722c-0.742,0.753-1.635,1.129-2.678,1.129c-0.6,0-1.141-0.129-1.627-0.386s-0.916-0.642-1.289-1.155
				v1.352H311.639z M315.424,213.027c0.525,0,1.01-0.13,1.455-0.389s0.799-0.623,1.061-1.091c0.264-0.468,0.395-0.963,0.395-1.486
				s-0.133-1.021-0.396-1.493c-0.266-0.473-0.621-0.841-1.068-1.104c-0.447-0.264-0.926-0.396-1.434-0.396
				c-0.516,0-1.006,0.132-1.473,0.396c-0.465,0.263-0.822,0.618-1.07,1.064c-0.25,0.446-0.375,0.948-0.375,1.506
				c0,0.852,0.279,1.563,0.84,2.135C313.916,212.741,314.605,213.027,315.424,213.027z"/>
			<path fill="#231F20" d="M328.34,206.399v7.351h-0.932v-1.264c-0.396,0.482-0.842,0.845-1.334,1.088
				c-0.494,0.243-1.033,0.365-1.619,0.365c-1.039,0-1.928-0.378-2.664-1.132c-0.736-0.755-1.105-1.672-1.105-2.753
				c0-1.059,0.373-1.964,1.115-2.716c0.744-0.752,1.637-1.128,2.682-1.128c0.604,0,1.15,0.128,1.639,0.385
				c0.488,0.256,0.918,0.642,1.287,1.155v-1.352H328.34z M324.561,207.123c-0.525,0-1.012,0.129-1.457,0.388
				c-0.445,0.258-0.801,0.622-1.062,1.09c-0.264,0.468-0.395,0.962-0.395,1.484c0,0.518,0.131,1.012,0.396,1.484
				c0.266,0.473,0.623,0.841,1.07,1.104c0.447,0.264,0.928,0.395,1.441,0.395c0.518,0,1.008-0.13,1.471-0.392
				c0.463-0.261,0.82-0.613,1.068-1.059c0.25-0.445,0.375-0.947,0.375-1.505c0-0.85-0.279-1.561-0.84-2.132
				S325.379,207.123,324.561,207.123z"/>
			<path fill="#231F20" d="M330.354,206.399h0.959v8.459c0,0.616-0.111,1.065-0.334,1.348c-0.223,0.281-0.527,0.422-0.916,0.422
				c-0.318,0-0.68-0.076-1.08-0.229v-0.852c0.252,0.131,0.479,0.196,0.682,0.196c0.258,0,0.449-0.106,0.574-0.317
				c0.076-0.136,0.115-0.417,0.115-0.845V206.399z M330.82,203.373c0.215,0,0.398,0.077,0.551,0.229
				c0.15,0.153,0.227,0.338,0.227,0.554c0,0.212-0.076,0.394-0.227,0.547c-0.152,0.153-0.336,0.229-0.551,0.229
				c-0.217,0-0.4-0.077-0.551-0.229c-0.15-0.153-0.227-0.335-0.227-0.547c0-0.216,0.076-0.401,0.227-0.554
				C330.42,203.45,330.604,203.373,330.82,203.373z"/>
			<path fill="#231F20" d="M336.758,206.21c1.133,0,2.072,0.41,2.816,1.229c0.676,0.748,1.014,1.633,1.014,2.655
				c0,1.027-0.357,1.924-1.072,2.692c-0.715,0.769-1.635,1.152-2.758,1.152c-1.127,0-2.049-0.384-2.764-1.152
				c-0.715-0.768-1.072-1.665-1.072-2.692c0-1.018,0.338-1.901,1.014-2.648C334.68,206.623,335.621,206.21,336.758,206.21z
				 M336.756,207.136c-0.787,0-1.463,0.29-2.027,0.871c-0.566,0.581-0.848,1.284-0.848,2.108c0,0.532,0.129,1.027,0.387,1.486
				c0.256,0.459,0.605,0.814,1.043,1.064c0.439,0.25,0.92,0.375,1.445,0.375c0.523,0,1.004-0.125,1.443-0.375
				c0.438-0.25,0.787-0.605,1.043-1.064c0.258-0.459,0.387-0.955,0.387-1.486c0-0.824-0.283-1.527-0.85-2.108
				C338.211,207.426,337.537,207.136,336.756,207.136z"/>
			<path fill="#231F20" d="M344.459,203.373h1.096c-0.441,0.905-0.795,1.961-1.061,3.168s-0.398,2.452-0.398,3.736
				c0,1.189,0.1,2.336,0.301,3.438c0.199,1.104,0.475,2.074,0.826,2.912h-1.039c-0.334-0.802-0.6-1.745-0.797-2.831
				c-0.199-1.085-0.299-2.215-0.299-3.391c0-1.266,0.117-2.499,0.352-3.699S344.014,204.396,344.459,203.373z"/>
			<path fill="#231F20" d="M351.141,207.204l-0.607,0.628c-0.506-0.491-1-0.736-1.482-0.736c-0.309,0-0.57,0.101-0.789,0.304
				c-0.221,0.203-0.33,0.439-0.33,0.709c0,0.239,0.092,0.466,0.271,0.682c0.18,0.221,0.561,0.48,1.137,0.777
				c0.705,0.365,1.184,0.716,1.436,1.054c0.248,0.342,0.373,0.728,0.373,1.155c0,0.604-0.213,1.114-0.637,1.533
				s-0.953,0.629-1.59,0.629c-0.424,0-0.828-0.093-1.215-0.277c-0.385-0.185-0.705-0.439-0.957-0.764l0.594-0.675
				c0.484,0.545,0.996,0.817,1.539,0.817c0.379,0,0.701-0.122,0.967-0.365c0.268-0.243,0.4-0.529,0.4-0.858
				c0-0.27-0.088-0.511-0.264-0.723c-0.176-0.207-0.574-0.468-1.191-0.784c-0.664-0.342-1.115-0.68-1.355-1.013
				c-0.238-0.333-0.357-0.714-0.357-1.142c0-0.559,0.189-1.022,0.57-1.392c0.383-0.37,0.863-0.554,1.445-0.554
				C349.775,206.21,350.455,206.542,351.141,207.204z"/>
			<path fill="#231F20" d="M353.695,216.628h-1.094c0.445-0.905,0.801-1.962,1.062-3.168c0.264-1.207,0.396-2.453,0.396-3.736
				c0-1.189-0.102-2.335-0.301-3.439c-0.201-1.104-0.477-2.074-0.828-2.912h1.041c0.338,0.802,0.604,1.746,0.801,2.834
				c0.195,1.088,0.293,2.219,0.293,3.395c0,1.261-0.117,2.492-0.352,3.692S354.141,215.605,353.695,216.628z"/>
			<path fill="#231F20" d="M369.092,203.562v10.188h-0.934v-1.264c-0.395,0.482-0.84,0.845-1.334,1.088
				c-0.492,0.243-1.031,0.365-1.617,0.365c-1.041,0-1.93-0.378-2.666-1.132c-0.736-0.755-1.104-1.672-1.104-2.753
				c0-1.059,0.371-1.964,1.115-2.716c0.742-0.752,1.637-1.128,2.682-1.128c0.604,0,1.148,0.128,1.639,0.385
				c0.488,0.256,0.916,0.642,1.285,1.155v-4.189H369.092z M365.312,207.123c-0.527,0-1.014,0.129-1.459,0.388
				c-0.445,0.258-0.799,0.622-1.062,1.09s-0.395,0.962-0.395,1.484c0,0.518,0.133,1.012,0.398,1.484
				c0.266,0.473,0.621,0.841,1.068,1.104c0.449,0.264,0.928,0.395,1.441,0.395c0.518,0,1.008-0.13,1.471-0.392
				c0.463-0.261,0.82-0.613,1.07-1.059c0.25-0.445,0.375-0.947,0.375-1.505c0-0.85-0.281-1.561-0.842-2.132
				C366.82,207.408,366.131,207.123,365.312,207.123z"/>
			<path fill="#231F20" d="M377.422,211.311l0.797,0.419c-0.262,0.513-0.564,0.928-0.906,1.242c-0.342,0.315-0.729,0.556-1.156,0.72
				s-0.912,0.247-1.453,0.247c-1.199,0-2.137-0.394-2.814-1.179c-0.676-0.786-1.014-1.675-1.014-2.666
				c0-0.933,0.287-1.763,0.859-2.493c0.725-0.928,1.697-1.392,2.914-1.392c1.254,0,2.254,0.475,3.002,1.425
				c0.531,0.671,0.803,1.509,0.811,2.513h-6.613c0.018,0.854,0.291,1.554,0.818,2.1s1.18,0.818,1.955,0.818
				c0.375,0,0.738-0.064,1.092-0.195c0.355-0.13,0.656-0.303,0.904-0.518C376.865,212.139,377.133,211.791,377.422,211.311z
				 M377.422,209.332c-0.127-0.504-0.311-0.907-0.551-1.209c-0.242-0.302-0.561-0.545-0.959-0.73
				c-0.396-0.185-0.812-0.277-1.25-0.277c-0.723,0-1.342,0.232-1.861,0.696c-0.379,0.338-0.664,0.845-0.857,1.52H377.422z"/>
			<path fill="#231F20" d="M380.084,203.562h0.945v10.188h-0.945V203.562z"/>
			<path fill="#231F20" d="M393.961,207.926l-0.75,0.466c-0.648-0.86-1.533-1.291-2.652-1.291c-0.896,0-1.639,0.288-2.23,0.864
				c-0.592,0.576-0.887,1.275-0.887,2.099c0,0.536,0.135,1.04,0.408,1.512c0.271,0.473,0.645,0.839,1.119,1.1
				c0.475,0.262,1.008,0.392,1.596,0.392c1.08,0,1.961-0.43,2.646-1.29l0.75,0.493c-0.352,0.529-0.824,0.939-1.416,1.231
				c-0.592,0.291-1.268,0.438-2.023,0.438c-1.162,0-2.127-0.369-2.893-1.108c-0.766-0.738-1.148-1.637-1.148-2.695
				c0-0.712,0.18-1.373,0.537-1.983c0.359-0.61,0.852-1.086,1.477-1.429c0.627-0.342,1.326-0.514,2.102-0.514
				c0.486,0,0.955,0.074,1.408,0.223c0.453,0.148,0.838,0.342,1.152,0.581C393.471,207.253,393.74,207.557,393.961,207.926z"/>
			<path fill="#231F20" d="M395.635,203.562h0.945v10.188h-0.945V203.562z"/>
			<path fill="#231F20" d="M398.875,203.373c0.215,0,0.398,0.077,0.553,0.229c0.152,0.153,0.229,0.338,0.229,0.554
				c0,0.212-0.076,0.394-0.229,0.547c-0.154,0.153-0.338,0.229-0.553,0.229c-0.211,0-0.393-0.077-0.545-0.229
				c-0.152-0.153-0.229-0.335-0.229-0.547c0-0.216,0.076-0.401,0.229-0.554C398.482,203.45,398.664,203.373,398.875,203.373z
				 M398.406,206.399h0.945v7.351h-0.945V206.399z"/>
			<path fill="#231F20" d="M407.506,211.311l0.797,0.419c-0.262,0.513-0.564,0.928-0.906,1.242c-0.342,0.315-0.729,0.556-1.156,0.72
				s-0.912,0.247-1.453,0.247c-1.199,0-2.137-0.394-2.814-1.179c-0.676-0.786-1.014-1.675-1.014-2.666
				c0-0.933,0.287-1.763,0.859-2.493c0.725-0.928,1.697-1.392,2.914-1.392c1.254,0,2.254,0.475,3.002,1.425
				c0.531,0.671,0.803,1.509,0.811,2.513h-6.613c0.018,0.854,0.291,1.554,0.818,2.1s1.18,0.818,1.955,0.818
				c0.375,0,0.738-0.064,1.092-0.195c0.355-0.13,0.656-0.303,0.904-0.518C406.949,212.139,407.217,211.791,407.506,211.311z
				 M407.506,209.332c-0.127-0.504-0.311-0.907-0.551-1.209c-0.242-0.302-0.561-0.545-0.959-0.73
				c-0.396-0.185-0.812-0.277-1.25-0.277c-0.723,0-1.342,0.232-1.861,0.696c-0.379,0.338-0.664,0.845-0.857,1.52H407.506z"/>
			<path fill="#231F20" d="M410.309,206.399h0.947v1.317c0.377-0.504,0.797-0.881,1.256-1.131s0.959-0.375,1.5-0.375
				c0.549,0,1.037,0.14,1.463,0.419s0.74,0.655,0.941,1.128c0.203,0.473,0.305,1.209,0.305,2.209v3.783h-0.945v-3.506
				c0-0.847-0.035-1.412-0.105-1.696c-0.109-0.486-0.32-0.852-0.631-1.098s-0.717-0.368-1.217-0.368
				c-0.572,0-1.084,0.189-1.537,0.567s-0.75,0.847-0.895,1.405c-0.09,0.365-0.135,1.031-0.135,2v2.696h-0.947V206.399z"/>
			<path fill="#231F20" d="M419.57,203.67h0.947v2.729h1.5v0.818h-1.5v6.533h-0.947v-6.533h-1.289v-0.818h1.289V203.67z"/>
			<path fill="#231F20" d="M429.625,211.311l0.797,0.419c-0.262,0.513-0.564,0.928-0.906,1.242c-0.342,0.315-0.729,0.556-1.156,0.72
				s-0.912,0.247-1.453,0.247c-1.199,0-2.137-0.394-2.814-1.179c-0.676-0.786-1.014-1.675-1.014-2.666
				c0-0.933,0.287-1.763,0.859-2.493c0.725-0.928,1.697-1.392,2.914-1.392c1.254,0,2.254,0.475,3.002,1.425
				c0.531,0.671,0.803,1.509,0.811,2.513h-6.613c0.018,0.854,0.291,1.554,0.818,2.1s1.18,0.818,1.955,0.818
				c0.375,0,0.738-0.064,1.092-0.195c0.355-0.13,0.656-0.303,0.904-0.518C429.068,212.139,429.336,211.791,429.625,211.311z
				 M429.625,209.332c-0.127-0.504-0.311-0.907-0.551-1.209c-0.242-0.302-0.561-0.545-0.959-0.73
				c-0.396-0.185-0.812-0.277-1.25-0.277c-0.723,0-1.342,0.232-1.861,0.696c-0.379,0.338-0.664,0.845-0.857,1.52H429.625z"/>
		</g>
		<g>
			<polygon points="346.497,236.756 343.253,233.512 344.911,231.852 346.401,233.34 351.28,227.885 353.028,229.447 			"/>
			<polygon points="346.497,247.902 343.253,244.658 344.911,243 346.401,244.488 351.28,239.033 353.028,240.594 			"/>
			<path d="M347.921,253.602c-1.133,0-2.055,0.92-2.055,2.053s0.922,2.053,2.055,2.053c1.131,0,2.053-0.92,2.053-2.053
				S349.052,253.602,347.921,253.602 M347.921,260.055c-2.426,0-4.402-1.975-4.402-4.4s1.977-4.4,4.402-4.4
				c2.424,0,4.398,1.975,4.398,4.4S350.345,260.055,347.921,260.055"/>
			<rect x="357.239" y="231.6" width="21.902" height="3.52"/>
			<rect x="357.239" y="242.748" width="21.902" height="3.52"/>
			<rect x="357.239" y="253.895" width="21.902" height="3.52"/>
		</g>
		<line fill="none" stroke="#231F20" stroke-width="1.7442" x1="229.235" y1="228.742" x2="388.37" y2="69.613"/>
		<line fill="none" stroke="#231F20" stroke-width="1.7442" x1="229.235" y1="228.488" x2="388.37" y2="387.627"/>
		<path fill="#FFFFFF" d="M202.87,249.65c3.203,4.223,7.361,7.787,12.354,10.27c19.328,9.607,42.621,0.203,49.764-20.09
			c5.891-16.734-1.779-35.555-17.717-43.48c-19.324-9.607-42.617-0.204-49.762,20.09l-5.75,14.168
			c-0.773,1.871,0.131,4.033,2.012,4.805l2.861,1.178c0.682,2.734,1.646,5.395,2.945,7.896l11.863,0.674L202.87,249.65z"/>
		<path d="M205.169,250.133c2.994,3.559,6.596,6.398,10.727,8.451c4.84,2.406,10,3.627,15.338,3.629
			c14.525,0,27.523-9.193,32.338-22.877c5.674-16.115-1.623-34.021-16.969-41.65c-4.842-2.406-10.002-3.627-15.338-3.627
			c-14.527,0-27.523,9.193-32.34,22.875l-5.775,14.23c-0.465,1.127,0.07,2.41,1.193,2.871l3.562,1.461l0.184,0.734
			c0.604,2.43,1.424,4.719,2.439,6.814l16.393,0.934L205.169,250.133z M231.233,265.197L231.233,265.197
			c-5.807,0-11.418-1.326-16.678-3.941c-5.072-2.521-9.404-6.123-12.883-10.705l-1.064-1.404l5.352-2.801l-7.324-0.418l-0.393-0.756
			c-1.189-2.297-2.156-4.811-2.875-7.488l-2.172-0.891c-2.648-1.088-3.914-4.119-2.822-6.754l5.744-14.158
			c5.213-14.812,19.346-24.809,35.146-24.809c5.805,0,11.416,1.326,16.678,3.943c16.693,8.299,24.629,27.777,18.459,45.309
			C261.167,255.199,247.03,265.197,231.233,265.197"/>
		<path d="M214.54,220.512c-0.465,2.135-2.893,3.117-4.719,1.906c-1.016-0.672-1.535-1.949-1.279-3.135
			c0.463-2.135,2.895-3.117,4.721-1.906C214.276,218.051,214.798,219.326,214.54,220.512"/>
	</g>
</g>
</svg>
