<?xml version="1.0" encoding="utf-8"?>
<!-- Generator: Adobe Illustrator 16.0.3, SVG Export Plug-In . SVG Version: 6.00 Build 0)  -->
<!DOCTYPE svg PUBLIC "-//W3C//DTD SVG 1.1//EN" "http://www.w3.org/Graphics/SVG/1.1/DTD/svg11.dtd">
<svg version="1.1" id="Layer_1" xmlns="http://www.w3.org/2000/svg" xmlns:xlink="http://www.w3.org/1999/xlink" x="0px" y="0px"
	 width="191.326px" height="38.184px" viewBox="0 0 191.326 38.184" enable-background="new 0 0 191.326 38.184"
	 xml:space="preserve">
<g>
	<g>
		<g>
			<path fill="#E9DA1E" d="M15.478,28.169v-7.856c0-2.283-1.249-4.019-3.624-4.019c-2.283,0-3.836,1.918-3.836,4.201v7.674H4.333
				V13.126h3.318l0.244,2.041c1.522-1.492,3.045-2.254,4.934-2.254c3.531,0,6.363,2.649,6.363,7.369v7.887H15.478z"/>
			<path fill="#E9DA1E" d="M37.308,20.679c0,4.323-2.953,7.825-7.825,7.825s-7.795-3.502-7.795-7.825
				c0-4.294,2.984-7.826,7.765-7.826C34.233,12.853,37.308,16.385,37.308,20.679z M25.402,20.679c0,2.283,1.37,4.415,4.08,4.415
				s4.081-2.132,4.081-4.415c0-2.254-1.584-4.446-4.081-4.446C26.803,16.232,25.402,18.425,25.402,20.679z"/>
			<path fill="#E9DA1E" d="M44.798,8.925v4.263h4.142v3.197h-4.172v6.485c0,1.432,0.792,2.132,1.949,2.132
				c0.578,0,1.248-0.183,1.797-0.456l1.034,3.166c-1.065,0.427-1.948,0.609-3.075,0.64c-3.258,0.122-5.39-1.735-5.39-5.481v-6.485
				h-2.802v-3.197h2.802V9.32L44.798,8.925z"/>
		</g>
	</g>
	<g>
		<path fill="#FFFFFF" d="M65.305,25.855c-1.521,1.521-3.501,2.252-5.479,2.252c-4.233,0-7.735-2.923-7.735-7.673
			s3.381-7.673,7.735-7.673c1.979,0,3.958,0.761,5.479,2.253l-0.974,0.943c-1.218-1.218-2.893-1.796-4.506-1.796
			c-3.411,0-6.272,2.223-6.272,6.272s2.861,6.272,6.272,6.272c1.613,0,3.258-0.639,4.476-1.857L65.305,25.855z"/>
		<path fill="#FFFFFF" d="M67.954,20.466c0-4.781,3.41-7.826,7.642-7.826c4.233,0,7.644,3.045,7.644,7.826
			c0,4.78-3.41,7.703-7.644,7.703C71.364,28.169,67.954,25.246,67.954,20.466z M81.777,20.466c0-3.897-2.771-6.426-6.182-6.426
			s-6.181,2.528-6.181,6.426s2.771,6.241,6.181,6.241S81.777,24.363,81.777,20.466z"/>
		<path fill="#FFFFFF" d="M88.141,12.913v2.68c1.156-2.07,3.257-2.923,5.358-2.953c4.02,0,6.79,2.466,6.79,6.638v8.679h-1.492
			v-8.647c0-3.41-2.101-5.238-5.358-5.207c-3.106,0.03-5.269,2.375-5.269,5.48v8.374h-1.492V12.913H88.141z"/>
		<path fill="#FFFFFF" d="M114.508,15.654c-1.522-1.34-3.015-1.584-4.689-1.584c-2.345-0.03-4.599,0.853-4.537,2.771
			c0.061,2.01,2.68,2.405,4.567,2.74c2.68,0.457,6.364,0.913,6.212,4.415c-0.092,3.319-3.532,4.202-6.182,4.202
			c-2.648,0-5.268-1.004-6.577-3.015l1.097-0.975c1.249,1.797,3.502,2.558,5.512,2.558c1.826,0,4.598-0.486,4.688-2.861
			c0.062-2.162-2.437-2.588-4.901-2.984c-2.924-0.487-5.816-1.035-5.847-4.05c-0.03-2.953,2.923-4.232,5.968-4.202
			c2.192,0,4.11,0.609,5.603,2.01L114.508,15.654z"/>
		<path fill="#FFFFFF" d="M131.498,27.956v-2.71c-1.157,2.07-3.259,2.923-5.359,2.953c-4.02,0-6.791-2.467-6.791-6.638v-8.678h1.493
			v8.647c0,3.41,2.101,5.236,5.358,5.207c3.105-0.031,5.268-2.375,5.268-5.481v-8.373h1.493v15.072H131.498z"/>
		<path fill="#FFFFFF" d="M138.377,6.641v21.315h-1.491V6.641H138.377z"/>
		<path fill="#FFFFFF" d="M145.989,8.376v4.537h5.116v1.249h-5.116v9.165c0,2.04,0.426,3.472,2.771,3.472
			c0.73,0,1.552-0.244,2.313-0.609l0.518,1.219c-0.943,0.456-1.888,0.761-2.831,0.761c-3.198,0-4.233-1.888-4.233-4.842v-9.165
			h-3.196v-1.249h3.196V8.529L145.989,8.376z"/>
		<path fill="#FFFFFF" d="M156.524,8.011c0,1.584-2.405,1.584-2.405,0C154.119,6.428,156.524,6.428,156.524,8.011z M154.545,12.853
			v15.104h1.492V12.853H154.545z"/>
		<path fill="#FFFFFF" d="M161.762,12.913v2.68c1.156-2.07,3.258-2.923,5.359-2.953c4.019,0,6.789,2.466,6.789,6.638v8.679h-1.491
			v-8.647c0-3.41-2.101-5.238-5.359-5.207c-3.106,0.03-5.269,2.375-5.269,5.48v8.374H160.3V12.913H161.762z"/>
		<path fill="#FFFFFF" d="M189.895,12.305l0.975,0.853l-1.461,1.705c1.065,1.157,1.857,2.68,1.857,5.116
			c0,2.618-1.554,5.268-4.05,6.394c2.649,0.944,4.11,2.802,4.11,5.39c0,4.05-3.167,5.999-7.155,5.999
			c-3.989,0-7.125-2.192-7.125-5.999h1.491c0,3.075,2.619,4.537,5.634,4.537s5.694-1.34,5.694-4.537
			c0-3.228-2.894-4.507-5.694-4.507c-4.354,0-7.064-3.258-7.064-7.276c0-4.69,3.167-7.339,7.064-7.339
			c1.522,0,3.106,0.548,4.263,1.37L189.895,12.305z M178.599,19.979c0,3.104,2.132,5.785,5.572,5.785
			c3.106,0,5.633-2.681,5.633-5.785c0-3.807-2.526-5.847-5.633-5.847C181.096,14.132,178.599,16.05,178.599,19.979z"/>
	</g>
</g>
</svg>
