<svg version="1.1" xmlns="http://www.w3.org/2000/svg" xmlns:xlink="http://www.w3.org/1999/xlink" x="0px" y="0px"
	 width="964.031px" height="500.625px" viewBox="0 0 964.031 500.625" enable-background="new 0 0 964.031 500.625"
	 xml:space="preserve">

	<g id="vision" class="droppable">
		<rect x="2.005" y="2.066" fill="#FFF" stroke="#000000" stroke-width="4" stroke-miterlimit="10" width="960.021" height="90"/>
	</g>
	<g id="objetivo" class="droppable">
		<rect x="2.005" y="92.066" fill="#FFF" stroke="#000000" stroke-width="4" stroke-miterlimit="10" width="240" height="316.493"/>
	</g>
	<g id="necesidades" class="droppable">
		<rect x="242.005" y="92.066" fill="#FFF" stroke="#000000" stroke-width="4" stroke-miterlimit="10" width="240.001" height="316.493"/>
	</g>
	<g  id="pvalor" class="droppable">
		<rect x="482.026" y="92.066" fill="#FFF" stroke="#000000" stroke-width="4" stroke-miterlimit="10" width="239.952" height="158.289"/>
	</g>
	<g id="dolor" class="droppable">
		<rect x="482.074" y="250.266" fill="#FFF" stroke="#000000" stroke-width="4" stroke-miterlimit="10" width="239.952" height="158.294"/>
	</g>
	<g id="proyecto" class="droppable">
		<rect x="722.026" y="92.066" fill="#FFF" stroke="#000000" stroke-width="4" stroke-miterlimit="10" width="240" height="316.493"/>
	</g>
	<g id="kpi"  class="droppable">
		<rect x="2.005" y="408.56" fill="#FFF" stroke="#000000" stroke-width="4" stroke-miterlimit="10" width="960.021" height="89.999"/>
	</g>
	<g id="lines">
		<g>
			<g>
				<path fill="#231F20" d="M75.892,63.239h0.84l2.558,5.963l2.6-5.963h0.841l-3.358,7.719h-0.168L75.892,63.239z"/>
				<path fill="#231F20" d="M84.158,62.896c0.167,0,0.31,0.061,0.429,0.179c0.118,0.118,0.178,0.262,0.178,0.43
					c0,0.166-0.06,0.308-0.178,0.425c-0.119,0.12-0.261,0.179-0.429,0.179c-0.164,0-0.304-0.059-0.423-0.179
					c-0.118-0.117-0.177-0.259-0.177-0.425c0-0.167,0.059-0.312,0.177-0.43C83.854,62.957,83.994,62.896,84.158,62.896z
					 M83.794,65.248h0.735v5.709h-0.735V65.248z"/>
				<path fill="#231F20" d="M88.925,65.873l-0.472,0.486c-0.394-0.381-0.777-0.57-1.153-0.57c-0.237,0-0.442,0.079-0.611,0.235
					c-0.17,0.156-0.255,0.342-0.255,0.552c0,0.185,0.069,0.361,0.211,0.528c0.14,0.172,0.435,0.373,0.883,0.604
					c0.547,0.284,0.918,0.557,1.114,0.817c0.192,0.267,0.289,0.563,0.289,0.896c0,0.47-0.166,0.867-0.493,1.192
					c-0.33,0.324-0.741,0.487-1.234,0.487c-0.33,0-0.644-0.071-0.943-0.216c-0.299-0.144-0.547-0.341-0.743-0.594l0.462-0.523
					c0.375,0.422,0.772,0.635,1.193,0.635c0.294,0,0.545-0.097,0.751-0.283c0.208-0.188,0.312-0.411,0.312-0.667
					c0-0.209-0.069-0.396-0.205-0.563c-0.137-0.16-0.445-0.362-0.925-0.607c-0.517-0.268-0.866-0.528-1.053-0.787
					c-0.186-0.259-0.277-0.556-0.277-0.888c0-0.435,0.147-0.794,0.442-1.08c0.296-0.287,0.67-0.433,1.123-0.433
					C87.864,65.1,88.393,65.356,88.925,65.873z"/>
				<path fill="#231F20" d="M90.481,62.896c0.167,0,0.31,0.061,0.428,0.179s0.178,0.262,0.178,0.43c0,0.166-0.06,0.308-0.178,0.425
					c-0.118,0.12-0.261,0.179-0.428,0.179c-0.164,0-0.306-0.059-0.423-0.179c-0.119-0.117-0.179-0.259-0.179-0.425
					c0-0.167,0.06-0.312,0.179-0.43C90.176,62.957,90.317,62.896,90.481,62.896z M90.116,65.248h0.734v5.709h-0.734V65.248z"/>
				<path fill="#231F20" d="M95.08,65.1c0.88,0,1.608,0.319,2.188,0.955c0.524,0.582,0.787,1.27,0.787,2.063
					c0,0.797-0.277,1.494-0.833,2.091c-0.556,0.596-1.27,0.896-2.142,0.896c-0.876,0-1.591-0.299-2.146-0.896
					c-0.556-0.597-0.833-1.294-0.833-2.091c0-0.791,0.263-1.479,0.789-2.058C93.466,65.421,94.197,65.1,95.08,65.1z M95.078,65.821
					c-0.611,0-1.136,0.226-1.574,0.677c-0.438,0.451-0.659,0.996-0.659,1.637c0,0.412,0.101,0.797,0.301,1.154
					c0.198,0.355,0.471,0.632,0.811,0.827c0.34,0.192,0.715,0.291,1.122,0.291s0.781-0.1,1.122-0.291
					c0.341-0.194,0.611-0.472,0.812-0.827c0.199-0.356,0.301-0.742,0.301-1.154c0-0.641-0.222-1.186-0.661-1.637
					C96.208,66.046,95.685,65.821,95.078,65.821z M95.443,62.572h1.127l-1.548,1.615h-0.725L95.443,62.572z"/>
				<path fill="#231F20" d="M99.414,65.248h0.734v1.022c0.293-0.393,0.619-0.687,0.976-0.88c0.357-0.191,0.745-0.291,1.165-0.291
					c0.426,0,0.805,0.108,1.136,0.326c0.33,0.217,0.574,0.51,0.731,0.876c0.158,0.367,0.236,0.939,0.236,1.717v2.938h-0.734v-2.724
					c0-0.657-0.027-1.099-0.082-1.317c-0.084-0.378-0.248-0.662-0.49-0.854c-0.242-0.189-0.556-0.286-0.943-0.286
					c-0.444,0-0.844,0.146-1.194,0.441c-0.353,0.294-0.583,0.658-0.696,1.092c-0.069,0.282-0.104,0.801-0.104,1.554v2.093h-0.734
					L99.414,65.248L99.414,65.248L99.414,65.248z"/>
				<path fill="#231F20" d="M114.641,63.043v7.913h-0.726v-0.981c-0.308,0.374-0.653,0.655-1.036,0.847
					c-0.383,0.188-0.802,0.283-1.256,0.283c-0.809,0-1.499-0.293-2.07-0.879c-0.572-0.587-0.857-1.299-0.857-2.139
					c0-0.822,0.289-1.525,0.866-2.108c0.577-0.584,1.271-0.877,2.083-0.877c0.469,0,0.893,0.102,1.271,0.3s0.712,0.499,1,0.897
					v-3.253h0.725V63.043z M111.705,65.808c-0.409,0-0.787,0.103-1.132,0.302c-0.346,0.201-0.621,0.482-0.825,0.848
					c-0.204,0.363-0.306,0.747-0.306,1.151c0,0.401,0.103,0.786,0.309,1.152c0.206,0.367,0.483,0.652,0.831,0.857
					c0.348,0.204,0.721,0.306,1.12,0.306c0.401,0,0.782-0.102,1.142-0.304c0.36-0.202,0.638-0.479,0.83-0.822
					c0.194-0.346,0.291-0.735,0.291-1.169c0-0.661-0.218-1.212-0.651-1.656C112.876,66.032,112.341,65.808,111.705,65.808z"/>
				<path fill="#231F20" d="M121.109,69.062l0.619,0.324c-0.203,0.399-0.438,0.721-0.704,0.967c-0.267,0.243-0.565,0.432-0.898,0.559
					c-0.333,0.128-0.708,0.191-1.129,0.191c-0.931,0-1.66-0.306-2.185-0.916c-0.525-0.61-0.788-1.301-0.788-2.068
					c0-0.725,0.222-1.37,0.668-1.938c0.563-0.719,1.316-1.081,2.263-1.081c0.973,0,1.75,0.37,2.332,1.108
					c0.413,0.521,0.623,1.172,0.63,1.952h-5.137c0.014,0.663,0.226,1.206,0.636,1.63c0.41,0.425,0.916,0.636,1.519,0.636
					c0.291,0,0.573-0.05,0.849-0.15c0.273-0.103,0.508-0.234,0.702-0.401C120.677,69.705,120.885,69.436,121.109,69.062z
					 M121.109,67.524c-0.1-0.393-0.241-0.704-0.429-0.938c-0.188-0.235-0.436-0.423-0.742-0.566c-0.31-0.144-0.634-0.216-0.973-0.216
					c-0.561,0-1.042,0.181-1.444,0.54c-0.294,0.263-0.518,0.656-0.667,1.182h4.255V67.524z"/>
				<path fill="#231F20" d="M123.177,63.043h0.735v7.913h-0.735V63.043z"/>
				<path fill="#231F20" d="M128.529,63.239h1.538c0.881,0,1.476,0.037,1.784,0.114c0.439,0.107,0.801,0.33,1.08,0.669
					c0.281,0.337,0.421,0.762,0.421,1.271c0,0.514-0.138,0.938-0.409,1.271c-0.273,0.334-0.649,0.56-1.127,0.675
					c-0.352,0.084-1.004,0.126-1.963,0.126h-0.552v3.589h-0.771L128.529,63.239L128.529,63.239z M129.301,63.995v2.618l1.308,0.015
					c0.527,0,0.914-0.048,1.159-0.146c0.244-0.097,0.437-0.252,0.577-0.468c0.142-0.215,0.21-0.454,0.21-0.72
					c0-0.259-0.069-0.495-0.21-0.71c-0.14-0.214-0.324-0.367-0.553-0.458s-0.604-0.136-1.125-0.136L129.301,63.995L129.301,63.995z"
					/>
				<path fill="#231F20" d="M134.496,65.248h0.75v0.835c0.224-0.329,0.459-0.575,0.708-0.737c0.249-0.163,0.507-0.245,0.777-0.245
					c0.203,0,0.42,0.065,0.65,0.195l-0.383,0.62c-0.153-0.068-0.284-0.102-0.388-0.102c-0.245,0-0.481,0.102-0.708,0.303
					c-0.228,0.199-0.4,0.513-0.52,0.936c-0.091,0.325-0.137,0.983-0.137,1.974v1.932h-0.75L134.496,65.248L134.496,65.248z"/>
				<path fill="#231F20" d="M140.708,65.1c0.88,0,1.608,0.319,2.188,0.955c0.524,0.582,0.788,1.27,0.788,2.063
					c0,0.797-0.277,1.494-0.833,2.091c-0.556,0.596-1.271,0.896-2.143,0.896c-0.877,0-1.592-0.299-2.146-0.896
					c-0.557-0.597-0.833-1.294-0.833-2.091c0-0.791,0.262-1.479,0.789-2.058C139.094,65.421,139.825,65.1,140.708,65.1z
					 M140.705,65.821c-0.611,0-1.136,0.226-1.574,0.677c-0.438,0.451-0.659,0.996-0.659,1.637c0,0.412,0.102,0.797,0.302,1.154
					c0.199,0.355,0.47,0.632,0.81,0.827c0.34,0.192,0.715,0.291,1.122,0.291s0.781-0.1,1.122-0.291
					c0.341-0.194,0.611-0.472,0.812-0.827c0.199-0.356,0.301-0.742,0.301-1.154c0-0.641-0.222-1.186-0.661-1.637
					C141.836,66.046,141.313,65.821,140.705,65.821z"/>
				<path fill="#231F20" d="M144.427,65.248h0.777l1.962,4.396l1.905-4.396h0.781l-3.405,7.797h-0.776l1.1-2.521L144.427,65.248z"/>
				<path fill="#231F20" d="M155.609,69.062l0.619,0.324c-0.203,0.399-0.438,0.721-0.704,0.967c-0.267,0.243-0.566,0.432-0.898,0.559
					c-0.333,0.128-0.709,0.191-1.129,0.191c-0.931,0-1.66-0.306-2.185-0.916c-0.526-0.61-0.788-1.301-0.788-2.068
					c0-0.725,0.222-1.37,0.667-1.938c0.563-0.719,1.316-1.081,2.263-1.081c0.974,0,1.75,0.37,2.331,1.108
					c0.413,0.521,0.624,1.172,0.63,1.952h-5.137c0.014,0.663,0.226,1.206,0.635,1.63c0.41,0.425,0.916,0.636,1.52,0.636
					c0.289,0,0.573-0.05,0.849-0.15c0.273-0.103,0.508-0.234,0.701-0.401C155.176,69.705,155.385,69.436,155.609,69.062z
					 M155.609,67.524c-0.099-0.393-0.241-0.704-0.43-0.938c-0.187-0.235-0.435-0.423-0.742-0.566
					c-0.309-0.144-0.633-0.216-0.973-0.216c-0.56,0-1.042,0.181-1.444,0.54c-0.293,0.263-0.517,0.656-0.667,1.182h4.256V67.524
					L155.609,67.524z"/>
				<path fill="#231F20" d="M163.327,66.433l-0.583,0.362c-0.503-0.668-1.19-1.002-2.06-1.002c-0.694,0-1.272,0.224-1.732,0.671
					c-0.459,0.448-0.689,0.99-0.689,1.629c0,0.416,0.106,0.808,0.317,1.174c0.212,0.367,0.501,0.651,0.87,0.854
					c0.368,0.202,0.782,0.304,1.239,0.304c0.838,0,1.522-0.334,2.054-1.002l0.583,0.382c-0.273,0.411-0.64,0.73-1.099,0.957
					c-0.46,0.229-0.983,0.341-1.571,0.341c-0.902,0-1.651-0.287-2.246-0.86s-0.893-1.271-0.893-2.094c0-0.553,0.139-1.065,0.417-1.54
					c0.277-0.475,0.659-0.844,1.146-1.109c0.486-0.267,1.031-0.399,1.632-0.399c0.378,0,0.743,0.06,1.094,0.174
					c0.353,0.114,0.65,0.267,0.896,0.45C162.948,65.911,163.155,66.146,163.327,66.433z"/>
				<path fill="#231F20" d="M165.379,63.129h0.735v2.12h1.165v0.635h-1.165v5.073h-0.735v-5.073h-1.002v-0.635h1.002V63.129z"/>
				<path fill="#231F20" d="M171.082,65.1c0.88,0,1.609,0.319,2.188,0.955c0.524,0.582,0.787,1.27,0.787,2.063
					c0,0.797-0.276,1.494-0.832,2.091c-0.556,0.596-1.271,0.896-2.143,0.896c-0.876,0-1.591-0.299-2.146-0.896
					c-0.557-0.597-0.833-1.294-0.833-2.091c0-0.791,0.263-1.479,0.789-2.058C169.468,65.421,170.199,65.1,171.082,65.1z
					 M171.08,65.821c-0.611,0-1.136,0.226-1.574,0.677c-0.438,0.451-0.659,0.996-0.659,1.637c0,0.412,0.102,0.797,0.301,1.154
					c0.198,0.356,0.471,0.632,0.811,0.827c0.34,0.192,0.715,0.291,1.122,0.291s0.781-0.1,1.122-0.291
					c0.341-0.194,0.611-0.472,0.812-0.827c0.199-0.356,0.301-0.742,0.301-1.154c0-0.641-0.222-1.186-0.661-1.637
					C172.21,66.046,171.687,65.821,171.08,65.821z"/>
			</g>
			<g>
				<path fill="#231F20" d="M107.885,46.552c0.099,0.234,0.322,0.376,0.563,0.376c0.069,0,0.138-0.011,0.205-0.035l8.656-3.064
					l0.245,0.592c0.098,0.231,0.323,0.376,0.563,0.376c0.06,0,0.121-0.008,0.18-0.026l8.825-2.727l0.347,0.838
					c0.098,0.232,0.323,0.376,0.563,0.376c0.059,0,0.119-0.008,0.177-0.025l14.349-4.367c0.163-0.053,0.299-0.167,0.373-0.324
					c0.073-0.154,0.078-0.333,0.013-0.493l-5.977-14.409c-0.065-0.158-0.195-0.281-0.357-0.34c-0.162-0.056-0.34-0.044-0.492,0.037
					l-13.228,7.069c-0.276,0.146-0.396,0.479-0.275,0.771l0.348,0.837l-8.164,4.319c-0.277,0.146-0.396,0.48-0.277,0.771l0.244,0.592
					l-8.284,3.96c-0.292,0.141-0.427,0.483-0.302,0.783L107.885,46.552z M136.097,24.723l5.462,13.166L128.381,41.9l-0.347-0.838
					l-0.001-0.001l-3.734-9.006h-0.001l-0.348-0.839L136.097,24.723z M123.429,33.14l3.223,7.77l-8.186,2.528l-0.253-0.61v-0.001
					l-2.102-5.066v-0.001l-0.254-0.612L123.429,33.14z M115.232,38.821l0.805,1.938l0.804,1.939l-8.051,2.852l-1.264-3.046
					L115.232,38.821z"/>
				<path fill="#231F20" d="M105.13,46.271c0.099,0.234,0.324,0.377,0.563,0.377c0.077,0,0.156-0.016,0.231-0.048
					c0.312-0.129,0.458-0.483,0.329-0.796l-0.7-1.688c-0.128-0.313-0.483-0.458-0.796-0.329c-0.31,0.129-0.458,0.484-0.329,0.797
					L105.13,46.271z"/>
				<path fill="#231F20" d="M144.58,38.813c0.098,0.234,0.324,0.376,0.563,0.376c0.078,0,0.157-0.015,0.233-0.045
					c0.312-0.13,0.458-0.484,0.329-0.798l-7.001-16.881c-0.129-0.313-0.484-0.458-0.796-0.33c-0.31,0.13-0.458,0.485-0.329,0.797
					L144.58,38.813z"/>
				<path fill="#231F20" d="M123.92,57.642c0.338,0,0.54-0.271,0.54-0.606v-7.616h1.786l8.046,8.046
					c0.119,0.118,0.274,0.178,0.431,0.178c0.155,0,0.313-0.06,0.431-0.178c0.238-0.238,0.238-0.625,0-0.86l-7.882-7.884v-0.429
					c0-1.396-1.125-2.528-2.51-2.528h-0.303V44.85c0-0.337-0.202-0.607-0.54-0.607c-0.335,0-0.607,0.271-0.607,0.607v0.914h-0.233
					c-1.383,0-2.508,1.134-2.508,2.528v0.5l-7.813,7.813c-0.236,0.236-0.236,0.624,0,0.86c0.119,0.118,0.274,0.178,0.433,0.178
					c0.154,0,0.311-0.06,0.43-0.178l8.046-8.046h1.646v7.616C123.311,57.37,123.584,57.642,123.92,57.642 M123.077,46.979h1.685
					c0.682,0,1.241,0.539,1.288,1.219h-4.258C121.838,47.52,122.398,46.979,123.077,46.979"/>
			</g>
		</g>
		<g>
			<g>
				<path fill="#231F20" d="M89.802,144.102l-0.599,0.565c-0.43-0.423-0.901-0.744-1.414-0.962s-1.013-0.328-1.499-0.328
					c-0.604,0-1.182,0.148-1.729,0.446c-0.548,0.297-0.973,0.7-1.272,1.209c-0.301,0.509-0.45,1.047-0.45,1.612
					c0,0.581,0.155,1.133,0.468,1.656c0.312,0.522,0.741,0.934,1.292,1.232c0.55,0.299,1.149,0.447,1.805,0.447
					c0.793,0,1.465-0.224,2.015-0.671s0.875-1.028,0.978-1.742h-2.46v-0.745h3.326c-0.008,1.192-0.36,2.142-1.063,2.842
					c-0.702,0.701-1.64,1.053-2.814,1.053c-1.428,0-2.558-0.486-3.39-1.459c-0.641-0.747-0.96-1.614-0.96-2.598
					c0-0.73,0.185-1.412,0.551-2.041c0.368-0.63,0.871-1.122,1.513-1.478c0.64-0.354,1.362-0.533,2.173-0.533
					c0.653,0,1.269,0.118,1.847,0.354C88.691,143.202,89.253,143.581,89.802,144.102z"/>
				<path fill="#231F20" d="M91.329,144.815h0.75v0.834c0.225-0.327,0.46-0.573,0.708-0.737c0.249-0.162,0.507-0.244,0.777-0.244
					c0.203,0,0.42,0.064,0.65,0.194l-0.384,0.618c-0.152-0.065-0.282-0.1-0.388-0.1c-0.245,0-0.481,0.101-0.708,0.302
					c-0.228,0.201-0.4,0.515-0.521,0.938c-0.092,0.325-0.138,0.982-0.138,1.973v1.932h-0.75v-5.709H91.329z"/>
				<path fill="#231F20" d="M94.744,144.815h0.735v2.665c0,0.651,0.034,1.099,0.104,1.344c0.105,0.351,0.307,0.626,0.604,0.83
					c0.295,0.202,0.647,0.304,1.059,0.304s0.758-0.1,1.043-0.296c0.286-0.196,0.482-0.457,0.591-0.777
					c0.074-0.221,0.111-0.688,0.111-1.401v-2.666h0.75v2.803c0,0.787-0.092,1.38-0.274,1.778c-0.185,0.398-0.459,0.711-0.829,0.937
					c-0.368,0.226-0.832,0.34-1.389,0.34s-1.021-0.113-1.393-0.34c-0.373-0.227-0.65-0.541-0.834-0.944
					c-0.187-0.403-0.276-1.013-0.276-1.823L94.744,144.815L94.744,144.815z"/>
				<path fill="#231F20" d="M101.383,144.815h0.734v1.051c0.29-0.398,0.624-0.698,1-0.897c0.377-0.199,0.798-0.3,1.265-0.3
					c0.812,0,1.504,0.293,2.08,0.877c0.577,0.584,0.865,1.287,0.865,2.109c0,0.839-0.286,1.553-0.856,2.138
					c-0.57,0.588-1.261,0.88-2.067,0.88c-0.455,0-0.872-0.095-1.252-0.284c-0.381-0.188-0.727-0.472-1.032-0.846v3.069h-0.734
					L101.383,144.815L101.383,144.815z M104.32,145.378c-0.636,0-1.17,0.222-1.604,0.664c-0.436,0.442-0.65,0.996-0.65,1.657
					c0,0.435,0.096,0.822,0.29,1.168c0.193,0.348,0.472,0.622,0.833,0.823c0.361,0.203,0.742,0.305,1.144,0.305
					c0.396,0,0.766-0.104,1.112-0.308c0.346-0.204,0.625-0.49,0.83-0.856c0.206-0.366,0.309-0.752,0.309-1.152
					c0-0.406-0.102-0.79-0.306-1.153c-0.204-0.362-0.479-0.645-0.824-0.846C105.106,145.479,104.73,145.378,104.32,145.378z"/>
				<path fill="#231F20" d="M111.403,144.668c0.879,0,1.607,0.319,2.188,0.955c0.524,0.581,0.788,1.269,0.788,2.063
					c0,0.798-0.276,1.495-0.833,2.091c-0.556,0.597-1.27,0.896-2.142,0.896c-0.876,0-1.592-0.299-2.146-0.896
					c-0.557-0.596-0.833-1.293-0.833-2.091c0-0.79,0.263-1.477,0.787-2.056C109.79,144.99,110.522,144.668,111.403,144.668z
					 M111.401,145.388c-0.611,0-1.135,0.227-1.574,0.677c-0.438,0.451-0.658,0.997-0.658,1.638c0,0.413,0.102,0.798,0.302,1.154
					c0.198,0.356,0.471,0.633,0.811,0.826s0.715,0.291,1.122,0.291s0.781-0.099,1.122-0.291c0.34-0.192,0.61-0.47,0.811-0.826
					c0.199-0.356,0.301-0.741,0.301-1.154c0-0.641-0.222-1.187-0.66-1.638C112.533,145.613,112.009,145.388,111.401,145.388z"/>
				<path fill="#231F20" d="M122.51,142.613c1.169,0,2.146,0.391,2.936,1.169c0.788,0.78,1.181,1.74,1.181,2.881
					c0,1.13-0.393,2.088-1.179,2.875c-0.786,0.786-1.744,1.181-2.874,1.181c-1.146,0-2.11-0.393-2.897-1.176
					c-0.788-0.782-1.183-1.73-1.183-2.844c0-0.741,0.18-1.43,0.539-2.063c0.357-0.633,0.848-1.129,1.467-1.488
					C121.118,142.79,121.788,142.613,122.51,142.613z M122.543,143.362c-0.57,0-1.11,0.148-1.623,0.446
					c-0.512,0.297-0.911,0.698-1.198,1.203c-0.287,0.503-0.433,1.064-0.433,1.687c0,0.917,0.318,1.691,0.954,2.323
					c0.636,0.633,1.403,0.948,2.3,0.948c0.601,0,1.153-0.146,1.663-0.437c0.512-0.291,0.908-0.688,1.193-1.191
					s0.428-1.065,0.428-1.682c0-0.611-0.144-1.167-0.428-1.662c-0.286-0.494-0.688-0.892-1.206-1.188
					C123.675,143.513,123.125,143.362,122.543,143.362z"/>
				<path fill="#231F20" d="M128.1,150.524v-7.911h0.732v3.186c0.31-0.38,0.652-0.661,1.033-0.849
					c0.38-0.188,0.799-0.281,1.253-0.281c0.808,0,1.497,0.293,2.068,0.879c0.57,0.587,0.855,1.297,0.855,2.133
					c0,0.826-0.289,1.53-0.865,2.116c-0.576,0.584-1.271,0.876-2.081,0.876c-0.464,0-0.887-0.101-1.264-0.3
					c-0.377-0.197-0.711-0.499-1.002-0.896v1.049L128.1,150.524L128.1,150.524z M131.038,149.963c0.409,0,0.786-0.103,1.13-0.303
					c0.348-0.2,0.621-0.482,0.825-0.848c0.204-0.362,0.307-0.748,0.307-1.153s-0.104-0.792-0.311-1.16
					c-0.206-0.367-0.481-0.652-0.829-0.857c-0.347-0.204-0.717-0.308-1.111-0.308c-0.401,0-0.782,0.104-1.145,0.308
					c-0.361,0.205-0.639,0.479-0.833,0.827c-0.194,0.347-0.29,0.735-0.29,1.17c0,0.661,0.217,1.213,0.652,1.659
					C129.868,149.742,130.402,149.963,131.038,149.963z"/>
				<path fill="#231F20" d="M135.294,144.815h0.745v6.569c0,0.479-0.087,0.828-0.259,1.046c-0.173,0.219-0.41,0.328-0.711,0.328
					c-0.249,0-0.528-0.061-0.84-0.179v-0.66c0.195,0.102,0.373,0.151,0.529,0.151c0.198,0,0.349-0.083,0.445-0.247
					c0.062-0.105,0.089-0.324,0.089-0.656L135.294,144.815L135.294,144.815z M135.655,142.466c0.168,0,0.312,0.059,0.428,0.179
					c0.117,0.118,0.176,0.262,0.176,0.431c0,0.165-0.059,0.307-0.176,0.425s-0.259,0.179-0.428,0.179
					c-0.167,0-0.311-0.061-0.427-0.179c-0.117-0.118-0.177-0.261-0.177-0.425c0-0.167,0.061-0.313,0.177-0.431
					C135.345,142.524,135.487,142.466,135.655,142.466z"/>
				<path fill="#231F20" d="M142.371,148.631l0.619,0.324c-0.203,0.397-0.438,0.722-0.704,0.966s-0.564,0.431-0.897,0.56
					c-0.333,0.127-0.709,0.191-1.129,0.191c-0.932,0-1.659-0.306-2.187-0.916c-0.524-0.611-0.788-1.301-0.788-2.071
					c0-0.725,0.223-1.369,0.667-1.936c0.563-0.721,1.317-1.081,2.264-1.081c0.974,0,1.75,0.369,2.33,1.106
					c0.413,0.522,0.624,1.173,0.631,1.953h-5.138c0.015,0.662,0.228,1.206,0.637,1.629c0.409,0.425,0.916,0.638,1.519,0.638
					c0.291,0,0.574-0.052,0.849-0.151c0.274-0.102,0.51-0.234,0.702-0.402C141.939,149.273,142.149,149.003,142.371,148.631z
					 M142.371,147.094c-0.098-0.393-0.241-0.705-0.428-0.938c-0.188-0.233-0.437-0.424-0.743-0.565
					c-0.309-0.144-0.632-0.216-0.972-0.216c-0.563,0-1.042,0.181-1.445,0.541c-0.294,0.263-0.517,0.654-0.668,1.181L142.371,147.094
					L142.371,147.094z"/>
				<path fill="#231F20" d="M145.191,142.696h0.733v2.119h1.165v0.635h-1.165v5.073h-0.733v-5.073h-1.003v-0.635h1.003V142.696z"/>
				<path fill="#231F20" d="M148.445,142.466c0.167,0,0.31,0.059,0.429,0.179c0.118,0.118,0.178,0.262,0.178,0.431
					c0,0.165-0.06,0.307-0.178,0.425c-0.119,0.118-0.262,0.179-0.429,0.179c-0.164,0-0.307-0.061-0.424-0.179
					s-0.179-0.261-0.179-0.425c0-0.167,0.062-0.313,0.179-0.431C148.141,142.524,148.281,142.466,148.445,142.466z M148.08,144.815
					h0.734v5.709h-0.734V144.815z"/>
				<path fill="#231F20" d="M149.801,144.815h0.781l1.917,4.162l1.895-4.162h0.786l-2.611,5.709h-0.139L149.801,144.815z"/>
				<path fill="#231F20" d="M158.999,144.668c0.879,0,1.607,0.319,2.188,0.955c0.523,0.581,0.789,1.269,0.789,2.063
					c0,0.798-0.277,1.495-0.833,2.091c-0.557,0.597-1.271,0.896-2.144,0.896c-0.876,0-1.592-0.299-2.146-0.896
					c-0.556-0.596-0.833-1.293-0.833-2.091c0-0.79,0.263-1.477,0.789-2.056C157.385,144.99,158.116,144.668,158.999,144.668z
					 M158.996,145.388c-0.61,0-1.136,0.227-1.574,0.677c-0.438,0.451-0.657,0.997-0.657,1.638c0,0.413,0.102,0.798,0.301,1.154
					c0.198,0.356,0.471,0.633,0.812,0.826s0.715,0.291,1.122,0.291c0.408,0,0.781-0.099,1.122-0.291s0.61-0.47,0.813-0.826
					c0.197-0.356,0.3-0.741,0.3-1.154c0-0.641-0.222-1.187-0.66-1.638C160.128,145.613,159.604,145.388,158.996,145.388z"/>
			</g>
			<g>
				<g>
					<path fill="none" stroke="#231F20" stroke-width="2.1585" stroke-miterlimit="10" d="M128.276,133.364
						c0.68-2.541,3.393-3.187,4.851-3.533c0.318-0.074,0.593-0.141,0.729-0.199c1.056-0.459,1.706-1.157,1.938-2.078
						c-0.852-0.784-1.566-1.898-2.028-3.168c-0.673-0.746-1.057-1.562-1.057-2.241c0-0.471,0.183-0.844,0.54-1.111
						c0.207-3.156,2.511-5.619,5.31-5.636c0-0.002,0.052-0.001,0.084,0.002c2.85,0.042,5.146,2.571,5.283,5.785
						c0.246,0.252,0.368,0.574,0.368,0.96c0,0.577-0.274,1.253-0.779,1.908c-0.473,1.466-1.296,2.773-2.282,3.625
						c0.231,0.918,0.884,1.613,1.937,2.071c0.142,0.062,0.429,0.123,0.763,0.196 M143.928,129.946
						c1.447,0.313,4.143,0.896,4.817,3.419"/>
				</g>
				<g>
					<path fill="none" stroke="#231F20" stroke-width="2.1585" stroke-miterlimit="10" d="M111.731,136.899
						c0.68-2.541,3.395-3.186,4.853-3.531c0.316-0.076,0.592-0.141,0.729-0.2c1.056-0.459,1.708-1.157,1.938-2.078
						c-0.852-0.784-1.566-1.9-2.029-3.168c-0.672-0.746-1.057-1.562-1.057-2.24c0-0.473,0.184-0.843,0.541-1.11
						c0.206-3.157,2.513-5.619,5.309-5.636c0-0.002,0.053-0.001,0.084,0c2.852,0.042,5.146,2.572,5.285,5.786
						c0.244,0.252,0.368,0.574,0.368,0.96c0,0.578-0.274,1.253-0.778,1.909c-0.474,1.466-1.298,2.771-2.283,3.624
						c0.231,0.917,0.883,1.613,1.938,2.071c0.142,0.062,0.429,0.124,0.763,0.195 M127.385,133.48
						c1.446,0.313,4.142,0.898,4.816,3.419"/>
				</g>
				<g>
					<path fill="none" stroke="#231F20" stroke-width="2.1585" stroke-miterlimit="10" d="M95.187,133.364
						c0.68-2.541,3.395-3.187,4.853-3.533c0.316-0.074,0.59-0.141,0.729-0.199c1.055-0.459,1.708-1.157,1.938-2.078
						c-0.851-0.784-1.566-1.898-2.028-3.168c-0.672-0.746-1.056-1.562-1.056-2.241c0-0.471,0.182-0.844,0.541-1.111
						c0.205-3.156,2.51-5.619,5.309-5.636c-0.001-0.002,0.052-0.001,0.084,0.002c2.85,0.042,5.145,2.571,5.282,5.785
						c0.245,0.252,0.369,0.574,0.369,0.96c0,0.577-0.275,1.253-0.779,1.908c-0.473,1.466-1.299,2.773-2.282,3.625
						c0.231,0.918,0.883,1.613,1.937,2.071c0.141,0.062,0.429,0.123,0.763,0.196 M110.841,129.946
						c1.446,0.313,4.143,0.896,4.816,3.419"/>
				</g>
				<g>
					<path fill="none" stroke="#231F20" stroke-width="2.1585" stroke-miterlimit="10" d="M121.967,118.933
						c0.681-2.541,3.396-3.187,4.854-3.533c0.317-0.074,0.591-0.14,0.727-0.198c1.058-0.458,1.707-1.157,1.939-2.079
						c-0.854-0.782-1.568-1.899-2.03-3.168c-0.672-0.746-1.054-1.561-1.054-2.238c0-0.472,0.181-0.845,0.54-1.111
						c0.207-3.155,2.51-5.619,5.307-5.635c0,0,0.053-0.001,0.085,0.001c2.851,0.041,5.146,2.57,5.285,5.784
						c0.245,0.253,0.369,0.575,0.369,0.96c0,0.576-0.276,1.253-0.78,1.907c-0.472,1.467-1.298,2.772-2.283,3.625
						c0.233,0.918,0.885,1.615,1.938,2.072c0.14,0.062,0.428,0.123,0.763,0.195"/>
				</g>
				<g>
					<path fill="none" stroke="#231F20" stroke-width="2.1585" stroke-miterlimit="10" d="M106.347,115.399
						c0.316-0.074,0.592-0.14,0.728-0.198c1.058-0.458,1.707-1.157,1.938-2.079c-0.852-0.782-1.567-1.899-2.029-3.168
						c-0.67-0.746-1.056-1.561-1.056-2.238c0-0.472,0.184-0.845,0.541-1.111c0.206-3.155,2.513-5.619,5.307-5.635
						c0,0,0.053-0.001,0.086,0.001c2.849,0.041,5.146,2.57,5.285,5.784c0.244,0.253,0.369,0.575,0.369,0.96
						c0,0.576-0.277,1.253-0.779,1.906c-0.475,1.467-1.298,2.773-2.284,3.625c0.233,0.918,0.883,1.614,1.938,2.072
						c0.139,0.062,0.427,0.123,0.761,0.195 M117.15,115.515c1.447,0.313,4.142,0.896,4.816,3.419"/>
				</g>
			</g>
		</g>
		<g>
			<g>
				<path fill="#231F20" d="M819.265,140.809h1.537c0.881,0,1.477,0.039,1.782,0.115c0.439,0.108,0.802,0.332,1.082,0.67
					c0.277,0.337,0.418,0.762,0.418,1.271c0,0.516-0.139,0.938-0.409,1.272c-0.271,0.334-0.648,0.56-1.127,0.674
					c-0.351,0.084-1.007,0.125-1.964,0.125h-0.551v3.59h-0.771L819.265,140.809L819.265,140.809z M820.036,141.565v2.618l1.306,0.016
					c0.528,0,0.916-0.049,1.161-0.146c0.244-0.096,0.438-0.25,0.576-0.465c0.14-0.217,0.209-0.456,0.209-0.722
					c0-0.259-0.069-0.494-0.209-0.709c-0.141-0.215-0.323-0.367-0.557-0.458c-0.229-0.092-0.604-0.137-1.125-0.137L820.036,141.565
					L820.036,141.565z"/>
				<path fill="#231F20" d="M825.23,142.818h0.75v0.836c0.225-0.329,0.461-0.575,0.709-0.738c0.248-0.162,0.508-0.243,0.775-0.243
					c0.2,0,0.418,0.065,0.649,0.193l-0.383,0.619c-0.154-0.066-0.283-0.1-0.389-0.1c-0.246,0-0.479,0.102-0.709,0.302
					s-0.4,0.514-0.521,0.938c-0.092,0.325-0.139,0.982-0.139,1.973v1.933h-0.752v-5.71h0.006v-0.002H825.23z"/>
				<path fill="#231F20" d="M831.441,142.671c0.881,0,1.609,0.318,2.188,0.955c0.525,0.581,0.789,1.27,0.789,2.063
					c0,0.799-0.276,1.495-0.832,2.092c-0.559,0.596-1.27,0.896-2.145,0.896s-1.594-0.298-2.146-0.896
					c-0.555-0.598-0.834-1.295-0.834-2.092c0-0.791,0.265-1.476,0.789-2.057C829.829,142.992,830.56,142.671,831.441,142.671z
					 M831.441,143.392c-0.611,0-1.139,0.227-1.576,0.676c-0.438,0.451-0.658,0.997-0.658,1.638c0,0.413,0.101,0.798,0.304,1.154
					c0.198,0.357,0.469,0.633,0.811,0.827c0.34,0.195,0.715,0.291,1.123,0.291c0.404,0,0.779-0.097,1.119-0.291
					c0.342-0.193,0.61-0.47,0.813-0.827c0.199-0.354,0.3-0.741,0.3-1.154c0-0.641-0.222-1.187-0.658-1.638
					C832.569,143.617,832.049,143.392,831.441,143.392z"/>
				<path fill="#231F20" d="M835.163,142.818h0.775l1.963,4.396l1.902-4.396h0.782l-3.405,7.799h-0.773l1.101-2.521L835.163,142.818z
					"/>
				<path fill="#231F20" d="M846.344,146.634l0.619,0.324c-0.203,0.397-0.438,0.721-0.703,0.966
					c-0.267,0.244-0.564,0.432-0.896,0.559c-0.334,0.128-0.709,0.192-1.129,0.192c-0.934,0-1.66-0.306-2.188-0.916
					c-0.525-0.611-0.787-1.302-0.787-2.07c0-0.724,0.225-1.37,0.668-1.937c0.563-0.72,1.315-1.08,2.264-1.08
					c0.975,0,1.752,0.369,2.332,1.107c0.41,0.521,0.625,1.172,0.631,1.951h-5.139c0.016,0.663,0.227,1.208,0.637,1.632
					c0.408,0.424,0.916,0.636,1.521,0.636c0.288,0,0.571-0.05,0.848-0.151c0.275-0.102,0.51-0.233,0.701-0.403
					C845.911,147.275,846.12,147.007,846.344,146.634z M846.344,145.097c-0.099-0.393-0.238-0.706-0.429-0.938
					c-0.188-0.233-0.436-0.425-0.741-0.566c-0.312-0.144-0.634-0.216-0.974-0.216c-0.563,0-1.043,0.181-1.444,0.54
					c-0.296,0.263-0.517,0.656-0.669,1.182L846.344,145.097L846.344,145.097z"/>
				<path fill="#231F20" d="M854.062,144.005l-0.582,0.362c-0.504-0.669-1.189-1.003-2.061-1.003c-0.695,0-1.273,0.225-1.73,0.671
					c-0.461,0.446-0.689,0.989-0.689,1.63c0,0.416,0.105,0.808,0.316,1.174s0.502,0.651,0.867,0.854
					c0.369,0.202,0.783,0.305,1.24,0.305c0.838,0,1.521-0.334,2.055-1.002l0.584,0.385c-0.273,0.41-0.644,0.729-1.103,0.955
					c-0.459,0.228-0.979,0.342-1.569,0.342c-0.898,0-1.65-0.287-2.242-0.861c-0.598-0.573-0.896-1.271-0.896-2.094
					c0-0.553,0.14-1.065,0.418-1.54c0.277-0.475,0.66-0.843,1.146-1.108c0.484-0.268,1.029-0.399,1.633-0.399
					c0.377,0,0.742,0.059,1.094,0.174c0.353,0.115,0.65,0.267,0.896,0.451C853.683,143.482,853.89,143.718,854.062,144.005z"/>
				<path fill="#231F20" d="M856.112,140.7h0.734v2.118h1.164v0.636h-1.164v5.074h-0.734v-5.074h-1.002v-0.636h1.002V140.7z"/>
				<path fill="#231F20" d="M861.818,142.671c0.879,0,1.607,0.318,2.186,0.955c0.525,0.581,0.787,1.27,0.787,2.063
					c0,0.799-0.274,1.495-0.832,2.092c-0.557,0.596-1.271,0.896-2.143,0.896c-0.877,0-1.594-0.298-2.146-0.896
					c-0.557-0.597-0.834-1.295-0.834-2.092c0-0.791,0.263-1.476,0.789-2.057C860.204,142.992,860.933,142.671,861.818,142.671z
					 M861.814,143.392c-0.611,0-1.139,0.227-1.574,0.676c-0.438,0.451-0.658,0.997-0.658,1.638c0,0.413,0.103,0.798,0.302,1.154
					c0.2,0.357,0.471,0.633,0.813,0.827s0.715,0.291,1.121,0.291c0.404,0,0.777-0.097,1.119-0.291
					c0.344-0.193,0.613-0.47,0.813-0.827c0.199-0.354,0.3-0.741,0.3-1.154c0-0.641-0.222-1.187-0.662-1.638
					C862.944,143.618,862.422,143.392,861.814,143.392z"/>
			</g>
			<path fill="none" stroke="#231F20" stroke-width="2.1585" stroke-miterlimit="10" d="M860.105,101.578
				c0,3.813-0.609,7.017-1.83,9.761c-1.063,2.595-2.898,5.338-5.646,7.933c-1.219,1.221-2.592,2.591-4.268,3.967l-0.459,8.538
				c0,0.152-0.152,0.302-0.459,0.455l-8.537,5.036c0,0.153-0.156,0.153-0.311,0.153c-0.15,0-0.304-0.153-0.457-0.31l-1.523-1.369
				c-0.151-0.151-0.307-0.46-0.151-0.765l1.832-6.104l-6.253-6.249l-6.104,1.827h-0.152c-0.303,0-0.455,0-0.606-0.148l-1.377-1.376
				c-0.302-0.303-0.302-0.611-0.148-0.914l5.031-8.54c0.154-0.307,0.307-0.307,0.609-0.458l8.389-0.306
				c1.522-1.831,2.744-3.204,3.969-4.422c2.742-2.748,5.49-4.729,7.93-5.794c2.593-1.066,5.795-1.527,9.761-1.527
				c0.151,0,0.307,0,0.461,0.151C859.954,101.271,860.105,101.429,860.105,101.578 M854.462,109.66
				c0.31-0.459,0.607-0.917,0.607-1.524c0-0.611-0.301-1.22-0.607-1.523c-0.456-0.458-0.916-0.612-1.522-0.612
				c-0.605,0-1.221,0.152-1.523,0.612c-0.457,0.305-0.61,0.912-0.61,1.523c0,0.607,0.153,1.065,0.61,1.524
				c0.306,0.307,0.918,0.61,1.523,0.61C853.547,110.271,854.006,109.966,854.462,109.66z"/>
		</g>
		<g>
			<g>
				<path fill="#231F20" d="M552.261,140.809h1.537c0.881,0,1.479,0.039,1.782,0.115c0.439,0.108,0.802,0.332,1.08,0.67
					c0.279,0.337,0.42,0.76,0.42,1.271c0,0.515-0.139,0.938-0.409,1.271c-0.271,0.334-0.648,0.56-1.13,0.674
					c-0.35,0.084-1.004,0.125-1.961,0.125h-0.551v3.589h-0.771v-7.718h0.002V140.809z M553.032,141.565v2.619l1.305,0.016
					c0.529,0,0.916-0.049,1.162-0.145c0.244-0.097,0.438-0.251,0.576-0.466c0.139-0.216,0.209-0.455,0.209-0.721
					c0-0.26-0.07-0.495-0.209-0.709c-0.141-0.215-0.324-0.367-0.555-0.458c-0.23-0.092-0.605-0.138-1.125-0.138L553.032,141.565
					L553.032,141.565z"/>
				<path fill="#231F20" d="M558.226,142.818h0.75v0.834c0.227-0.328,0.461-0.573,0.709-0.737c0.248-0.162,0.508-0.243,0.776-0.243
					c0.201,0,0.421,0.063,0.65,0.193l-0.383,0.619c-0.154-0.066-0.283-0.1-0.389-0.1c-0.246,0-0.48,0.101-0.709,0.301
					c-0.229,0.2-0.4,0.515-0.521,0.938c-0.092,0.325-0.139,0.982-0.139,1.974v1.932h-0.752L558.226,142.818L558.226,142.818z"/>
				<path fill="#231F20" d="M564.437,142.672c0.881,0,1.606,0.318,2.188,0.954c0.529,0.581,0.789,1.269,0.789,2.063
					c0,0.797-0.276,1.495-0.832,2.092c-0.557,0.596-1.271,0.896-2.145,0.896c-0.875,0-1.592-0.298-2.146-0.896
					c-0.557-0.597-0.834-1.294-0.834-2.092c0-0.791,0.263-1.477,0.789-2.057C562.827,142.992,563.556,142.672,564.437,142.672z
					 M564.437,143.392c-0.611,0-1.137,0.227-1.574,0.677c-0.438,0.451-0.658,0.996-0.658,1.638c0,0.412,0.103,0.797,0.304,1.153
					c0.198,0.357,0.469,0.633,0.811,0.827s0.715,0.291,1.121,0.291s0.779-0.097,1.119-0.291c0.342-0.193,0.61-0.47,0.813-0.827
					c0.201-0.354,0.304-0.741,0.304-1.153c0-0.642-0.224-1.187-0.662-1.638C565.566,143.618,565.044,143.392,564.437,143.392z"/>
				<path fill="#231F20" d="M568.784,142.818h0.732v1.05c0.289-0.397,0.625-0.697,1.002-0.896c0.379-0.199,0.799-0.299,1.266-0.299
					c0.812,0,1.504,0.292,2.08,0.876s0.863,1.287,0.863,2.109c0,0.839-0.285,1.551-0.855,2.139c-0.569,0.585-1.26,0.878-2.067,0.878
					c-0.453,0-0.871-0.096-1.252-0.284s-0.726-0.471-1.031-0.845v3.068h-0.732L568.784,142.818L568.784,142.818z M571.72,143.381
					c-0.636,0-1.17,0.223-1.604,0.666c-0.436,0.442-0.651,0.994-0.651,1.655c0,0.435,0.1,0.822,0.291,1.169
					c0.194,0.347,0.473,0.62,0.834,0.821c0.36,0.203,0.741,0.305,1.143,0.305c0.396,0,0.768-0.103,1.113-0.307
					c0.348-0.203,0.623-0.489,0.83-0.856c0.205-0.366,0.309-0.75,0.309-1.153c0-0.405-0.104-0.789-0.307-1.151
					c-0.203-0.363-0.479-0.646-0.824-0.847C572.506,143.482,572.131,143.381,571.72,143.381z"/>
				<path fill="#231F20" d="M576.008,142.818h0.735v2.665c0,0.65,0.033,1.1,0.104,1.345c0.104,0.351,0.307,0.625,0.604,0.829
					c0.295,0.202,0.646,0.304,1.06,0.304c0.409,0,0.756-0.099,1.043-0.295c0.285-0.197,0.481-0.458,0.594-0.778
					c0.07-0.221,0.107-0.688,0.107-1.4v-2.666h0.75v2.802c0,0.787-0.095,1.38-0.275,1.778c-0.185,0.399-0.461,0.712-0.828,0.938
					c-0.371,0.227-0.832,0.339-1.389,0.339c-0.558,0-1.021-0.113-1.394-0.339c-0.371-0.227-0.651-0.54-0.836-0.943
					c-0.186-0.404-0.274-1.012-0.274-1.823L576.008,142.818L576.008,142.818z"/>
				<path fill="#231F20" d="M587.441,146.634l0.617,0.324c-0.199,0.398-0.437,0.721-0.701,0.967
					c-0.268,0.243-0.564,0.431-0.896,0.558c-0.334,0.13-0.711,0.192-1.131,0.192c-0.932,0-1.658-0.306-2.186-0.916
					c-0.525-0.611-0.789-1.301-0.789-2.07c0-0.724,0.225-1.37,0.67-1.938c0.563-0.72,1.316-1.08,2.262-1.08
					c0.976,0,1.752,0.369,2.332,1.106c0.414,0.521,0.625,1.173,0.633,1.951h-5.137c0.012,0.664,0.225,1.207,0.635,1.631
					c0.408,0.425,0.916,0.636,1.519,0.636c0.291,0,0.572-0.049,0.85-0.15c0.273-0.103,0.508-0.235,0.701-0.403
					C587.008,147.275,587.217,147.007,587.441,146.634z M587.441,145.097c-0.098-0.393-0.24-0.706-0.43-0.938
					c-0.188-0.233-0.435-0.424-0.742-0.566c-0.31-0.144-0.633-0.215-0.974-0.215c-0.561,0-1.041,0.181-1.442,0.539
					c-0.295,0.264-0.519,0.656-0.668,1.182L587.441,145.097L587.441,145.097z"/>
				<path fill="#231F20" d="M592.487,143.443l-0.473,0.487c-0.396-0.381-0.775-0.57-1.15-0.57c-0.238,0-0.443,0.078-0.613,0.235
					c-0.17,0.156-0.254,0.341-0.254,0.551c0,0.187,0.068,0.363,0.211,0.53c0.14,0.171,0.435,0.373,0.884,0.604
					c0.547,0.282,0.918,0.558,1.112,0.817c0.193,0.267,0.289,0.563,0.289,0.896c0,0.47-0.164,0.867-0.492,1.19
					c-0.33,0.325-0.744,0.488-1.235,0.488c-0.328,0-0.644-0.072-0.941-0.216c-0.301-0.145-0.547-0.341-0.744-0.595l0.463-0.523
					c0.375,0.423,0.771,0.635,1.193,0.635c0.293,0,0.545-0.095,0.752-0.284c0.205-0.188,0.311-0.411,0.311-0.667
					c0-0.209-0.065-0.396-0.205-0.562c-0.137-0.161-0.442-0.364-0.926-0.609c-0.516-0.266-0.865-0.527-1.053-0.787
					c-0.186-0.259-0.277-0.555-0.277-0.886c0-0.436,0.148-0.794,0.443-1.081c0.295-0.288,0.672-0.432,1.119-0.432
					C591.427,142.672,591.956,142.93,592.487,143.443z"/>
				<path fill="#231F20" d="M594.429,140.7h0.735v2.12h1.164v0.635h-1.164v5.073h-0.735v-5.073h-1v-0.635h1V140.7z"/>
				<path fill="#231F20" d="M603.118,142.818v5.709h-0.725v-0.979c-0.31,0.374-0.652,0.655-1.035,0.845
					c-0.385,0.188-0.803,0.284-1.258,0.284c-0.81,0-1.496-0.293-2.068-0.878c-0.572-0.588-0.856-1.299-0.856-2.139
					c0-0.821,0.287-1.525,0.864-2.109c0.576-0.583,1.271-0.876,2.082-0.876c0.472,0,0.896,0.1,1.271,0.299
					c0.379,0.198,0.715,0.499,1,0.896v-1.049h0.725V142.818z M600.183,143.381c-0.408,0-0.783,0.101-1.133,0.302
					c-0.347,0.2-0.621,0.482-0.824,0.847c-0.203,0.363-0.308,0.746-0.308,1.152c0,0.402,0.104,0.787,0.312,1.152
					c0.205,0.367,0.479,0.653,0.832,0.856c0.348,0.205,0.719,0.307,1.115,0.307c0.401,0,0.782-0.103,1.145-0.305
					c0.359-0.202,0.639-0.476,0.832-0.821c0.193-0.348,0.291-0.735,0.291-1.169c0-0.661-0.221-1.212-0.652-1.654
					C601.355,143.603,600.819,143.381,600.183,143.381z"/>
				<path fill="#231F20" d="M613.444,140.616v7.911h-0.725v-0.979c-0.31,0.374-0.654,0.655-1.037,0.845
					c-0.381,0.188-0.803,0.284-1.256,0.284c-0.81,0-1.5-0.293-2.07-0.878c-0.57-0.588-0.857-1.299-0.857-2.139
					c0-0.821,0.289-1.525,0.867-2.109c0.578-0.583,1.271-0.876,2.082-0.876c0.472,0,0.896,0.1,1.271,0.299
					c0.379,0.198,0.713,0.499,1,0.896v-3.252h0.725V140.616z M610.511,143.381c-0.412,0-0.787,0.101-1.136,0.302
					c-0.346,0.2-0.62,0.482-0.825,0.847c-0.201,0.363-0.308,0.746-0.308,1.152c0,0.402,0.105,0.787,0.312,1.152
					c0.205,0.367,0.481,0.653,0.832,0.856c0.35,0.205,0.721,0.307,1.116,0.307c0.402,0,0.781-0.103,1.146-0.305
					c0.359-0.202,0.637-0.476,0.83-0.821c0.192-0.347,0.291-0.735,0.291-1.169c0-0.661-0.217-1.212-0.652-1.654
					C611.681,143.603,611.146,143.381,610.511,143.381z"/>
				<path fill="#231F20" d="M619.915,146.634l0.621,0.324c-0.205,0.398-0.44,0.721-0.703,0.967c-0.27,0.243-0.565,0.431-0.899,0.558
					c-0.332,0.13-0.709,0.192-1.129,0.192c-0.933,0-1.658-0.306-2.185-0.916c-0.524-0.611-0.787-1.301-0.787-2.07
					c0-0.724,0.224-1.37,0.666-1.938c0.563-0.72,1.316-1.08,2.265-1.08c0.975,0,1.75,0.369,2.332,1.106
					c0.411,0.521,0.622,1.173,0.629,1.951h-5.138c0.015,0.664,0.228,1.207,0.638,1.631c0.409,0.425,0.914,0.636,1.52,0.636
					c0.291,0,0.572-0.049,0.85-0.15c0.273-0.103,0.509-0.235,0.701-0.403C619.482,147.275,619.689,147.007,619.915,146.634z
					 M619.915,145.097c-0.1-0.393-0.241-0.706-0.428-0.938c-0.188-0.233-0.438-0.424-0.744-0.566
					c-0.311-0.144-0.633-0.215-0.973-0.215c-0.563,0-1.043,0.181-1.445,0.539c-0.293,0.264-0.518,0.656-0.666,1.182L619.915,145.097
					L619.915,145.097z"/>
				<path fill="#231F20" d="M624.599,140.809h0.842l2.559,5.963l2.601-5.963h0.84l-3.355,7.719h-0.17L624.599,140.809z"/>
				<path fill="#231F20" d="M638.301,142.818v5.709h-0.728v-0.979c-0.307,0.374-0.649,0.655-1.035,0.845
					c-0.381,0.188-0.803,0.284-1.256,0.284c-0.809,0-1.5-0.293-2.069-0.878c-0.572-0.588-0.855-1.299-0.855-2.139
					c0-0.821,0.287-1.525,0.863-2.109c0.576-0.583,1.271-0.876,2.086-0.876c0.469,0,0.893,0.1,1.271,0.299
					c0.379,0.198,0.713,0.499,0.996,0.896v-1.049h0.728V142.818L638.301,142.818z M635.364,143.381c-0.41,0-0.787,0.101-1.133,0.302
					c-0.348,0.2-0.621,0.482-0.826,0.847c-0.203,0.363-0.307,0.746-0.307,1.152c0,0.402,0.104,0.787,0.311,1.152
					c0.207,0.366,0.482,0.653,0.83,0.856c0.351,0.205,0.721,0.307,1.119,0.307c0.4,0,0.781-0.103,1.143-0.305
					s0.638-0.476,0.832-0.821c0.191-0.348,0.289-0.735,0.289-1.169c0-0.661-0.217-1.212-0.653-1.654
					C636.534,143.603,635.999,143.381,635.364,143.381z"/>
				<path fill="#231F20" d="M639.844,140.616h0.731v7.911h-0.731V140.616z"/>
				<path fill="#231F20" d="M644.806,142.672c0.879,0,1.606,0.318,2.188,0.954c0.523,0.581,0.789,1.269,0.789,2.063
					c0,0.797-0.276,1.495-0.834,2.092c-0.557,0.596-1.271,0.896-2.143,0.896c-0.877,0-1.592-0.298-2.146-0.896
					c-0.557-0.598-0.834-1.294-0.834-2.092c0-0.791,0.263-1.477,0.789-2.057C643.191,142.992,643.924,142.672,644.806,142.672z
					 M644.802,143.392c-0.609,0-1.138,0.227-1.572,0.677c-0.438,0.451-0.658,0.996-0.658,1.638c0,0.412,0.102,0.797,0.301,1.153
					c0.199,0.357,0.474,0.633,0.812,0.827c0.342,0.194,0.715,0.291,1.121,0.291c0.405,0,0.78-0.097,1.123-0.291
					c0.34-0.193,0.608-0.47,0.811-0.827c0.199-0.354,0.301-0.741,0.301-1.153c0-0.642-0.221-1.187-0.66-1.638
					C645.933,143.618,645.409,143.392,644.802,143.392z"/>
				<path fill="#231F20" d="M648.862,142.818h0.75v0.834c0.225-0.328,0.459-0.573,0.709-0.737c0.246-0.162,0.506-0.243,0.773-0.243
					c0.202,0,0.42,0.063,0.651,0.193l-0.383,0.619c-0.154-0.066-0.283-0.1-0.391-0.1c-0.244,0-0.479,0.101-0.707,0.301
					c-0.229,0.2-0.398,0.515-0.521,0.938c-0.092,0.325-0.139,0.982-0.139,1.974v1.932h-0.75L648.862,142.818L648.862,142.818z"/>
			</g>
			<path fill="none" stroke="#231F20" stroke-width="2.1585" stroke-miterlimit="10" d="M604.969,102.399
				c0.457-0.61,1.063-1.067,1.83-1.372c0.764-0.153,1.37,0,2.137,0.305l2.438,1.525c0.765,0.306,1.068,0.915,1.375,1.678
				c0.148,0.763,0,1.524-0.307,2.136l-3.357,5.946h6.863c0.764,0,1.375,0.307,1.98,0.916c0.459,0.61,0.766,1.221,0.766,1.982v2.896
				c0,0.763-0.307,1.372-0.766,1.981c-0.605,0.609-1.22,0.764-1.98,0.764h-6.863l3.357,5.946c0.307,0.766,0.455,1.524,0.307,2.29
				c-0.307,0.762-0.61,1.372-1.375,1.675l-2.438,1.375c-0.766,0.456-1.373,0.608-2.137,0.306c-0.767-0.152-1.373-0.609-1.83-1.219
				l-3.355-5.949l-3.504,5.949c-0.307,0.608-0.918,1.065-1.68,1.219c-0.769,0.304-1.527,0.15-2.138-0.306l-2.594-1.375
				c-0.608-0.303-1.065-0.913-1.219-1.675c-0.308-0.766-0.152-1.524,0.301-2.29l3.359-5.946h-6.863c-0.766,0-1.373-0.152-1.981-0.764
				c-0.609-0.609-0.916-1.22-0.916-1.981v-2.896c0-0.765,0.307-1.373,0.916-1.982c0.608-0.609,1.219-0.916,1.981-0.916h6.863
				l-3.359-5.946c-0.453-0.61-0.604-1.373-0.301-2.136c0.149-0.763,0.606-1.372,1.219-1.678l2.594-1.525
				c0.607-0.304,1.369-0.458,2.138-0.304c0.762,0.304,1.373,0.761,1.68,1.371l3.504,5.947L604.969,102.399z"/>
		</g>
		<g>
			<g>
				<path fill="#231F20" d="M45.006,468.356h0.787v2.896l3.084-2.896h1.037l-3.708,3.463l3.995,4.256h-1.027l-3.382-3.596v3.596
					h-0.787L45.006,468.356L45.006,468.356z"/>
				<path fill="#231F20" d="M51.349,468.356h1.537c0.882,0,1.477,0.039,1.784,0.114c0.44,0.109,0.801,0.332,1.081,0.668
					c0.28,0.339,0.419,0.765,0.419,1.273c0,0.516-0.137,0.938-0.409,1.27c-0.272,0.334-0.648,0.563-1.128,0.679
					c-0.35,0.082-1.004,0.125-1.962,0.125h-0.551v3.59H51.35L51.349,468.356L51.349,468.356z M52.12,469.112v2.614l1.307,0.021
					c0.528,0,0.914-0.049,1.16-0.146c0.245-0.098,0.438-0.252,0.577-0.467c0.14-0.217,0.21-0.455,0.21-0.723
					c0-0.258-0.07-0.494-0.21-0.709c-0.139-0.215-0.324-0.367-0.553-0.457c-0.229-0.092-0.604-0.137-1.125-0.137H52.12V469.112z"/>
				<path fill="#231F20" d="M57.603,468.356h0.771v7.719h-0.771V468.356z"/>
				<path fill="#231F20" d="M61.575,467.69h1.128l-1.548,1.616H60.43L61.575,467.69z"/>
				<path fill="#231F20" d="M66.922,470.989l-0.472,0.488c-0.395-0.384-0.777-0.572-1.153-0.572c-0.237,0-0.442,0.08-0.612,0.233
					c-0.17,0.156-0.255,0.345-0.255,0.554c0,0.188,0.07,0.36,0.21,0.53c0.142,0.171,0.436,0.371,0.884,0.604
					c0.548,0.283,0.919,0.557,1.114,0.816c0.192,0.268,0.289,0.563,0.289,0.895c0,0.473-0.166,0.867-0.493,1.191
					c-0.329,0.325-0.741,0.487-1.234,0.487c-0.33,0-0.645-0.069-0.943-0.215c-0.3-0.143-0.547-0.34-0.744-0.594l0.463-0.525
					c0.375,0.425,0.771,0.638,1.193,0.638c0.294,0,0.545-0.097,0.752-0.285s0.312-0.41,0.312-0.666c0-0.209-0.069-0.396-0.206-0.562
					c-0.138-0.162-0.445-0.362-0.925-0.608c-0.516-0.267-0.866-0.527-1.053-0.787c-0.186-0.258-0.278-0.555-0.278-0.887
					c0-0.435,0.148-0.796,0.443-1.08c0.296-0.287,0.67-0.431,1.123-0.431C65.861,470.219,66.389,470.475,66.922,470.989z"/>
				<path fill="#231F20" d="M72.845,468.014h0.851c-0.343,0.703-0.617,1.523-0.823,2.461c-0.206,0.938-0.309,1.906-0.309,2.902
					c0,0.924,0.077,1.813,0.232,2.67c0.155,0.857,0.37,1.611,0.643,2.262h-0.808c-0.259-0.622-0.465-1.354-0.619-2.198
					c-0.153-0.843-0.23-1.72-0.23-2.633c0-0.984,0.091-1.941,0.272-2.873C72.235,469.672,72.5,468.809,72.845,468.014z"/>
				<path fill="#231F20" d="M75.175,468.356h0.772v7.719h-0.772V468.356z"/>
				<path fill="#231F20" d="M77.594,470.366h0.734v1.021c0.294-0.395,0.619-0.688,0.976-0.879c0.356-0.194,0.746-0.291,1.165-0.291
					c0.427,0,0.806,0.105,1.137,0.322c0.33,0.219,0.573,0.512,0.73,0.877c0.157,0.367,0.236,0.939,0.236,1.719v2.938h-0.734v-2.726
					c0-0.657-0.026-1.098-0.082-1.315c-0.084-0.377-0.248-0.66-0.488-0.854c-0.242-0.188-0.557-0.287-0.945-0.287
					c-0.444,0-0.842,0.146-1.194,0.441c-0.352,0.295-0.583,0.658-0.695,1.09c-0.07,0.285-0.105,0.803-0.105,1.555v2.097h-0.734
					L77.594,470.366L77.594,470.366z"/>
				<path fill="#231F20" d="M89.846,468.161v7.914h-0.725v-0.982c-0.308,0.375-0.653,0.656-1.036,0.847
					c-0.383,0.188-0.801,0.282-1.256,0.282c-0.808,0-1.499-0.293-2.07-0.879s-0.857-1.299-0.857-2.139
					c0-0.822,0.289-1.523,0.866-2.109c0.577-0.584,1.271-0.875,2.083-0.875c0.469,0,0.893,0.101,1.271,0.299
					c0.38,0.197,0.713,0.498,1,0.896v-3.254H89.846L89.846,468.161z M86.911,470.928c-0.409,0-0.786,0.101-1.131,0.302
					c-0.346,0.198-0.622,0.483-0.825,0.846c-0.205,0.363-0.306,0.748-0.306,1.154c0,0.401,0.103,0.784,0.309,1.149
					c0.206,0.369,0.483,0.654,0.831,0.859c0.348,0.203,0.721,0.305,1.119,0.305c0.401,0,0.783-0.102,1.142-0.303
					c0.359-0.203,0.638-0.479,0.83-0.822c0.195-0.348,0.292-0.736,0.292-1.17c0-0.66-0.218-1.213-0.652-1.656
					C88.081,471.149,87.547,470.928,86.911,470.928z"/>
				<path fill="#231F20" d="M91.763,468.014c0.167,0,0.311,0.062,0.429,0.181c0.119,0.119,0.177,0.262,0.177,0.43
					c0,0.166-0.059,0.309-0.177,0.428c-0.118,0.117-0.262,0.179-0.429,0.179c-0.163,0-0.305-0.062-0.423-0.179
					c-0.118-0.119-0.177-0.262-0.177-0.428c0-0.168,0.059-0.311,0.177-0.43S91.6,468.014,91.763,468.014z M91.399,470.366h0.733
					v5.709h-0.733V470.366z"/>
				<path fill="#231F20" d="M99.201,471.551l-0.582,0.361c-0.503-0.668-1.19-1.002-2.059-1.002c-0.696,0-1.272,0.225-1.732,0.672
					c-0.459,0.447-0.689,0.99-0.689,1.629c0,0.416,0.106,0.809,0.317,1.174c0.212,0.367,0.501,0.652,0.87,0.854
					c0.369,0.203,0.782,0.305,1.24,0.305c0.838,0,1.522-0.334,2.054-1.002l0.582,0.385c-0.272,0.41-0.639,0.729-1.099,0.955
					c-0.46,0.23-0.983,0.342-1.571,0.342c-0.902,0-1.651-0.287-2.246-0.858c-0.595-0.574-0.892-1.271-0.892-2.097
					c0-0.553,0.139-1.063,0.417-1.539c0.278-0.475,0.659-0.844,1.146-1.106c0.486-0.269,1.03-0.398,1.632-0.398
					c0.378,0,0.743,0.058,1.095,0.175c0.352,0.112,0.648,0.264,0.895,0.448C98.822,471.028,99.03,471.264,99.201,471.551z"/>
				<path fill="#231F20" d="M106.301,470.366v5.709h-0.724v-0.982c-0.308,0.375-0.653,0.656-1.037,0.847
					c-0.383,0.188-0.802,0.282-1.256,0.282c-0.808,0-1.499-0.293-2.071-0.879c-0.57-0.586-0.857-1.297-0.857-2.137
					c0-0.822,0.289-1.525,0.865-2.111c0.578-0.584,1.272-0.875,2.084-0.875c0.469,0,0.894,0.101,1.272,0.3
					c0.379,0.198,0.712,0.497,1,0.896v-1.049H106.301L106.301,470.366z M103.366,470.928c-0.409,0-0.787,0.101-1.132,0.302
					c-0.348,0.198-0.621,0.483-0.826,0.846c-0.204,0.363-0.307,0.748-0.307,1.154c0,0.401,0.104,0.784,0.31,1.149
					c0.206,0.369,0.483,0.654,0.831,0.859c0.348,0.203,0.72,0.305,1.119,0.305c0.401,0,0.782-0.102,1.142-0.303
					c0.36-0.203,0.636-0.479,0.831-0.822c0.194-0.348,0.291-0.736,0.291-1.17c0-0.66-0.217-1.213-0.653-1.656
					C104.537,471.149,104.001,470.928,103.366,470.928z"/>
				<path fill="#231F20" d="M113.652,468.161v7.914h-0.726v-0.982c-0.307,0.375-0.652,0.656-1.035,0.847
					c-0.384,0.188-0.803,0.282-1.257,0.282c-0.808,0-1.498-0.293-2.069-0.879c-0.572-0.586-0.858-1.299-0.858-2.139
					c0-0.822,0.289-1.523,0.866-2.109c0.577-0.584,1.271-0.875,2.083-0.875c0.47,0,0.893,0.101,1.271,0.299
					c0.381,0.197,0.712,0.498,1,0.896v-3.254H113.652L113.652,468.161z M110.716,470.928c-0.408,0-0.786,0.101-1.132,0.302
					c-0.346,0.198-0.621,0.483-0.825,0.846c-0.204,0.363-0.306,0.748-0.306,1.154c0,0.401,0.103,0.784,0.309,1.149
					c0.206,0.369,0.483,0.654,0.831,0.859c0.349,0.203,0.722,0.305,1.119,0.305c0.402,0,0.783-0.102,1.144-0.303
					c0.358-0.203,0.636-0.479,0.83-0.822c0.194-0.348,0.291-0.736,0.291-1.17c0-0.66-0.219-1.213-0.653-1.656
					C111.887,471.149,111.352,470.928,110.716,470.928z"/>
				<path fill="#231F20" d="M118.016,470.219c0.88,0,1.608,0.318,2.187,0.955c0.525,0.58,0.789,1.269,0.789,2.063
					c0,0.797-0.278,1.494-0.833,2.09c-0.556,0.596-1.27,0.896-2.142,0.896c-0.876,0-1.592-0.301-2.147-0.896
					c-0.555-0.596-0.833-1.293-0.833-2.09c0-0.791,0.262-1.479,0.788-2.058C116.403,470.538,117.134,470.219,118.016,470.219z
					 M118.014,470.938c-0.61,0-1.136,0.227-1.573,0.678c-0.438,0.449-0.659,0.996-0.659,1.635c0,0.414,0.101,0.801,0.3,1.154
					c0.2,0.356,0.471,0.633,0.812,0.828c0.34,0.192,0.715,0.291,1.122,0.291c0.406,0,0.78-0.099,1.121-0.291
					c0.342-0.195,0.611-0.472,0.813-0.828c0.199-0.354,0.3-0.74,0.3-1.154c0-0.639-0.221-1.186-0.661-1.635
					C119.146,471.165,118.622,470.938,118.014,470.938z"/>
				<path fill="#231F20" d="M122.074,470.366h0.75v0.834c0.224-0.328,0.46-0.574,0.708-0.736c0.249-0.162,0.507-0.244,0.777-0.244
					c0.203,0,0.42,0.064,0.65,0.193l-0.383,0.621c-0.153-0.066-0.283-0.104-0.387-0.104c-0.245,0-0.481,0.104-0.708,0.304
					c-0.229,0.2-0.4,0.516-0.521,0.938c-0.092,0.326-0.137,0.984-0.137,1.973v1.933h-0.75L122.074,470.366L122.074,470.366z"/>
				<path fill="#231F20" d="M130.389,474.18l0.619,0.326c-0.204,0.398-0.438,0.719-0.704,0.965c-0.266,0.244-0.564,0.433-0.897,0.56
					c-0.332,0.127-0.708,0.19-1.129,0.19c-0.932,0-1.66-0.305-2.186-0.916c-0.525-0.608-0.788-1.299-0.788-2.067
					c0-0.726,0.223-1.369,0.667-1.937c0.563-0.721,1.317-1.08,2.264-1.08c0.974,0,1.75,0.367,2.332,1.105
					c0.412,0.52,0.623,1.172,0.629,1.951h-5.137c0.014,0.664,0.226,1.207,0.636,1.631s0.916,0.637,1.519,0.637
					c0.29,0,0.574-0.051,0.85-0.151c0.273-0.101,0.508-0.234,0.701-0.4C129.957,474.825,130.165,474.553,130.389,474.18z
					 M130.389,472.643c-0.098-0.393-0.24-0.704-0.428-0.938c-0.187-0.232-0.436-0.422-0.743-0.564
					c-0.309-0.145-0.632-0.215-0.972-0.215c-0.561,0-1.042,0.181-1.445,0.539c-0.293,0.262-0.517,0.654-0.667,1.183h4.255V472.643z"
					/>
				<path fill="#231F20" d="M135.437,470.989l-0.474,0.488c-0.393-0.384-0.776-0.572-1.151-0.572c-0.238,0-0.443,0.08-0.613,0.233
					c-0.17,0.156-0.254,0.345-0.254,0.554c0,0.188,0.07,0.36,0.21,0.53c0.141,0.171,0.435,0.371,0.883,0.604
					c0.547,0.283,0.918,0.557,1.114,0.816c0.192,0.268,0.29,0.563,0.29,0.895c0,0.473-0.166,0.867-0.495,1.191
					c-0.329,0.325-0.741,0.487-1.234,0.487c-0.33,0-0.644-0.069-0.943-0.215c-0.3-0.143-0.548-0.34-0.744-0.594l0.462-0.525
					c0.375,0.425,0.772,0.638,1.193,0.638c0.296,0,0.546-0.097,0.753-0.285s0.31-0.41,0.31-0.666c0-0.209-0.068-0.396-0.205-0.562
					c-0.137-0.162-0.445-0.362-0.925-0.608c-0.516-0.267-0.866-0.527-1.051-0.787c-0.187-0.258-0.279-0.555-0.279-0.887
					c0-0.435,0.147-0.796,0.444-1.08c0.296-0.287,0.67-0.431,1.123-0.431C134.376,470.219,134.904,470.475,135.437,470.989z"/>
				<path fill="#231F20" d="M145.412,468.161v7.914h-0.724v-0.982c-0.309,0.375-0.653,0.656-1.036,0.847
					c-0.383,0.189-0.802,0.282-1.256,0.282c-0.81,0-1.498-0.293-2.071-0.879c-0.572-0.586-0.858-1.299-0.858-2.139
					c0-0.822,0.289-1.523,0.866-2.109c0.578-0.584,1.271-0.875,2.083-0.875c0.469,0,0.894,0.101,1.272,0.299
					c0.38,0.197,0.712,0.498,1,0.896v-3.254H145.412L145.412,468.161z M142.476,470.928c-0.409,0-0.787,0.101-1.133,0.302
					c-0.345,0.198-0.621,0.483-0.824,0.846c-0.203,0.363-0.307,0.748-0.307,1.154c0,0.401,0.104,0.784,0.31,1.149
					c0.207,0.369,0.482,0.654,0.832,0.859c0.348,0.203,0.72,0.305,1.118,0.305c0.402,0,0.783-0.102,1.143-0.303
					c0.36-0.203,0.636-0.479,0.831-0.822c0.193-0.348,0.291-0.736,0.291-1.17c0-0.66-0.218-1.213-0.652-1.656
					C143.651,471.149,143.112,470.928,142.476,470.928z"/>
				<path fill="#231F20" d="M151.881,474.18l0.619,0.326c-0.203,0.398-0.438,0.719-0.704,0.965c-0.266,0.244-0.565,0.433-0.897,0.56
					s-0.709,0.19-1.129,0.19c-0.932,0-1.66-0.305-2.186-0.916c-0.524-0.608-0.788-1.299-0.788-2.067c0-0.726,0.223-1.369,0.667-1.937
					c0.564-0.721,1.318-1.08,2.265-1.08c0.974,0,1.75,0.367,2.331,1.105c0.412,0.52,0.624,1.172,0.63,1.951h-5.137
					c0.015,0.664,0.227,1.207,0.636,1.631c0.41,0.424,0.916,0.637,1.519,0.637c0.29,0,0.573-0.051,0.848-0.151
					c0.275-0.101,0.51-0.234,0.702-0.4C151.449,474.825,151.657,474.553,151.881,474.18z M151.881,472.643
					c-0.098-0.393-0.24-0.704-0.428-0.938c-0.187-0.232-0.435-0.422-0.743-0.564c-0.309-0.145-0.632-0.215-0.972-0.215
					c-0.561,0-1.042,0.181-1.445,0.539c-0.293,0.262-0.516,0.654-0.667,1.183h4.255V472.643z"/>
				<path fill="#231F20" d="M156.928,470.989l-0.473,0.488c-0.393-0.384-0.777-0.572-1.152-0.572c-0.237,0-0.442,0.08-0.611,0.233
					c-0.17,0.156-0.255,0.345-0.255,0.554c0,0.188,0.069,0.36,0.21,0.53c0.141,0.171,0.435,0.371,0.883,0.604
					c0.548,0.283,0.919,0.557,1.115,0.816c0.192,0.268,0.29,0.563,0.29,0.895c0,0.473-0.166,0.867-0.494,1.191
					c-0.329,0.325-0.741,0.487-1.234,0.487c-0.33,0-0.644-0.069-0.943-0.215c-0.3-0.143-0.548-0.34-0.743-0.594l0.461-0.525
					c0.376,0.425,0.772,0.638,1.193,0.638c0.294,0,0.545-0.097,0.752-0.285s0.312-0.41,0.312-0.666c0-0.209-0.069-0.396-0.206-0.562
					c-0.137-0.162-0.445-0.362-0.925-0.608c-0.516-0.267-0.866-0.527-1.053-0.787c-0.186-0.258-0.277-0.555-0.277-0.887
					c0-0.435,0.147-0.796,0.442-1.08c0.297-0.287,0.67-0.431,1.123-0.431C155.867,470.219,156.395,470.475,156.928,470.989z"/>
				<path fill="#231F20" d="M163.036,474.18l0.619,0.326c-0.203,0.398-0.438,0.719-0.704,0.965c-0.267,0.244-0.566,0.433-0.898,0.56
					s-0.709,0.19-1.129,0.19c-0.932,0-1.66-0.305-2.185-0.916c-0.526-0.608-0.788-1.299-0.788-2.067c0-0.726,0.223-1.369,0.667-1.937
					c0.563-0.721,1.317-1.08,2.263-1.08c0.975,0,1.75,0.367,2.332,1.105c0.413,0.52,0.623,1.172,0.63,1.951h-5.137
					c0.014,0.664,0.227,1.207,0.636,1.631c0.41,0.424,0.916,0.637,1.52,0.637c0.29,0,0.574-0.051,0.848-0.151
					c0.275-0.101,0.508-0.234,0.702-0.4C162.603,474.825,162.812,474.553,163.036,474.18z M163.036,472.643
					c-0.098-0.393-0.241-0.704-0.428-0.938c-0.188-0.232-0.437-0.422-0.743-0.564c-0.308-0.145-0.632-0.215-0.972-0.215
					c-0.561,0-1.042,0.181-1.445,0.539c-0.293,0.262-0.518,0.654-0.667,1.183h4.255V472.643z"/>
				<path fill="#231F20" d="M165.208,470.366h0.734v0.983c0.256-0.36,0.518-0.629,0.788-0.797c0.372-0.227,0.762-0.336,1.172-0.336
					c0.275,0,0.539,0.054,0.788,0.16c0.248,0.109,0.451,0.256,0.607,0.438c0.158,0.18,0.294,0.438,0.41,0.771
					c0.244-0.447,0.549-0.787,0.916-1.02c0.366-0.232,0.761-0.351,1.183-0.351c0.396,0,0.742,0.103,1.045,0.297
					c0.302,0.199,0.525,0.479,0.672,0.836c0.146,0.355,0.22,0.894,0.22,1.605v3.115h-0.75v-3.115c0-0.613-0.044-1.033-0.13-1.264
					c-0.087-0.23-0.235-0.412-0.447-0.554c-0.211-0.141-0.463-0.211-0.756-0.211c-0.355,0-0.681,0.105-0.976,0.314
					s-0.511,0.49-0.646,0.838c-0.136,0.352-0.203,0.938-0.203,1.754v2.234H169.1v-2.923c0-0.688-0.042-1.155-0.129-1.403
					c-0.086-0.246-0.235-0.441-0.448-0.592c-0.213-0.151-0.468-0.228-0.761-0.228c-0.339,0-0.657,0.105-0.952,0.31
					c-0.296,0.204-0.515,0.479-0.656,0.825c-0.142,0.349-0.212,0.877-0.212,1.593v2.418h-0.734v-5.709l0,0V470.366L165.208,470.366z"
					/>
				<path fill="#231F20" d="M175.303,470.366h0.734v1.049c0.289-0.398,0.623-0.697,1.001-0.896c0.377-0.198,0.798-0.299,1.264-0.299
					c0.811,0,1.505,0.291,2.081,0.875c0.576,0.586,0.865,1.289,0.865,2.111c0,0.838-0.285,1.551-0.856,2.137
					s-1.262,0.879-2.068,0.879c-0.455,0-0.872-0.094-1.252-0.282c-0.381-0.189-0.728-0.472-1.032-0.847v3.07h-0.733L175.303,470.366
					L175.303,470.366z M178.241,470.928c-0.636,0-1.17,0.224-1.604,0.664c-0.436,0.443-0.651,0.996-0.651,1.658
					c0,0.434,0.098,0.822,0.291,1.168c0.192,0.346,0.472,0.621,0.832,0.822c0.361,0.203,0.743,0.305,1.145,0.305
					c0.396,0,0.766-0.104,1.111-0.307c0.348-0.205,0.624-0.49,0.829-0.857c0.206-0.367,0.31-0.75,0.31-1.151
					c0-0.406-0.103-0.789-0.307-1.152s-0.479-0.646-0.823-0.848C179.028,471.028,178.65,470.928,178.241,470.928z"/>
				<path fill="#231F20" d="M187.428,474.18l0.619,0.326c-0.203,0.398-0.438,0.719-0.704,0.965c-0.268,0.244-0.565,0.433-0.897,0.56
					s-0.709,0.19-1.129,0.19c-0.933,0-1.66-0.305-2.186-0.916c-0.525-0.608-0.788-1.299-0.788-2.067c0-0.726,0.223-1.369,0.667-1.937
					c0.563-0.721,1.317-1.08,2.264-1.08c0.974,0,1.75,0.367,2.332,1.105c0.413,0.52,0.623,1.172,0.63,1.951h-5.137
					c0.014,0.664,0.226,1.207,0.636,1.631s0.916,0.637,1.519,0.637c0.291,0,0.573-0.051,0.85-0.151
					c0.273-0.101,0.508-0.234,0.701-0.4C186.996,474.825,187.205,474.553,187.428,474.18z M187.428,472.643
					c-0.098-0.393-0.24-0.704-0.428-0.938c-0.188-0.232-0.436-0.422-0.743-0.564c-0.31-0.145-0.632-0.215-0.973-0.215
					c-0.561,0-1.042,0.181-1.444,0.539c-0.294,0.262-0.518,0.654-0.667,1.183h4.255V472.643z"/>
				<path fill="#231F20" d="M189.606,470.366h0.734v1.021c0.293-0.395,0.618-0.688,0.976-0.879c0.355-0.194,0.746-0.291,1.165-0.291
					c0.426,0,0.805,0.105,1.136,0.322c0.33,0.219,0.574,0.512,0.73,0.877c0.157,0.367,0.236,0.939,0.236,1.719v2.938h-0.733v-2.726
					c0-0.657-0.027-1.098-0.082-1.315c-0.085-0.377-0.249-0.66-0.49-0.854c-0.242-0.188-0.558-0.287-0.943-0.287
					c-0.445,0-0.844,0.146-1.193,0.441c-0.353,0.295-0.583,0.658-0.696,1.09c-0.069,0.285-0.104,0.803-0.104,1.555v2.097h-0.733
					L189.606,470.366L189.606,470.366L189.606,470.366z M193.625,468.241l0.366,0.51c-0.251,0.184-0.463,0.307-0.637,0.371
					c-0.174,0.063-0.355,0.096-0.549,0.096c-0.252,0-0.511-0.063-0.776-0.194c-0.228-0.111-0.373-0.177-0.437-0.193
					c-0.084-0.023-0.176-0.037-0.272-0.037c-0.122,0-0.238,0.021-0.35,0.064c-0.109,0.045-0.271,0.145-0.479,0.297l-0.346-0.535
					c0.317-0.342,0.711-0.514,1.181-0.514c0.225,0,0.491,0.071,0.803,0.215c0.298,0.141,0.531,0.211,0.703,0.211
					C193.026,468.53,193.289,468.432,193.625,468.241z"/>
				<path fill="#231F20" d="M198.861,470.219c0.88,0,1.608,0.318,2.188,0.955c0.524,0.58,0.789,1.269,0.789,2.063
					c0,0.797-0.277,1.494-0.833,2.09s-1.27,0.896-2.143,0.896c-0.876,0-1.591-0.301-2.146-0.896c-0.555-0.595-0.833-1.293-0.833-2.09
					c0-0.791,0.263-1.479,0.788-2.058C197.248,470.538,197.979,470.219,198.861,470.219z M198.86,470.938
					c-0.61,0-1.136,0.227-1.574,0.678c-0.438,0.449-0.658,0.996-0.658,1.635c0,0.414,0.102,0.801,0.3,1.154
					c0.2,0.356,0.472,0.633,0.812,0.828c0.34,0.192,0.715,0.291,1.122,0.291s0.781-0.099,1.122-0.291
					c0.341-0.195,0.61-0.472,0.813-0.828c0.198-0.354,0.3-0.74,0.3-1.154c0-0.639-0.221-1.186-0.66-1.635
					C199.99,471.165,199.467,470.938,198.86,470.938z"/>
				<path fill="#231F20" d="M203.878,478.309h-0.851c0.347-0.702,0.622-1.522,0.826-2.459c0.205-0.938,0.307-1.903,0.307-2.901
					c0-0.924-0.076-1.813-0.232-2.672c-0.155-0.855-0.369-1.609-0.644-2.263h0.809c0.263,0.625,0.471,1.357,0.622,2.201
					c0.151,0.847,0.229,1.726,0.229,2.637c0,0.98-0.091,1.937-0.271,2.869C204.488,476.653,204.224,477.516,203.878,478.309z"/>
			</g>
			<g>
				<path fill="#231F20" d="M110.51,431.747c-0.27,0-0.489,0.223-0.489,0.49v16.65c0,0.813,0.658,1.473,1.47,1.473h27.429
					c0.812,0,1.471-0.658,1.471-1.473v-16.65c0-0.271-0.22-0.49-0.489-0.49c-0.271,0-0.49,0.225-0.49,0.49v16.652
					c0,0.271-0.22,0.489-0.49,0.489h-27.429c-0.271,0-0.489-0.221-0.489-0.489v-16.652C111.001,431.97,110.78,431.747,110.51,431.747
					z"/>
				<path fill="#231F20" d="M141.858,428.81h-33.308c-0.27,0-0.489,0.221-0.489,0.489s0.22,0.488,0.489,0.488h33.308
					c0.27,0,0.489-0.22,0.489-0.488S142.128,428.81,141.858,428.81z"/>
				<path fill="#231F20" d="M121.633,436.79c-0.179-0.18-0.465-0.193-0.66-0.029l-5.878,4.898c-0.207,0.172-0.233,0.479-0.061,0.688
					c0.174,0.207,0.48,0.234,0.69,0.063l5.534-4.61l5.561,5.563c0.096,0.096,0.221,0.143,0.346,0.143s0.251-0.047,0.347-0.143
					l7.001-7.003v3.718c0,0.271,0.221,0.489,0.49,0.489c0.271,0,0.489-0.221,0.489-0.489v-4.897c0-0.063-0.013-0.127-0.037-0.188
					c-0.049-0.119-0.144-0.216-0.265-0.267c-0.062-0.022-0.125-0.037-0.188-0.037h-4.897c-0.271,0-0.491,0.222-0.491,0.49
					c0,0.268,0.221,0.489,0.491,0.489h3.716l-6.655,6.653L121.633,436.79z"/>
				<path fill="#231F20" d="M117.913,459.896c0.126,0.239,0.421,0.329,0.662,0.207l6.63-3.476l6.629,3.476
					c0.074,0.038,0.152,0.055,0.229,0.055c0.176,0,0.346-0.096,0.435-0.262c0.124-0.24,0.032-0.535-0.207-0.662l-6.754-3.535
					c0.096-0.09,0.158-0.215,0.158-0.354v-2.529c0-0.271-0.22-0.488-0.49-0.488c-0.27,0-0.49,0.219-0.49,0.488v2.527
					c0,0.145,0.062,0.271,0.158,0.354l-6.753,3.537C117.881,459.358,117.788,459.655,117.913,459.896z"/>
			</g>
		</g>
		<g>
			<g>
				<path fill="#231F20" d="M589.118,309.873v-7.719h1.603c1.153,0,1.991,0.094,2.514,0.276c0.746,0.262,1.332,0.719,1.754,1.361
					c0.422,0.648,0.631,1.42,0.631,2.316c0,0.772-0.166,1.453-0.5,2.041s-0.77,1.021-1.301,1.301
					c-0.531,0.279-1.281,0.418-2.244,0.418h-2.453v0.004L589.118,309.873L589.118,309.873z M589.859,309.147h0.893
					c1.066,0,1.81-0.068,2.222-0.199c0.58-0.189,1.037-0.529,1.367-1.021c0.334-0.488,0.502-1.09,0.502-1.801
					c0-0.744-0.183-1.381-0.541-1.908c-0.359-0.523-0.861-0.889-1.509-1.084c-0.479-0.145-1.276-0.221-2.389-0.221h-0.545V309.147
					L589.859,309.147z"/>
				<path fill="#231F20" d="M599.694,304.021c0.883,0,1.607,0.317,2.188,0.955c0.526,0.58,0.791,1.268,0.791,2.061
					c0,0.799-0.279,1.496-0.836,2.092c-0.556,0.598-1.271,0.896-2.144,0.896c-0.875,0-1.592-0.299-2.146-0.896
					c-0.558-0.596-0.834-1.295-0.834-2.092c0-0.789,0.262-1.477,0.789-2.055C598.083,304.34,598.814,304.021,599.694,304.021z
					 M599.693,304.739c-0.609,0-1.137,0.225-1.574,0.676c-0.438,0.451-0.656,0.998-0.656,1.637c0,0.414,0.101,0.801,0.302,1.154
					c0.198,0.357,0.471,0.633,0.811,0.826c0.342,0.195,0.717,0.291,1.121,0.291c0.406,0,0.781-0.096,1.121-0.291
					c0.342-0.193,0.609-0.469,0.813-0.826c0.199-0.354,0.302-0.74,0.302-1.154c0-0.639-0.222-1.186-0.662-1.637
					C600.827,304.963,600.302,304.739,599.693,304.739z"/>
				<path fill="#231F20" d="M603.922,301.963h0.733v7.91h-0.733V301.963z"/>
				<path fill="#231F20" d="M608.885,304.021c0.881,0,1.606,0.317,2.188,0.955c0.525,0.58,0.789,1.268,0.789,2.061
					c0,0.799-0.277,1.496-0.834,2.092c-0.557,0.598-1.27,0.896-2.143,0.896c-0.875,0-1.593-0.299-2.146-0.896
					c-0.557-0.596-0.834-1.295-0.834-2.092c0-0.789,0.264-1.477,0.789-2.055C607.271,304.34,608.001,304.021,608.885,304.021z
					 M608.883,304.739c-0.611,0-1.138,0.225-1.576,0.676s-0.656,0.998-0.656,1.637c0,0.414,0.102,0.801,0.301,1.154
					c0.201,0.357,0.474,0.633,0.813,0.826c0.34,0.195,0.713,0.291,1.121,0.291c0.405,0,0.78-0.096,1.12-0.291
					c0.341-0.193,0.609-0.469,0.813-0.826c0.199-0.354,0.301-0.74,0.301-1.154c0-0.639-0.223-1.186-0.66-1.637
					C610.013,304.963,609.487,304.739,608.883,304.739z"/>
				<path fill="#231F20" d="M612.939,304.165h0.752v0.834c0.225-0.326,0.459-0.572,0.707-0.734c0.248-0.164,0.508-0.244,0.777-0.244
					c0.202,0,0.42,0.063,0.649,0.193l-0.383,0.619c-0.154-0.066-0.283-0.104-0.391-0.104c-0.242,0-0.48,0.104-0.707,0.305
					c-0.229,0.201-0.4,0.514-0.521,0.938c-0.09,0.326-0.135,0.982-0.135,1.973v1.933h-0.752v-5.711L612.939,304.165L612.939,304.165z
					"/>
			</g>
			<g>
				<path fill="#231F20" d="M602.003,260.816c-9.631,0-17.467,7.836-17.467,17.468c0,9.631,7.838,17.465,17.467,17.465
					c9.632,0,17.466-7.834,17.466-17.465S611.635,260.816,602.003,260.816z M602.003,294.586c-8.987,0-16.301-7.313-16.301-16.305
					s7.313-16.305,16.301-16.305c8.988,0,16.302,7.313,16.302,16.305S610.991,294.586,602.003,294.586z"/>
				<path fill="#231F20" d="M602.179,282.448c-3.037,0-5.965,1.285-8.031,3.525c-0.219,0.231-0.203,0.604,0.033,0.817
					c0.233,0.222,0.604,0.205,0.824-0.031c1.844-2,4.461-3.147,7.174-3.147c2.756,0,5.397,1.178,7.252,3.232
					c0.112,0.125,0.271,0.188,0.434,0.188c0.139,0,0.275-0.05,0.392-0.148c0.235-0.215,0.258-0.584,0.041-0.823
					C608.222,283.767,605.263,282.448,602.179,282.448z"/>
				<path fill="#231F20" d="M596.013,278.829c1.203,0,2.178-0.979,2.178-2.183c0-1.198-0.977-2.178-2.178-2.178
					s-2.181,0.979-2.181,2.178C593.831,277.85,594.81,278.829,596.013,278.829z M596.013,275.559c0.602,0,1.088,0.49,1.088,1.09
					c0,0.603-0.486,1.093-1.088,1.093c-0.603,0-1.09-0.49-1.09-1.093C594.924,276.049,595.411,275.559,596.013,275.559z"/>
				<path fill="#231F20" d="M607.995,278.829c1.199,0,2.179-0.979,2.179-2.183c0-1.198-0.979-2.178-2.179-2.178
					c-1.203,0-2.184,0.979-2.184,2.178C605.814,277.85,606.792,278.829,607.995,278.829z M607.995,275.559
					c0.599,0,1.088,0.49,1.088,1.09c0,0.603-0.489,1.093-1.088,1.093c-0.604,0-1.09-0.49-1.09-1.093
					C606.905,276.049,607.392,275.559,607.995,275.559z"/>
			</g>
		</g>
		<g>
			<g>
				<path fill="#231F20" d="M328.51,150.023v-7.719h0.167l5.137,5.917v-5.917h0.76v7.719h-0.172l-5.095-5.845v5.845H328.51z"/>
				<path fill="#231F20" d="M341.14,148.13l0.619,0.323c-0.203,0.399-0.438,0.721-0.704,0.967c-0.268,0.243-0.565,0.431-0.898,0.558
					c-0.332,0.129-0.709,0.192-1.129,0.192c-0.931,0-1.659-0.306-2.185-0.916c-0.526-0.611-0.787-1.301-0.787-2.07
					c0-0.726,0.222-1.37,0.666-1.938c0.563-0.721,1.316-1.081,2.264-1.081c0.973,0,1.75,0.37,2.332,1.107
					c0.413,0.521,0.623,1.172,0.628,1.951h-5.137c0.015,0.664,0.227,1.207,0.636,1.63c0.411,0.426,0.916,0.637,1.518,0.637
					c0.291,0,0.574-0.051,0.851-0.15c0.274-0.102,0.509-0.235,0.701-0.403C340.706,148.771,340.915,148.503,341.14,148.13z
					 M341.14,146.593c-0.102-0.393-0.242-0.705-0.43-0.938c-0.188-0.233-0.438-0.424-0.743-0.565
					c-0.311-0.144-0.634-0.215-0.974-0.215c-0.561,0-1.042,0.181-1.442,0.539c-0.294,0.263-0.519,0.656-0.668,1.182L341.14,146.593
					L341.14,146.593z"/>
				<path fill="#231F20" d="M348.858,145.5l-0.583,0.362c-0.503-0.67-1.189-1.004-2.059-1.004c-0.695,0-1.272,0.226-1.732,0.672
					c-0.459,0.447-0.688,0.989-0.688,1.63c0,0.416,0.104,0.809,0.314,1.174c0.211,0.367,0.502,0.65,0.87,0.854
					s0.782,0.305,1.239,0.305c0.838,0,1.521-0.334,2.055-1.001l0.582,0.383c-0.272,0.411-0.639,0.729-1.099,0.956
					c-0.459,0.228-0.983,0.341-1.571,0.341c-0.901,0-1.65-0.287-2.245-0.861c-0.595-0.572-0.892-1.271-0.892-2.093
					c0-0.554,0.138-1.066,0.416-1.54c0.276-0.474,0.659-0.844,1.146-1.11c0.486-0.266,1.03-0.398,1.63-0.398
					c0.379,0,0.743,0.058,1.096,0.174c0.353,0.114,0.648,0.266,0.896,0.45C348.479,144.979,348.686,145.215,348.858,145.5z"/>
				<path fill="#231F20" d="M355.075,148.13l0.62,0.323c-0.203,0.399-0.438,0.721-0.704,0.967c-0.266,0.243-0.563,0.431-0.896,0.558
					c-0.332,0.129-0.708,0.192-1.128,0.192c-0.935,0-1.66-0.306-2.188-0.916c-0.521-0.611-0.788-1.301-0.788-2.07
					c0-0.726,0.226-1.37,0.667-1.938c0.563-0.721,1.318-1.081,2.267-1.081c0.973,0,1.75,0.37,2.329,1.107
					c0.413,0.521,0.625,1.172,0.632,1.951h-5.138c0.016,0.664,0.228,1.207,0.637,1.63c0.408,0.426,0.917,0.637,1.519,0.637
					c0.29,0,0.573-0.051,0.849-0.15c0.275-0.103,0.511-0.235,0.701-0.403C354.644,148.769,354.851,148.503,355.075,148.13z
					 M355.075,146.593c-0.098-0.393-0.24-0.705-0.428-0.938c-0.188-0.233-0.437-0.424-0.743-0.565
					c-0.308-0.144-0.632-0.215-0.972-0.215c-0.562,0-1.042,0.181-1.445,0.539c-0.294,0.263-0.516,0.656-0.667,1.182L355.075,146.593
					L355.075,146.593z"/>
				<path fill="#231F20" d="M360.123,144.939l-0.473,0.487c-0.394-0.381-0.776-0.571-1.152-0.571c-0.236,0-0.44,0.078-0.61,0.235
					c-0.17,0.156-0.257,0.341-0.257,0.551c0,0.187,0.069,0.362,0.212,0.53c0.14,0.172,0.435,0.373,0.882,0.604
					c0.548,0.284,0.919,0.558,1.115,0.818c0.19,0.266,0.287,0.563,0.287,0.897c0,0.468-0.165,0.865-0.493,1.19
					c-0.329,0.325-0.741,0.488-1.234,0.488c-0.329,0-0.646-0.072-0.942-0.215c-0.3-0.146-0.549-0.341-0.744-0.596l0.461-0.522
					c0.377,0.423,0.772,0.634,1.193,0.634c0.295,0,0.546-0.096,0.752-0.283s0.313-0.412,0.313-0.667c0-0.21-0.068-0.396-0.205-0.563
					c-0.137-0.161-0.445-0.363-0.926-0.607c-0.518-0.268-0.866-0.527-1.053-0.787c-0.187-0.259-0.276-0.555-0.276-0.887
					c0-0.435,0.146-0.794,0.441-1.081c0.296-0.286,0.67-0.431,1.122-0.431C359.062,144.167,359.592,144.425,360.123,144.939z"/>
				<path fill="#231F20" d="M361.679,141.965c0.168,0,0.31,0.061,0.428,0.179c0.119,0.119,0.179,0.263,0.179,0.431
					c0,0.166-0.06,0.307-0.179,0.425c-0.118,0.12-0.26,0.179-0.428,0.179c-0.164,0-0.307-0.059-0.423-0.179
					c-0.118-0.118-0.181-0.259-0.181-0.425c0-0.167,0.063-0.313,0.181-0.431C361.374,142.024,361.515,141.965,361.679,141.965z
					 M361.314,144.314h0.734v5.709h-0.734V144.314z"/>
				<path fill="#231F20" d="M369.274,142.112v7.912h-0.724v-0.98c-0.311,0.374-0.654,0.655-1.036,0.846
					c-0.382,0.188-0.804,0.284-1.256,0.284c-0.812,0-1.499-0.293-2.071-0.88c-0.571-0.586-0.858-1.298-0.858-2.138
					c0-0.822,0.289-1.525,0.866-2.109c0.578-0.583,1.272-0.877,2.083-0.877c0.471,0,0.896,0.101,1.272,0.3
					c0.38,0.198,0.713,0.499,0.999,0.896v-3.253L369.274,142.112L369.274,142.112z M366.338,144.875
					c-0.408,0-0.785,0.103-1.134,0.303c-0.346,0.199-0.621,0.482-0.825,0.847c-0.203,0.363-0.308,0.747-0.308,1.152
					c0,0.402,0.104,0.787,0.312,1.153c0.205,0.367,0.48,0.652,0.828,0.856c0.351,0.205,0.723,0.308,1.12,0.308
					c0.4,0,0.782-0.103,1.144-0.305c0.357-0.202,0.637-0.477,0.831-0.821c0.192-0.347,0.291-0.735,0.291-1.169
					c0-0.661-0.22-1.212-0.654-1.656C367.51,145.099,366.974,144.875,366.338,144.875z"/>
				<path fill="#231F20" d="M376.625,144.314v5.709H375.9v-0.98c-0.308,0.374-0.652,0.655-1.036,0.846
					c-0.382,0.188-0.802,0.284-1.256,0.284c-0.808,0-1.498-0.293-2.07-0.88c-0.57-0.586-0.856-1.298-0.856-2.138
					c0-0.822,0.289-1.525,0.864-2.109c0.577-0.583,1.271-0.877,2.084-0.877c0.471,0,0.895,0.101,1.271,0.3
					c0.379,0.198,0.713,0.499,0.999,0.896v-1.051H376.625z M373.689,144.875c-0.41,0-0.786,0.103-1.132,0.303
					c-0.347,0.199-0.622,0.482-0.826,0.847c-0.203,0.363-0.307,0.747-0.307,1.152c0,0.402,0.104,0.787,0.31,1.153
					c0.205,0.367,0.482,0.652,0.831,0.856c0.348,0.205,0.719,0.308,1.118,0.308c0.4,0,0.783-0.103,1.142-0.305
					c0.361-0.202,0.638-0.477,0.831-0.821c0.195-0.347,0.291-0.735,0.291-1.169c0-0.661-0.218-1.212-0.652-1.656
					S374.325,144.875,373.689,144.875z"/>
				<path fill="#231F20" d="M383.976,142.112v7.912h-0.725v-0.98c-0.31,0.374-0.653,0.655-1.036,0.846
					c-0.385,0.188-0.805,0.284-1.259,0.284c-0.808,0-1.498-0.293-2.068-0.88c-0.572-0.586-0.857-1.298-0.857-2.138
					c0-0.822,0.289-1.525,0.866-2.109c0.577-0.583,1.271-0.877,2.083-0.877c0.469,0,0.894,0.101,1.271,0.3
					c0.38,0.198,0.714,0.499,1,0.896v-3.253L383.976,142.112L383.976,142.112z M381.04,144.875c-0.407,0-0.784,0.103-1.133,0.303
					c-0.346,0.199-0.621,0.482-0.825,0.847c-0.204,0.363-0.307,0.747-0.307,1.152c0,0.402,0.104,0.787,0.31,1.153
					c0.206,0.367,0.482,0.652,0.831,0.856c0.351,0.205,0.722,0.308,1.118,0.308c0.402,0,0.782-0.103,1.145-0.305
					c0.357-0.202,0.636-0.477,0.831-0.821c0.191-0.347,0.291-0.735,0.291-1.169c0-0.661-0.22-1.212-0.652-1.656
					C382.212,145.099,381.677,144.875,381.04,144.875z"/>
				<path fill="#231F20" d="M390.445,148.13l0.62,0.323c-0.203,0.399-0.438,0.721-0.704,0.967c-0.267,0.243-0.563,0.431-0.896,0.558
					c-0.333,0.129-0.71,0.192-1.13,0.192c-0.934,0-1.659-0.306-2.187-0.916c-0.522-0.611-0.788-1.301-0.788-2.07
					c0-0.726,0.223-1.37,0.667-1.938c0.563-0.721,1.317-1.081,2.264-1.081c0.975,0,1.751,0.37,2.331,1.107
					c0.412,0.521,0.624,1.172,0.631,1.951h-5.138c0.017,0.664,0.229,1.207,0.636,1.63c0.41,0.426,0.918,0.637,1.52,0.637
					c0.291,0,0.573-0.051,0.848-0.15c0.275-0.103,0.51-0.235,0.702-0.403C390.013,148.771,390.221,148.503,390.445,148.13z
					 M390.445,146.593c-0.097-0.393-0.239-0.705-0.428-0.938c-0.188-0.233-0.437-0.424-0.743-0.565
					c-0.309-0.144-0.632-0.215-0.972-0.215c-0.563,0-1.042,0.181-1.446,0.539c-0.294,0.263-0.516,0.656-0.667,1.182L390.445,146.593
					L390.445,146.593z"/>
				<path fill="#231F20" d="M395.493,144.939l-0.473,0.487c-0.394-0.381-0.775-0.571-1.15-0.571c-0.236,0-0.44,0.078-0.611,0.235
					c-0.171,0.156-0.256,0.341-0.256,0.551c0,0.187,0.068,0.362,0.21,0.53c0.141,0.172,0.436,0.373,0.885,0.604
					c0.546,0.284,0.918,0.558,1.112,0.818c0.192,0.266,0.29,0.563,0.29,0.897c0,0.468-0.165,0.865-0.493,1.19
					c-0.33,0.325-0.741,0.488-1.233,0.488c-0.33,0-0.646-0.072-0.943-0.215c-0.301-0.146-0.548-0.341-0.743-0.596l0.462-0.522
					c0.375,0.423,0.771,0.634,1.193,0.634c0.294,0,0.545-0.096,0.751-0.283s0.312-0.412,0.312-0.667c0-0.21-0.067-0.396-0.204-0.563
					c-0.138-0.161-0.445-0.363-0.927-0.607c-0.517-0.268-0.864-0.527-1.052-0.787c-0.187-0.259-0.278-0.555-0.278-0.887
					c0-0.435,0.148-0.794,0.443-1.081c0.296-0.287,0.67-0.431,1.123-0.431C394.431,144.167,394.96,144.425,395.493,144.939z"/>
			</g>
			<g>
				<path fill="#231F20" d="M361.771,100.968c-9.631,0-17.466,7.834-17.466,17.465s7.834,17.465,17.466,17.465
					c9.631,0,17.466-7.835,17.466-17.465C379.237,108.802,371.401,100.968,361.771,100.968z M361.771,134.734
					c-8.989,0-16.301-7.313-16.301-16.302c0-8.99,7.313-16.304,16.301-16.304s16.301,7.313,16.301,16.304
					C378.071,127.421,370.76,134.734,361.771,134.734z"/>
				<path fill="#231F20" d="M355.78,118.976c1.202,0,2.179-0.978,2.179-2.178s-0.978-2.178-2.179-2.178
					c-1.203,0-2.18,0.979-2.18,2.178C353.6,117.999,354.577,118.976,355.78,118.976z M355.78,115.708c0.602,0,1.088,0.489,1.088,1.09
					s-0.486,1.089-1.088,1.089c-0.601,0-1.09-0.488-1.09-1.089S355.179,115.708,355.78,115.708z"/>
				<path fill="#231F20" d="M367.761,118.976c1.203,0,2.179-0.978,2.179-2.178s-0.979-2.178-2.179-2.178
					c-1.201,0-2.179,0.979-2.179,2.178C365.584,117.999,366.56,118.976,367.761,118.976z M367.761,115.708
					c0.601,0,1.089,0.489,1.089,1.09s-0.488,1.089-1.089,1.089c-0.602,0-1.088-0.488-1.088-1.089S367.161,115.708,367.761,115.708z"
					/>
				<path fill="#231F20" d="M369.202,125.051c-1.847,2-4.461,3.148-7.176,3.148c-2.755,0-5.396-1.178-7.25-3.231
					c-0.216-0.236-0.585-0.259-0.821-0.042c-0.237,0.215-0.26,0.583-0.043,0.822c2.072,2.299,5.028,3.614,8.114,3.614
					c3.038,0,5.966-1.283,8.032-3.521c0.219-0.237,0.203-0.604-0.033-0.822C369.789,124.799,369.421,124.813,369.202,125.051z"/>
			</g>
		</g>
	</g>
</svg>