<svg version="1.1" xmlns="http://www.w3.org/2000/svg" xmlns:xlink="http://www.w3.org/1999/xlink" x="0px" y="0px"
	 width="456.667px" height="456.834px" viewBox="0 0 456.667 456.834" enable-background="new 0 0 456.667 456.834"
	 xml:space="preserve">
<g id="product" class="droppable">
	<polygon fill="#FFF" points="2.155,2.319 228.476,227.743 2.155,454.961 	"/>
</g>
<g id="gain-creators" class="droppable">
	<polygon fill="#FFF" points="1.046,1.211 454.602,1.211 454.602,227.743 228.476,227.743 	"/>
</g>
<g id="pain-relievers" class="droppable">
	<polygon fill="#FFF" points="1.239,454.962 454.796,454.962 454.796,228.429 228.669,228.429 	"/>
</g>
<g id="lines">
	<rect x="2.155" y="2.319" fill="none" stroke="#231F20" stroke-width="3.9467" width="452.641" height="452.642"/>
	<line fill="none" stroke="#231F20" stroke-width="1.7442" x1="1.046" y1="1.211" x2="228.476" y2="227.743"/>
	<line fill="none" stroke="#231F20" stroke-width="1.7442" x1="1.046" y1="456.068" x2="228.476" y2="227.751"/>
	<line fill="none" stroke="#231F20" stroke-width="1.6885" x1="454.796" y1="227.743" x2="228.476" y2="227.743"/>
	<path fill="none" stroke="#231F20" stroke-width="0.1989" d="M228.536,197.058"/>
	<rect x="195.229" y="211.713" fill="#FFFFFF" width="66.49" height="11.468"/>
	<path d="M260.235,221.674h-63.52v-8.456h63.52V221.674z M193.743,224.686h69.463v-14.479h-69.463V224.686z"/>
	<polyline fill="#FFFFFF" points="198.485,224.336 198.485,264.566 257.333,264.566 257.333,224.336 	"/>
	<polygon points="196.999,266.072 258.819,266.072 258.819,224.336 255.847,224.336 255.847,263.061 199.972,263.061 
		199.972,224.336 196.999,224.336 	"/>
	<rect x="226.423" y="211.363" width="2.973" height="54.221"/>
	<path fill="#FFFFFF" d="M228.282,207.544h7.545c4.26,0,7.674-3.379,7.674-7.694s-3.332-7.695-7.59-7.695
		c-4.26,0-7.629,3.419-7.629,7.733V207.544z"/>
	<path d="M235.911,193.659c3.422,0,6.104,2.719,6.104,6.189s-2.717,6.189-6.188,6.189h-6.059v-6.15
		C229.769,196.396,232.466,193.659,235.911,193.659 M226.796,209.05h9.031c5.137,0,9.158-4.042,9.158-9.201
		s-3.986-9.201-9.074-9.201c-5.111,0-9.115,4.06-9.115,9.24V209.05z"/>
	<path fill="#FFFFFF" d="M227.915,207.544h-7.545c-4.26,0-7.674-3.379-7.674-7.694s3.332-7.695,7.59-7.695
		c4.26,0,7.629,3.419,7.629,7.733V207.544z"/>
	<path d="M226.429,206.038h-6.061c-3.469,0-6.186-2.719-6.186-6.189s2.682-6.189,6.104-6.189c3.445,0,6.143,2.736,6.143,6.229
		V206.038z M220.368,209.05h9.031v-9.162c0-5.181-4.002-9.24-9.113-9.24c-5.088,0-9.076,4.042-9.076,9.201
		S215.235,209.05,220.368,209.05"/>
	<g>
		<path fill="#231F20" d="M252.944,93.667l-0.686,0.526c-0.379-0.493-0.833-0.866-1.363-1.12c-0.53-0.254-1.112-0.381-1.746-0.381
			c-0.694,0-1.336,0.167-1.928,0.5s-1.049,0.78-1.375,1.342c-0.324,0.562-0.487,1.193-0.487,1.895c0,1.06,0.364,1.945,1.091,2.654
			s1.645,1.064,2.752,1.064c1.218,0,2.236-0.477,3.057-1.431l0.686,0.521c-0.434,0.552-0.975,0.978-1.623,1.28
			c-0.648,0.301-1.373,0.452-2.172,0.452c-1.521,0-2.723-0.506-3.601-1.519c-0.737-0.855-1.105-1.888-1.105-3.098
			c0-1.273,0.446-2.344,1.339-3.213s2.011-1.304,3.354-1.304c0.812,0,1.545,0.161,2.199,0.482S252.526,93.088,252.944,93.667z"/>
		<path fill="#231F20" d="M254.238,94.318h0.845v0.94c0.253-0.371,0.519-0.647,0.799-0.831c0.279-0.183,0.571-0.275,0.875-0.275
			c0.229,0,0.473,0.073,0.732,0.219l-0.432,0.698c-0.173-0.075-0.318-0.112-0.438-0.112c-0.275,0-0.541,0.113-0.797,0.34
			c-0.257,0.227-0.452,0.578-0.586,1.055c-0.103,0.366-0.154,1.107-0.154,2.223v2.175h-0.845V94.318z"/>
		<path fill="#231F20" d="M263.608,98.616l0.697,0.366c-0.229,0.449-0.494,0.812-0.793,1.088s-0.637,0.486-1.012,0.629
			c-0.375,0.144-0.799,0.216-1.271,0.216c-1.05,0-1.871-0.344-2.462-1.032c-0.592-0.688-0.888-1.465-0.888-2.332
			c0-0.815,0.25-1.542,0.752-2.181c0.635-0.812,1.484-1.218,2.549-1.218c1.098,0,1.973,0.416,2.627,1.248
			c0.467,0.587,0.703,1.32,0.711,2.199h-5.787c0.016,0.747,0.254,1.359,0.716,1.837c0.462,0.478,1.032,0.716,1.71,0.716
			c0.328,0,0.646-0.057,0.957-0.171c0.309-0.114,0.572-0.265,0.789-0.453S263.356,99.036,263.608,98.616z M263.608,96.883
			c-0.111-0.441-0.271-0.794-0.482-1.058c-0.211-0.264-0.49-0.477-0.838-0.638s-0.713-0.243-1.095-0.243
			c-0.632,0-1.175,0.203-1.628,0.609c-0.332,0.296-0.582,0.739-0.752,1.33H263.608z"/>
		<path fill="#231F20" d="M272.47,94.318v6.432h-0.816v-1.105c-0.346,0.422-0.736,0.739-1.168,0.952s-0.902,0.319-1.416,0.319
			c-0.91,0-1.688-0.33-2.332-0.99c-0.643-0.66-0.965-1.463-0.965-2.409c0-0.926,0.324-1.718,0.975-2.376s1.432-0.987,2.348-0.987
			c0.527,0,1.006,0.112,1.434,0.337c0.426,0.225,0.803,0.562,1.125,1.011v-1.182H272.47z M269.161,94.951
			c-0.459,0-0.885,0.113-1.275,0.339c-0.389,0.227-0.699,0.544-0.93,0.954s-0.346,0.842-0.346,1.299c0,0.453,0.117,0.886,0.35,1.299
			c0.232,0.413,0.543,0.735,0.936,0.965c0.391,0.23,0.812,0.345,1.26,0.345c0.453,0,0.883-0.114,1.287-0.342
			c0.406-0.229,0.719-0.538,0.938-0.927c0.217-0.39,0.326-0.829,0.326-1.316c0-0.744-0.244-1.366-0.734-1.866
			C270.481,95.201,269.878,94.951,269.161,94.951z"/>
		<path fill="#231F20" d="M280.751,91.835v8.915h-0.816v-1.105c-0.346,0.422-0.736,0.739-1.168,0.952s-0.902,0.319-1.414,0.319
			c-0.912,0-1.689-0.33-2.332-0.99c-0.645-0.66-0.967-1.463-0.967-2.409c0-0.926,0.324-1.718,0.975-2.376s1.432-0.987,2.348-0.987
			c0.527,0,1.006,0.112,1.434,0.337c0.426,0.225,0.803,0.562,1.125,1.011v-3.665H280.751z M277.442,94.951
			c-0.459,0-0.885,0.113-1.275,0.339c-0.389,0.227-0.699,0.544-0.93,0.954s-0.346,0.842-0.346,1.299c0,0.453,0.117,0.886,0.35,1.299
			c0.232,0.413,0.543,0.735,0.936,0.965c0.391,0.23,0.812,0.345,1.26,0.345c0.453,0,0.883-0.114,1.287-0.342
			c0.406-0.229,0.719-0.538,0.938-0.927c0.217-0.39,0.326-0.829,0.326-1.316c0-0.744-0.244-1.366-0.734-1.866
			C278.763,95.201,278.159,94.951,277.442,94.951z"/>
		<path fill="#231F20" d="M285.669,94.152c0.99,0,1.812,0.359,2.463,1.076c0.594,0.654,0.889,1.428,0.889,2.323
			c0,0.899-0.312,1.684-0.938,2.356c-0.627,0.672-1.432,1.008-2.414,1.008c-0.986,0-1.793-0.336-2.418-1.008
			c-0.627-0.672-0.939-1.457-0.939-2.356c0-0.891,0.297-1.663,0.889-2.317C283.851,94.513,284.675,94.152,285.669,94.152z
			 M285.667,94.962c-0.689,0-1.279,0.254-1.775,0.762c-0.494,0.509-0.74,1.124-0.74,1.845c0,0.465,0.111,0.898,0.338,1.3
			c0.225,0.402,0.529,0.712,0.914,0.931c0.383,0.219,0.805,0.328,1.264,0.328c0.457,0,0.879-0.109,1.264-0.328
			c0.383-0.219,0.688-0.529,0.912-0.931c0.227-0.402,0.338-0.835,0.338-1.3c0-0.721-0.248-1.336-0.744-1.845
			C286.94,95.216,286.351,94.962,285.667,94.962z"/>
		<path fill="#231F20" d="M290.237,94.318h0.846v0.94c0.252-0.371,0.52-0.647,0.799-0.831s0.57-0.275,0.875-0.275
			c0.229,0,0.473,0.073,0.732,0.219l-0.432,0.698c-0.174-0.075-0.318-0.112-0.438-0.112c-0.275,0-0.541,0.113-0.797,0.34
			c-0.258,0.227-0.451,0.578-0.586,1.055c-0.102,0.366-0.154,1.107-0.154,2.223v2.175h-0.846V94.318z"/>
		<path fill="#231F20" d="M299.608,98.616l0.697,0.366c-0.229,0.449-0.494,0.812-0.793,1.088c-0.301,0.276-0.637,0.486-1.012,0.629
			c-0.375,0.144-0.799,0.216-1.271,0.216c-1.051,0-1.871-0.344-2.463-1.032c-0.592-0.688-0.887-1.465-0.887-2.332
			c0-0.815,0.25-1.542,0.752-2.181c0.635-0.812,1.484-1.218,2.549-1.218c1.098,0,1.973,0.416,2.627,1.248
			c0.467,0.587,0.703,1.32,0.711,2.199h-5.787c0.016,0.747,0.254,1.359,0.715,1.837c0.463,0.478,1.033,0.716,1.711,0.716
			c0.328,0,0.646-0.057,0.957-0.171c0.309-0.114,0.572-0.265,0.789-0.453S299.356,99.036,299.608,98.616z M299.608,96.883
			c-0.111-0.441-0.271-0.794-0.482-1.058c-0.211-0.264-0.49-0.477-0.838-0.638s-0.713-0.243-1.096-0.243
			c-0.631,0-1.174,0.203-1.627,0.609c-0.332,0.296-0.582,0.739-0.752,1.33H299.608z"/>
		<path fill="#231F20" d="M305.294,95.021l-0.531,0.55c-0.443-0.43-0.875-0.645-1.297-0.645c-0.27,0-0.5,0.089-0.691,0.266
			s-0.287,0.384-0.287,0.621c0,0.209,0.078,0.408,0.236,0.597c0.158,0.193,0.49,0.419,0.996,0.68
			c0.615,0.319,1.033,0.626,1.256,0.922c0.217,0.299,0.324,0.636,0.324,1.011c0,0.528-0.186,0.975-0.555,1.342
			c-0.371,0.367-0.836,0.55-1.393,0.55c-0.371,0-0.725-0.081-1.062-0.242c-0.338-0.162-0.617-0.384-0.838-0.668l0.521-0.591
			c0.422,0.477,0.869,0.715,1.344,0.715c0.332,0,0.615-0.106,0.848-0.319s0.35-0.463,0.35-0.75c0-0.237-0.076-0.447-0.23-0.633
			c-0.154-0.181-0.502-0.41-1.043-0.686c-0.58-0.299-0.977-0.595-1.186-0.887s-0.314-0.625-0.314-0.999
			c0-0.489,0.168-0.895,0.502-1.218c0.332-0.323,0.754-0.485,1.264-0.485C304.099,94.152,304.694,94.442,305.294,95.021z"/>
		<path fill="#231F20" d="M316.532,91.835v8.915h-0.814v-1.105c-0.348,0.422-0.736,0.739-1.168,0.952s-0.904,0.319-1.416,0.319
			c-0.91,0-1.688-0.33-2.332-0.99s-0.967-1.463-0.967-2.409c0-0.926,0.326-1.718,0.977-2.376c0.648-0.658,1.432-0.987,2.346-0.987
			c0.527,0,1.006,0.112,1.434,0.337s0.803,0.562,1.127,1.011v-3.665H316.532z M313.226,94.951c-0.461,0-0.887,0.113-1.275,0.339
			c-0.391,0.227-0.699,0.544-0.93,0.954s-0.346,0.842-0.346,1.299c0,0.453,0.115,0.886,0.348,1.299
			c0.232,0.413,0.545,0.735,0.936,0.965c0.393,0.23,0.812,0.345,1.262,0.345c0.453,0,0.881-0.114,1.287-0.342
			c0.406-0.229,0.717-0.538,0.936-0.927s0.328-0.829,0.328-1.316c0-0.744-0.246-1.366-0.736-1.866
			C314.546,95.201,313.942,94.951,313.226,94.951z"/>
		<path fill="#231F20" d="M323.821,98.616l0.697,0.366c-0.229,0.449-0.494,0.812-0.793,1.088c-0.301,0.276-0.637,0.486-1.012,0.629
			c-0.375,0.144-0.799,0.216-1.271,0.216c-1.051,0-1.871-0.344-2.463-1.032c-0.592-0.688-0.887-1.465-0.887-2.332
			c0-0.815,0.25-1.542,0.752-2.181c0.635-0.812,1.484-1.218,2.549-1.218c1.098,0,1.973,0.416,2.627,1.248
			c0.467,0.587,0.703,1.32,0.711,2.199h-5.787c0.016,0.747,0.254,1.359,0.715,1.837c0.463,0.478,1.033,0.716,1.711,0.716
			c0.328,0,0.646-0.057,0.957-0.171c0.309-0.114,0.572-0.265,0.789-0.453S323.569,99.036,323.821,98.616z M323.821,96.883
			c-0.111-0.441-0.271-0.794-0.482-1.058c-0.211-0.264-0.49-0.477-0.838-0.638s-0.713-0.243-1.096-0.243
			c-0.631,0-1.174,0.203-1.627,0.609c-0.332,0.296-0.582,0.739-0.752,1.33H323.821z"/>
		<path fill="#231F20" d="M336.034,94.318v6.432h-0.816v-1.105c-0.346,0.422-0.736,0.739-1.168,0.952s-0.902,0.319-1.416,0.319
			c-0.91,0-1.688-0.33-2.332-0.99c-0.643-0.66-0.965-1.463-0.965-2.409c0-0.926,0.324-1.718,0.975-2.376s1.432-0.987,2.348-0.987
			c0.527,0,1.006,0.112,1.434,0.337c0.426,0.225,0.803,0.562,1.125,1.011v-1.182H336.034z M332.726,94.951
			c-0.459,0-0.885,0.113-1.275,0.339c-0.389,0.227-0.699,0.544-0.93,0.954s-0.346,0.842-0.346,1.299c0,0.453,0.117,0.886,0.35,1.299
			c0.232,0.413,0.543,0.735,0.936,0.965c0.391,0.23,0.812,0.345,1.26,0.345c0.453,0,0.883-0.114,1.287-0.342
			c0.406-0.229,0.719-0.538,0.938-0.927c0.217-0.39,0.326-0.829,0.326-1.316c0-0.744-0.244-1.366-0.734-1.866
			C334.046,95.201,333.442,94.951,332.726,94.951z"/>
		<path fill="#231F20" d="M337.772,91.835h0.828v8.915h-0.828V91.835z"/>
		<path fill="#231F20" d="M345.735,98.616l0.697,0.366c-0.229,0.449-0.494,0.812-0.793,1.088c-0.301,0.276-0.637,0.486-1.012,0.629
			c-0.375,0.144-0.799,0.216-1.271,0.216c-1.051,0-1.871-0.344-2.463-1.032c-0.592-0.688-0.887-1.465-0.887-2.332
			c0-0.815,0.25-1.542,0.752-2.181c0.635-0.812,1.484-1.218,2.549-1.218c1.098,0,1.973,0.416,2.627,1.248
			c0.467,0.587,0.703,1.32,0.711,2.199h-5.787c0.016,0.747,0.254,1.359,0.715,1.837c0.463,0.478,1.033,0.716,1.711,0.716
			c0.328,0,0.646-0.057,0.957-0.171c0.309-0.114,0.572-0.265,0.789-0.453S345.483,99.036,345.735,98.616z M345.735,96.883
			c-0.111-0.441-0.271-0.794-0.482-1.058c-0.211-0.264-0.49-0.477-0.838-0.638s-0.713-0.243-1.096-0.243
			c-0.631,0-1.174,0.203-1.627,0.609c-0.332,0.296-0.582,0.739-0.752,1.33H345.735z"/>
		<path fill="#231F20" d="M353.733,94.318h0.828v5.125c0,0.903-0.08,1.563-0.236,1.98c-0.217,0.591-0.594,1.046-1.131,1.366
			c-0.535,0.319-1.18,0.479-1.932,0.479c-0.553,0-1.047-0.078-1.486-0.234c-0.439-0.156-0.799-0.366-1.074-0.628
			c-0.275-0.263-0.529-0.647-0.762-1.153h0.898c0.244,0.426,0.561,0.741,0.947,0.946s0.865,0.308,1.438,0.308
			c0.564,0,1.041-0.105,1.43-0.315s0.666-0.474,0.832-0.792c0.164-0.318,0.248-0.832,0.248-1.541v-0.331
			c-0.312,0.394-0.693,0.697-1.143,0.907c-0.449,0.211-0.928,0.316-1.432,0.316c-0.592,0-1.148-0.147-1.668-0.44
			c-0.521-0.293-0.924-0.688-1.207-1.185c-0.285-0.497-0.428-1.042-0.428-1.638c0-0.595,0.148-1.15,0.445-1.664
			c0.295-0.514,0.705-0.921,1.227-1.221c0.523-0.299,1.074-0.449,1.654-0.449c0.48,0,0.93,0.1,1.346,0.299
			c0.416,0.199,0.818,0.527,1.205,0.984V94.318z M351.292,94.951c-0.469,0-0.904,0.113-1.307,0.34s-0.717,0.54-0.945,0.94
			c-0.229,0.4-0.344,0.833-0.344,1.297c0,0.706,0.236,1.289,0.709,1.75c0.475,0.461,1.086,0.692,1.84,0.692
			c0.76,0,1.371-0.229,1.834-0.686c0.465-0.458,0.695-1.058,0.695-1.803c0-0.485-0.105-0.917-0.318-1.297s-0.516-0.681-0.904-0.902
			C352.161,95.061,351.741,94.951,351.292,94.951z"/>
		<path fill="#231F20" d="M356.021,94.318h0.846v0.94c0.252-0.371,0.518-0.647,0.797-0.831c0.281-0.183,0.572-0.275,0.875-0.275
			c0.229,0,0.473,0.073,0.734,0.219l-0.432,0.698c-0.174-0.075-0.32-0.112-0.438-0.112c-0.277,0-0.543,0.113-0.799,0.34
			s-0.451,0.578-0.586,1.055c-0.102,0.366-0.152,1.107-0.152,2.223v2.175h-0.846V94.318z"/>
		<path fill="#231F20" d="M360.263,91.669c0.188,0,0.35,0.067,0.482,0.201s0.199,0.295,0.199,0.485c0,0.185-0.066,0.345-0.199,0.479
			c-0.133,0.134-0.295,0.201-0.482,0.201c-0.186,0-0.344-0.067-0.477-0.201c-0.135-0.134-0.201-0.293-0.201-0.479
			c0-0.189,0.066-0.351,0.201-0.485C359.919,91.737,360.077,91.669,360.263,91.669z M359.851,94.318h0.828v6.432h-0.828V94.318z"/>
		<path fill="#231F20" d="M368.808,94.318v6.432h-0.816v-1.105c-0.346,0.422-0.736,0.739-1.168,0.952s-0.902,0.319-1.416,0.319
			c-0.91,0-1.688-0.33-2.332-0.99c-0.643-0.66-0.965-1.463-0.965-2.409c0-0.926,0.324-1.718,0.975-2.376s1.432-0.987,2.348-0.987
			c0.527,0,1.006,0.112,1.434,0.337c0.426,0.225,0.803,0.562,1.125,1.011v-1.182H368.808z M365.499,94.951
			c-0.459,0-0.885,0.113-1.275,0.339c-0.389,0.227-0.699,0.544-0.93,0.954s-0.346,0.842-0.346,1.299c0,0.453,0.117,0.886,0.35,1.299
			c0.232,0.413,0.543,0.735,0.936,0.965c0.391,0.23,0.812,0.345,1.26,0.345c0.453,0,0.883-0.114,1.287-0.342
			c0.406-0.229,0.719-0.538,0.938-0.927c0.217-0.39,0.326-0.829,0.326-1.316c0-0.744-0.244-1.366-0.734-1.866
			C366.819,95.201,366.216,94.951,365.499,94.951z"/>
		<path fill="#231F20" d="M373.901,95.021l-0.531,0.55c-0.443-0.43-0.875-0.645-1.297-0.645c-0.27,0-0.5,0.089-0.691,0.266
			s-0.287,0.384-0.287,0.621c0,0.209,0.078,0.408,0.236,0.597c0.158,0.193,0.49,0.419,0.996,0.68
			c0.615,0.319,1.033,0.626,1.256,0.922c0.217,0.299,0.324,0.636,0.324,1.011c0,0.528-0.186,0.975-0.555,1.342
			c-0.371,0.367-0.836,0.55-1.393,0.55c-0.371,0-0.725-0.081-1.062-0.242c-0.338-0.162-0.617-0.384-0.838-0.668l0.521-0.591
			c0.422,0.477,0.869,0.715,1.344,0.715c0.332,0,0.615-0.106,0.848-0.319s0.35-0.463,0.35-0.75c0-0.237-0.076-0.447-0.23-0.633
			c-0.154-0.181-0.502-0.41-1.043-0.686c-0.58-0.299-0.977-0.595-1.186-0.887s-0.314-0.625-0.314-0.999
			c0-0.489,0.168-0.895,0.502-1.218c0.332-0.323,0.754-0.485,1.264-0.485C372.706,94.152,373.302,94.442,373.901,95.021z"/>
	</g>
	<g>
		<polygon points="300.233,145.001 297.413,142.181 309.64,129.956 315.312,135.628 321.206,129.732 324.024,132.553 
			315.312,141.268 309.64,135.596 		"/>
		<polygon points="325.401,136.233 328.282,125.477 317.526,128.358 		"/>
		<polygon points="327.177,152.888 289.952,152.888 289.952,114.776 292.61,114.776 292.61,150.229 327.177,150.229 		"/>
		<rect x="291.751" y="119.207" width="3.047" height="2.659"/>
		<rect x="291.751" y="127.185" width="3.047" height="2.659"/>
		<rect x="291.751" y="135.161" width="3.047" height="2.659"/>
		<rect x="291.751" y="143.139" width="3.047" height="2.659"/>
	</g>
	<g>
		<path fill="#231F20" d="M233.652,321.954l4.055,8.695h-0.938l-1.368-2.861h-3.746l-1.354,2.861h-0.97l4.108-8.695H233.652z
			 M233.542,323.801l-1.49,3.148h2.973L233.542,323.801z"/>
		<path fill="#231F20" d="M238.794,321.735h0.828v8.914h-0.828V321.735z"/>
		<path fill="#231F20" d="M241.63,321.569c0.188,0,0.349,0.067,0.482,0.201c0.133,0.134,0.199,0.296,0.199,0.484
			c0,0.186-0.066,0.346-0.199,0.479c-0.134,0.134-0.295,0.2-0.482,0.2c-0.186,0-0.344-0.066-0.478-0.2s-0.2-0.294-0.2-0.479
			c0-0.188,0.066-0.351,0.2-0.484S241.444,321.569,241.63,321.569z M241.218,324.218h0.828v6.432h-0.828V324.218z"/>
		<path fill="#231F20" d="M243.157,324.218h0.881l2.159,4.688l2.133-4.688h0.887l-2.944,6.432h-0.153L243.157,324.218z"/>
		<path fill="#231F20" d="M250.763,321.569c0.188,0,0.35,0.067,0.482,0.201c0.134,0.134,0.2,0.296,0.2,0.484
			c0,0.186-0.066,0.346-0.2,0.479c-0.133,0.134-0.294,0.2-0.482,0.2c-0.185,0-0.344-0.066-0.477-0.2
			c-0.134-0.134-0.2-0.294-0.2-0.479c0-0.188,0.066-0.351,0.2-0.484C250.419,321.637,250.578,321.569,250.763,321.569z
			 M250.352,324.218h0.828v6.432h-0.828V324.218z"/>
		<path fill="#231F20" d="M259.308,324.218v6.432h-0.815v-1.105c-0.347,0.422-0.736,0.739-1.168,0.952s-0.903,0.318-1.416,0.318
			c-0.91,0-1.688-0.329-2.332-0.989c-0.644-0.66-0.966-1.464-0.966-2.409c0-0.926,0.325-1.719,0.975-2.377
			c0.65-0.657,1.433-0.986,2.348-0.986c0.527,0,1.006,0.112,1.434,0.337c0.427,0.225,0.803,0.562,1.126,1.011v-1.183H259.308z
			 M256,324.851c-0.46,0-0.886,0.113-1.275,0.339c-0.39,0.227-0.699,0.545-0.93,0.954s-0.346,0.843-0.346,1.299
			c0,0.453,0.116,0.886,0.349,1.299c0.232,0.414,0.544,0.735,0.936,0.966s0.812,0.346,1.261,0.346c0.453,0,0.882-0.114,1.287-0.343
			s0.718-0.537,0.937-0.927c0.218-0.39,0.327-0.829,0.327-1.317c0-0.743-0.245-1.365-0.735-1.865
			C257.32,325.101,256.717,324.851,256,324.851z"/>
		<path fill="#231F20" d="M267.589,321.735v8.914h-0.815v-1.105c-0.347,0.422-0.736,0.739-1.168,0.952s-0.903,0.318-1.415,0.318
			c-0.911,0-1.688-0.329-2.332-0.989c-0.645-0.66-0.967-1.464-0.967-2.409c0-0.926,0.325-1.719,0.976-2.377
			c0.649-0.657,1.432-0.986,2.347-0.986c0.527,0,1.006,0.112,1.434,0.337c0.427,0.225,0.803,0.562,1.126,1.011v-3.665H267.589z
			 M264.281,324.851c-0.46,0-0.886,0.113-1.275,0.339c-0.39,0.227-0.699,0.545-0.93,0.954s-0.346,0.843-0.346,1.299
			c0,0.453,0.116,0.886,0.349,1.299c0.232,0.414,0.544,0.735,0.936,0.966s0.812,0.346,1.261,0.346c0.453,0,0.882-0.114,1.287-0.343
			c0.406-0.229,0.718-0.537,0.937-0.927c0.218-0.39,0.327-0.829,0.327-1.317c0-0.743-0.245-1.365-0.735-1.865
			C265.602,325.101,264.998,324.851,264.281,324.851z"/>
		<path fill="#231F20" d="M272.508,324.053c0.99,0,1.812,0.358,2.463,1.075c0.593,0.654,0.889,1.429,0.889,2.323
			c0,0.898-0.313,1.684-0.938,2.355c-0.626,0.672-1.431,1.008-2.413,1.008c-0.987,0-1.794-0.336-2.419-1.008
			c-0.626-0.672-0.939-1.457-0.939-2.355c0-0.891,0.297-1.663,0.889-2.317C270.689,324.413,271.513,324.053,272.508,324.053z
			 M272.505,324.862c-0.688,0-1.279,0.254-1.774,0.763c-0.494,0.508-0.741,1.123-0.741,1.844c0,0.466,0.112,0.898,0.338,1.301
			s0.53,0.712,0.914,0.931s0.805,0.328,1.264,0.328c0.458,0,0.88-0.109,1.264-0.328c0.383-0.219,0.688-0.528,0.913-0.931
			s0.338-0.835,0.338-1.301c0-0.721-0.248-1.336-0.744-1.844C273.779,325.116,273.188,324.862,272.505,324.862z"/>
		<path fill="#231F20" d="M277.076,324.218h0.846v0.94c0.252-0.371,0.519-0.647,0.798-0.831c0.28-0.184,0.571-0.274,0.875-0.274
			c0.229,0,0.473,0.072,0.733,0.219l-0.432,0.697c-0.174-0.075-0.319-0.112-0.438-0.112c-0.276,0-0.542,0.113-0.798,0.34
			c-0.257,0.227-0.451,0.578-0.586,1.055c-0.102,0.367-0.153,1.107-0.153,2.223v2.176h-0.846V324.218z"/>
		<path fill="#231F20" d="M286.446,328.516l0.697,0.366c-0.229,0.449-0.493,0.812-0.793,1.088c-0.3,0.275-0.637,0.485-1.012,0.63
			c-0.374,0.144-0.799,0.215-1.271,0.215c-1.05,0-1.87-0.344-2.462-1.031s-0.888-1.465-0.888-2.332c0-0.815,0.251-1.543,0.752-2.181
			c0.635-0.812,1.485-1.218,2.55-1.218c1.097,0,1.973,0.415,2.627,1.247c0.466,0.587,0.702,1.32,0.71,2.199h-5.787
			c0.016,0.747,0.255,1.359,0.716,1.837c0.462,0.478,1.032,0.717,1.711,0.717c0.327,0,0.646-0.058,0.956-0.171
			c0.31-0.114,0.573-0.266,0.79-0.454S286.194,328.936,286.446,328.516z M286.446,326.783c-0.11-0.441-0.271-0.794-0.482-1.058
			c-0.211-0.265-0.49-0.478-0.837-0.639c-0.348-0.162-0.713-0.242-1.096-0.242c-0.631,0-1.174,0.203-1.627,0.608
			c-0.332,0.296-0.582,0.739-0.752,1.33H286.446z"/>
		<path fill="#231F20" d="M292.133,324.921l-0.531,0.55c-0.443-0.429-0.876-0.644-1.298-0.644c-0.27,0-0.499,0.088-0.691,0.266
			c-0.191,0.178-0.287,0.384-0.287,0.621c0,0.208,0.079,0.407,0.237,0.597c0.157,0.193,0.489,0.42,0.995,0.68
			c0.616,0.319,1.034,0.627,1.256,0.922c0.217,0.3,0.325,0.637,0.325,1.011c0,0.528-0.186,0.976-0.556,1.343
			c-0.371,0.366-0.835,0.549-1.392,0.549c-0.371,0-0.726-0.08-1.062-0.242c-0.338-0.161-0.617-0.384-0.838-0.668l0.521-0.591
			c0.422,0.477,0.87,0.715,1.345,0.715c0.332,0,0.614-0.106,0.847-0.318c0.233-0.213,0.35-0.464,0.35-0.751
			c0-0.236-0.076-0.447-0.23-0.633c-0.154-0.182-0.502-0.41-1.043-0.686c-0.58-0.3-0.976-0.595-1.185-0.887
			s-0.314-0.625-0.314-0.999c0-0.488,0.167-0.895,0.501-1.218c0.333-0.323,0.755-0.484,1.264-0.484
			C290.938,324.053,291.533,324.342,292.133,324.921z"/>
		<path fill="#231F20" d="M303.37,321.735v8.914h-0.815v-1.105c-0.347,0.422-0.736,0.739-1.168,0.952s-0.903,0.318-1.415,0.318
			c-0.911,0-1.688-0.329-2.332-0.989c-0.645-0.66-0.967-1.464-0.967-2.409c0-0.926,0.325-1.719,0.976-2.377
			c0.649-0.657,1.432-0.986,2.347-0.986c0.527,0,1.006,0.112,1.434,0.337c0.427,0.225,0.803,0.562,1.126,1.011v-3.665H303.37z
			 M300.062,324.851c-0.46,0-0.886,0.113-1.275,0.339c-0.39,0.227-0.699,0.545-0.93,0.954s-0.346,0.843-0.346,1.299
			c0,0.453,0.116,0.886,0.349,1.299c0.232,0.414,0.544,0.735,0.936,0.966s0.812,0.346,1.261,0.346c0.453,0,0.882-0.114,1.287-0.343
			c0.406-0.229,0.718-0.537,0.937-0.927c0.218-0.39,0.327-0.829,0.327-1.317c0-0.743-0.245-1.365-0.735-1.865
			C301.383,325.101,300.779,324.851,300.062,324.851z"/>
		<path fill="#231F20" d="M310.659,328.516l0.697,0.366c-0.229,0.449-0.493,0.812-0.793,1.088c-0.3,0.275-0.637,0.485-1.012,0.63
			c-0.374,0.144-0.799,0.215-1.271,0.215c-1.05,0-1.87-0.344-2.462-1.031s-0.888-1.465-0.888-2.332c0-0.815,0.251-1.543,0.752-2.181
			c0.635-0.812,1.485-1.218,2.55-1.218c1.097,0,1.973,0.415,2.627,1.247c0.466,0.587,0.702,1.32,0.71,2.199h-5.787
			c0.016,0.747,0.255,1.359,0.716,1.837c0.462,0.478,1.032,0.717,1.711,0.717c0.327,0,0.646-0.058,0.956-0.171
			c0.31-0.114,0.573-0.266,0.79-0.454S310.407,328.936,310.659,328.516z M310.659,326.783c-0.11-0.441-0.271-0.794-0.482-1.058
			c-0.211-0.265-0.49-0.478-0.837-0.639c-0.348-0.162-0.713-0.242-1.096-0.242c-0.631,0-1.174,0.203-1.627,0.608
			c-0.332,0.296-0.582,0.739-0.752,1.33H310.659z"/>
		<path fill="#231F20" d="M319.112,321.735v0.81c-0.304-0.13-0.563-0.195-0.78-0.195c-0.161,0-0.296,0.033-0.401,0.098
			c-0.106,0.065-0.174,0.14-0.201,0.225c-0.028,0.085-0.042,0.311-0.042,0.677v0.869h1.342v0.715h-1.343l-0.005,5.717h-0.827v-5.717
			h-0.846v-0.715h0.846v-1.005c0-0.461,0.042-0.79,0.127-0.987s0.229-0.355,0.432-0.476s0.448-0.181,0.735-0.181
			C318.417,321.569,318.738,321.625,319.112,321.735z"/>
		<path fill="#231F20" d="M319.951,324.218h0.846v0.94c0.252-0.371,0.519-0.647,0.798-0.831c0.28-0.184,0.571-0.274,0.875-0.274
			c0.229,0,0.473,0.072,0.733,0.219l-0.432,0.697c-0.174-0.075-0.319-0.112-0.438-0.112c-0.276,0-0.542,0.113-0.798,0.34
			c-0.257,0.227-0.451,0.578-0.586,1.055c-0.102,0.367-0.153,1.107-0.153,2.223v2.176h-0.846V324.218z"/>
		<path fill="#231F20" d="M323.8,324.218h0.828v3.003c0,0.733,0.039,1.237,0.118,1.514c0.118,0.394,0.345,0.705,0.678,0.934
			c0.334,0.229,0.731,0.343,1.193,0.343s0.854-0.111,1.175-0.334s0.544-0.515,0.666-0.878c0.083-0.248,0.124-0.774,0.124-1.578
			v-3.003h0.846v3.156c0,0.887-0.104,1.556-0.311,2.005s-0.518,0.801-0.934,1.055s-0.938,0.381-1.563,0.381
			c-0.627,0-1.15-0.127-1.569-0.381c-0.42-0.254-0.733-0.608-0.94-1.064c-0.207-0.455-0.311-1.14-0.311-2.054V324.218z"/>
		<path fill="#231F20" d="M334.5,324.921l-0.531,0.55c-0.443-0.429-0.876-0.644-1.298-0.644c-0.27,0-0.499,0.088-0.691,0.266
			c-0.191,0.178-0.287,0.384-0.287,0.621c0,0.208,0.079,0.407,0.237,0.597c0.157,0.193,0.489,0.42,0.995,0.68
			c0.616,0.319,1.034,0.627,1.256,0.922c0.217,0.3,0.325,0.637,0.325,1.011c0,0.528-0.186,0.976-0.556,1.343
			c-0.371,0.366-0.835,0.549-1.392,0.549c-0.371,0-0.726-0.08-1.062-0.242c-0.338-0.161-0.617-0.384-0.838-0.668l0.521-0.591
			c0.422,0.477,0.87,0.715,1.345,0.715c0.332,0,0.614-0.106,0.847-0.318c0.233-0.213,0.35-0.464,0.35-0.751
			c0-0.236-0.076-0.447-0.23-0.633c-0.154-0.182-0.502-0.41-1.043-0.686c-0.58-0.3-0.976-0.595-1.185-0.887
			s-0.314-0.625-0.314-0.999c0-0.488,0.167-0.895,0.501-1.218c0.333-0.323,0.755-0.484,1.264-0.484
			C333.305,324.053,333.9,324.342,334.5,324.921z"/>
		<path fill="#231F20" d="M336.688,321.83h0.827v2.388h1.312v0.715h-1.312v5.717h-0.827v-5.717h-1.129v-0.715h1.129V321.83z"/>
		<path fill="#231F20" d="M339.755,324.218h0.846v0.94c0.252-0.371,0.519-0.647,0.798-0.831c0.28-0.184,0.571-0.274,0.875-0.274
			c0.229,0,0.473,0.072,0.733,0.219l-0.432,0.697c-0.174-0.075-0.319-0.112-0.438-0.112c-0.276,0-0.542,0.113-0.798,0.34
			c-0.257,0.227-0.451,0.578-0.586,1.055c-0.102,0.367-0.153,1.107-0.153,2.223v2.176h-0.846V324.218z"/>
		<path fill="#231F20" d="M350.118,324.218v6.432h-0.815v-1.105c-0.347,0.422-0.736,0.739-1.168,0.952s-0.903,0.318-1.416,0.318
			c-0.91,0-1.688-0.329-2.332-0.989c-0.644-0.66-0.966-1.464-0.966-2.409c0-0.926,0.325-1.719,0.975-2.377
			c0.65-0.657,1.433-0.986,2.348-0.986c0.527,0,1.006,0.112,1.434,0.337c0.427,0.225,0.803,0.562,1.126,1.011v-1.183H350.118z
			 M346.811,324.851c-0.46,0-0.886,0.113-1.275,0.339c-0.39,0.227-0.699,0.545-0.93,0.954s-0.346,0.843-0.346,1.299
			c0,0.453,0.116,0.886,0.349,1.299c0.232,0.414,0.544,0.735,0.936,0.966s0.812,0.346,1.261,0.346c0.453,0,0.882-0.114,1.287-0.343
			s0.718-0.537,0.937-0.927c0.218-0.39,0.327-0.829,0.327-1.317c0-0.743-0.245-1.365-0.735-1.865
			C348.131,325.101,347.527,324.851,346.811,324.851z"/>
		<path fill="#231F20" d="M358.223,325.554l-0.656,0.408c-0.567-0.753-1.341-1.129-2.321-1.129c-0.783,0-1.434,0.252-1.951,0.756
			s-0.776,1.115-0.776,1.836c0,0.469,0.119,0.909,0.357,1.322c0.238,0.414,0.564,0.734,0.98,0.963
			c0.415,0.229,0.88,0.343,1.396,0.343c0.944,0,1.716-0.377,2.314-1.13l0.656,0.432c-0.308,0.463-0.721,0.822-1.239,1.077
			c-0.518,0.256-1.108,0.383-1.771,0.383c-1.017,0-1.859-0.322-2.529-0.969s-1.005-1.433-1.005-2.358
			c0-0.623,0.156-1.201,0.47-1.735s0.743-0.951,1.291-1.25c0.548-0.3,1.161-0.449,1.839-0.449c0.426,0,0.837,0.064,1.232,0.194
			c0.396,0.13,0.732,0.3,1.008,0.509C357.795,324.965,358.029,325.23,358.223,325.554z"/>
		<path fill="#231F20" d="M360.1,321.569c0.188,0,0.35,0.067,0.482,0.201c0.134,0.134,0.2,0.296,0.2,0.484
			c0,0.186-0.066,0.346-0.2,0.479c-0.133,0.134-0.294,0.2-0.482,0.2c-0.185,0-0.344-0.066-0.477-0.2
			c-0.134-0.134-0.2-0.294-0.2-0.479c0-0.188,0.066-0.351,0.2-0.484C359.756,321.637,359.915,321.569,360.1,321.569z
			 M359.688,324.218h0.828v6.432h-0.828V324.218z"/>
		<path fill="#231F20" d="M365.281,324.053c0.99,0,1.812,0.358,2.463,1.075c0.593,0.654,0.889,1.429,0.889,2.323
			c0,0.898-0.313,1.684-0.938,2.355c-0.626,0.672-1.431,1.008-2.413,1.008c-0.987,0-1.794-0.336-2.419-1.008
			c-0.626-0.672-0.939-1.457-0.939-2.355c0-0.891,0.297-1.663,0.889-2.317C363.463,324.413,364.286,324.053,365.281,324.053z
			 M365.278,324.862c-0.688,0-1.279,0.254-1.774,0.763c-0.494,0.508-0.741,1.123-0.741,1.844c0,0.466,0.112,0.898,0.338,1.301
			s0.53,0.712,0.914,0.931s0.805,0.328,1.264,0.328c0.458,0,0.88-0.109,1.264-0.328c0.383-0.219,0.688-0.528,0.913-0.931
			s0.338-0.835,0.338-1.301c0-0.721-0.248-1.336-0.744-1.844C366.553,325.116,365.962,324.862,365.278,324.862z"/>
		<path fill="#231F20" d="M370.163,324.218h0.828v1.152c0.331-0.44,0.697-0.771,1.1-0.989c0.401-0.219,0.839-0.328,1.312-0.328
			c0.481,0,0.908,0.122,1.28,0.366s0.647,0.573,0.824,0.987c0.178,0.413,0.267,1.058,0.267,1.933v3.311h-0.828v-3.068
			c0-0.74-0.03-1.235-0.092-1.483c-0.096-0.426-0.279-0.746-0.552-0.961c-0.271-0.215-0.627-0.322-1.064-0.322
			c-0.5,0-0.948,0.166-1.345,0.497s-0.657,0.741-0.783,1.229c-0.079,0.319-0.118,0.902-0.118,1.75v2.358h-0.828V324.218z"/>
		<path fill="#231F20" d="M382.961,328.516l0.697,0.366c-0.229,0.449-0.493,0.812-0.793,1.088c-0.3,0.275-0.637,0.485-1.012,0.63
			c-0.374,0.144-0.799,0.215-1.271,0.215c-1.05,0-1.87-0.344-2.462-1.031s-0.888-1.465-0.888-2.332c0-0.815,0.251-1.543,0.752-2.181
			c0.635-0.812,1.485-1.218,2.55-1.218c1.097,0,1.973,0.415,2.627,1.247c0.466,0.587,0.702,1.32,0.71,2.199h-5.787
			c0.016,0.747,0.255,1.359,0.716,1.837c0.462,0.478,1.032,0.717,1.711,0.717c0.327,0,0.646-0.058,0.956-0.171
			c0.31-0.114,0.573-0.266,0.79-0.454S382.709,328.936,382.961,328.516z M382.961,326.783c-0.11-0.441-0.271-0.794-0.482-1.058
			c-0.211-0.265-0.49-0.478-0.837-0.639c-0.348-0.162-0.713-0.242-1.096-0.242c-0.631,0-1.174,0.203-1.627,0.608
			c-0.332,0.296-0.582,0.739-0.752,1.33H382.961z"/>
		<path fill="#231F20" d="M388.647,324.921l-0.531,0.55c-0.443-0.429-0.876-0.644-1.298-0.644c-0.27,0-0.499,0.088-0.691,0.266
			c-0.191,0.178-0.287,0.384-0.287,0.621c0,0.208,0.079,0.407,0.237,0.597c0.157,0.193,0.489,0.42,0.995,0.68
			c0.616,0.319,1.034,0.627,1.256,0.922c0.217,0.3,0.325,0.637,0.325,1.011c0,0.528-0.186,0.976-0.556,1.343
			c-0.371,0.366-0.835,0.549-1.392,0.549c-0.371,0-0.726-0.08-1.062-0.242c-0.338-0.161-0.617-0.384-0.838-0.668l0.521-0.591
			c0.422,0.477,0.87,0.715,1.345,0.715c0.332,0,0.614-0.106,0.847-0.318c0.233-0.213,0.35-0.464,0.35-0.751
			c0-0.236-0.076-0.447-0.23-0.633c-0.154-0.182-0.502-0.41-1.043-0.686c-0.58-0.3-0.976-0.595-1.185-0.887
			s-0.314-0.625-0.314-0.999c0-0.488,0.167-0.895,0.501-1.218c0.333-0.323,0.755-0.484,1.264-0.484
			C387.452,324.053,388.048,324.342,388.647,324.921z"/>
	</g>
	<g>
		<path d="M299.593,345.562c-1.959,0-3.795,0.76-5.172,2.133c-1.375,1.375-2.131,3.211-2.131,5.172s0.756,3.797,2.131,5.172
			l19.041,19.041c1.375,1.375,3.213,2.133,5.174,2.133c1.959,0,3.797-0.758,5.172-2.133c2.852-2.85,2.852-7.492,0-10.344
			l-19.041-19.041C303.392,346.322,301.554,345.562,299.593,345.562 M318.636,381.561c-2.588,0-5.014-1.002-6.834-2.82
			l-19.039-19.041c-1.818-1.818-2.82-4.244-2.82-6.832c0-2.586,1.002-5.014,2.82-6.832c1.816-1.818,4.244-2.82,6.83-2.82
			c2.588,0,5.014,1.002,6.832,2.82l19.043,19.043c3.766,3.766,3.766,9.896,0,13.662
			C323.647,380.559,321.224,381.561,318.636,381.561"/>
		<path d="M305.042,370.32l-11.451-11.451c-3.301-3.301-3.301-8.701,0-12.004c3.303-3.303,8.703-3.303,12.006,0l11.449,11.449
			L305.042,370.32z"/>
	</g>
	<g>
		<path fill="#231F20" d="M23.406,202.988h1.732c0.993,0,1.663,0.043,2.01,0.13c0.497,0.122,0.903,0.373,1.218,0.754
			c0.315,0.38,0.473,0.857,0.473,1.434c0,0.579-0.154,1.057-0.461,1.433c-0.308,0.377-0.731,0.63-1.271,0.76
			c-0.395,0.095-1.131,0.143-2.211,0.143h-0.621v4.043h-0.869V202.988z M24.275,203.839v2.95l1.472,0.018
			c0.595,0,1.031-0.054,1.307-0.162s0.492-0.283,0.65-0.525c0.158-0.241,0.237-0.512,0.237-0.811c0-0.291-0.079-0.558-0.237-0.8
			s-0.365-0.414-0.624-0.517c-0.258-0.102-0.681-0.153-1.268-0.153H24.275z"/>
		<path fill="#231F20" d="M30.127,205.252h0.845v0.94c0.252-0.371,0.518-0.647,0.798-0.831c0.28-0.184,0.571-0.274,0.875-0.274
			c0.229,0,0.473,0.072,0.733,0.219l-0.432,0.697c-0.173-0.075-0.319-0.112-0.438-0.112c-0.276,0-0.542,0.113-0.798,0.34
			c-0.256,0.227-0.452,0.578-0.585,1.055c-0.103,0.367-0.154,1.107-0.154,2.223v2.176h-0.845V205.252z"/>
		<path fill="#231F20" d="M37.029,205.087c0.991,0,1.812,0.358,2.464,1.075c0.592,0.654,0.888,1.429,0.888,2.323
			c0,0.898-0.313,1.684-0.938,2.355c-0.626,0.672-1.43,1.008-2.414,1.008c-0.987,0-1.793-0.336-2.419-1.008
			c-0.625-0.672-0.938-1.457-0.938-2.355c0-0.891,0.296-1.663,0.888-2.317C35.211,205.447,36.034,205.087,37.029,205.087z
			 M37.026,205.896c-0.688,0-1.279,0.254-1.773,0.763c-0.495,0.508-0.742,1.123-0.742,1.844c0,0.466,0.113,0.898,0.338,1.301
			c0.225,0.402,0.53,0.712,0.914,0.931c0.383,0.219,0.805,0.328,1.263,0.328c0.459,0,0.88-0.109,1.264-0.328
			s0.688-0.528,0.914-0.931s0.338-0.835,0.338-1.301c0-0.721-0.249-1.336-0.745-1.844C38.3,206.15,37.71,205.896,37.026,205.896z"/>
		<path fill="#231F20" d="M48.332,202.77v8.914h-0.815v-1.105c-0.347,0.422-0.736,0.739-1.167,0.952
			c-0.432,0.213-0.904,0.318-1.416,0.318c-0.91,0-1.688-0.329-2.332-0.989s-0.966-1.464-0.966-2.409
			c0-0.926,0.325-1.719,0.975-2.377c0.65-0.657,1.433-0.986,2.347-0.986c0.528,0,1.006,0.112,1.434,0.337s0.803,0.562,1.126,1.011
			v-3.665H48.332z M45.024,205.885c-0.46,0-0.886,0.113-1.275,0.339c-0.39,0.227-0.7,0.545-0.93,0.954s-0.345,0.843-0.345,1.299
			c0,0.453,0.116,0.886,0.348,1.299c0.232,0.414,0.544,0.735,0.936,0.966s0.812,0.346,1.261,0.346c0.453,0,0.881-0.114,1.287-0.343
			c0.405-0.229,0.717-0.537,0.936-0.927c0.219-0.39,0.328-0.829,0.328-1.317c0-0.743-0.245-1.365-0.735-1.865
			S45.741,205.885,45.024,205.885z"/>
		<path fill="#231F20" d="M50.1,205.252h0.828v3.003c0,0.733,0.039,1.237,0.118,1.514c0.119,0.394,0.344,0.705,0.678,0.934
			s0.731,0.343,1.193,0.343c0.462,0,0.854-0.111,1.175-0.334s0.544-0.515,0.666-0.878c0.083-0.248,0.125-0.774,0.125-1.578v-3.003
			h0.845v3.156c0,0.887-0.104,1.556-0.31,2.005c-0.207,0.449-0.519,0.801-0.934,1.055c-0.416,0.254-0.937,0.381-1.563,0.381
			c-0.627,0-1.15-0.127-1.57-0.381c-0.419-0.254-0.733-0.608-0.94-1.064c-0.207-0.455-0.31-1.14-0.31-2.054V205.252z"/>
		<path fill="#231F20" d="M63.808,206.588l-0.656,0.408c-0.567-0.753-1.34-1.129-2.32-1.129c-0.783,0-1.434,0.252-1.952,0.756
			c-0.518,0.504-0.776,1.115-0.776,1.836c0,0.469,0.119,0.909,0.357,1.322c0.238,0.414,0.565,0.734,0.98,0.963
			c0.416,0.229,0.881,0.343,1.396,0.343c0.945,0,1.716-0.377,2.314-1.13l0.656,0.432c-0.307,0.463-0.72,0.822-1.238,1.077
			c-0.519,0.256-1.108,0.383-1.771,0.383c-1.017,0-1.86-0.322-2.53-0.969s-1.005-1.433-1.005-2.358c0-0.623,0.157-1.201,0.47-1.735
			c0.313-0.534,0.744-0.951,1.292-1.25c0.548-0.3,1.161-0.449,1.838-0.449c0.426,0,0.836,0.064,1.232,0.194s0.732,0.3,1.008,0.509
			S63.615,206.265,63.808,206.588z"/>
		<path fill="#231F20" d="M66.119,202.864h0.828v2.388h1.312v0.715h-1.312v5.717h-0.828v-5.717H64.99v-0.715h1.129V202.864z"/>
		<path fill="#231F20" d="M72.544,205.087c0.991,0,1.812,0.358,2.464,1.075c0.592,0.654,0.888,1.429,0.888,2.323
			c0,0.898-0.313,1.684-0.938,2.355c-0.626,0.672-1.43,1.008-2.414,1.008c-0.987,0-1.793-0.336-2.419-1.008
			c-0.625-0.672-0.938-1.457-0.938-2.355c0-0.891,0.296-1.663,0.888-2.317C70.727,205.447,71.55,205.087,72.544,205.087z
			 M72.542,205.896c-0.688,0-1.279,0.254-1.773,0.763c-0.495,0.508-0.742,1.123-0.742,1.844c0,0.466,0.113,0.898,0.338,1.301
			c0.225,0.402,0.53,0.712,0.914,0.931c0.383,0.219,0.805,0.328,1.263,0.328c0.459,0,0.88-0.109,1.264-0.328
			s0.688-0.528,0.914-0.931s0.338-0.835,0.338-1.301c0-0.721-0.249-1.336-0.745-1.844C73.816,206.15,73.226,205.896,72.542,205.896z
			"/>
		<path fill="#231F20" d="M80.661,205.955l-0.532,0.55c-0.442-0.429-0.875-0.644-1.298-0.644c-0.269,0-0.499,0.088-0.69,0.266
			c-0.192,0.178-0.288,0.384-0.288,0.621c0,0.208,0.079,0.407,0.237,0.597c0.158,0.193,0.49,0.42,0.996,0.68
			c0.616,0.319,1.035,0.627,1.256,0.922c0.217,0.3,0.326,0.637,0.326,1.011c0,0.528-0.186,0.976-0.557,1.343
			c-0.371,0.366-0.835,0.549-1.391,0.549c-0.371,0-0.726-0.08-1.063-0.242c-0.337-0.161-0.617-0.384-0.837-0.668l0.52-0.591
			c0.423,0.477,0.871,0.715,1.345,0.715c0.332,0,0.614-0.106,0.847-0.318c0.233-0.213,0.35-0.464,0.35-0.751
			c0-0.236-0.077-0.447-0.231-0.633c-0.154-0.182-0.502-0.41-1.043-0.686c-0.581-0.3-0.976-0.595-1.185-0.887
			c-0.209-0.292-0.314-0.625-0.314-0.999c0-0.488,0.167-0.895,0.5-1.218c0.333-0.323,0.755-0.484,1.264-0.484
			C79.465,205.087,80.061,205.376,80.661,205.955z"/>
		<path fill="#231F20" d="M84.787,205.252h0.875l2.21,4.953l2.146-4.953h0.881l-3.836,8.784h-0.874l1.238-2.84L84.787,205.252z"/>
		<path fill="#231F20" d="M98.555,205.955l-0.532,0.55c-0.442-0.429-0.875-0.644-1.298-0.644c-0.269,0-0.499,0.088-0.69,0.266
			c-0.192,0.178-0.288,0.384-0.288,0.621c0,0.208,0.079,0.407,0.237,0.597c0.158,0.193,0.49,0.42,0.996,0.68
			c0.616,0.319,1.035,0.627,1.256,0.922c0.217,0.3,0.326,0.637,0.326,1.011c0,0.528-0.186,0.976-0.557,1.343
			c-0.371,0.366-0.835,0.549-1.391,0.549c-0.371,0-0.726-0.08-1.063-0.242c-0.337-0.161-0.617-0.384-0.837-0.668l0.52-0.591
			c0.423,0.477,0.871,0.715,1.345,0.715c0.332,0,0.614-0.106,0.847-0.318c0.233-0.213,0.35-0.464,0.35-0.751
			c0-0.236-0.077-0.447-0.231-0.633c-0.154-0.182-0.502-0.41-1.043-0.686c-0.581-0.3-0.976-0.595-1.185-0.887
			c-0.209-0.292-0.314-0.625-0.314-0.999c0-0.488,0.167-0.895,0.5-1.218c0.333-0.323,0.755-0.484,1.264-0.484
			C97.358,205.087,97.955,205.376,98.555,205.955z"/>
		<path fill="#231F20" d="M105.436,209.55l0.698,0.366c-0.229,0.449-0.493,0.812-0.793,1.088c-0.3,0.275-0.637,0.485-1.012,0.63
			c-0.375,0.144-0.799,0.215-1.272,0.215c-1.049,0-1.87-0.344-2.461-1.031c-0.592-0.688-0.888-1.465-0.888-2.332
			c0-0.815,0.25-1.543,0.751-2.181c0.635-0.812,1.485-1.218,2.55-1.218c1.097,0,1.973,0.415,2.627,1.247
			c0.466,0.587,0.702,1.32,0.71,2.199h-5.788c0.016,0.747,0.254,1.359,0.716,1.837c0.461,0.478,1.032,0.717,1.71,0.717
			c0.328,0,0.646-0.058,0.956-0.171c0.31-0.114,0.573-0.266,0.79-0.454C104.948,210.273,105.183,209.97,105.436,209.55z
			 M105.436,207.817c-0.11-0.441-0.271-0.794-0.482-1.058c-0.211-0.265-0.49-0.478-0.837-0.639
			c-0.347-0.162-0.712-0.242-1.095-0.242c-0.631,0-1.174,0.203-1.628,0.608c-0.332,0.296-0.582,0.739-0.751,1.33H105.436z"/>
		<path fill="#231F20" d="M107.576,205.252h0.845v0.94c0.252-0.371,0.518-0.647,0.798-0.831c0.28-0.184,0.571-0.274,0.875-0.274
			c0.229,0,0.473,0.072,0.733,0.219l-0.432,0.697c-0.173-0.075-0.319-0.112-0.438-0.112c-0.276,0-0.542,0.113-0.798,0.34
			c-0.256,0.227-0.452,0.578-0.585,1.055c-0.103,0.367-0.154,1.107-0.154,2.223v2.176h-0.845V205.252z"/>
		<path fill="#231F20" d="M110.921,205.252h0.881l2.159,4.688l2.133-4.688h0.887l-2.944,6.432h-0.154L110.921,205.252z"/>
		<path fill="#231F20" d="M118.526,202.604c0.188,0,0.349,0.067,0.482,0.201s0.2,0.296,0.2,0.484c0,0.186-0.067,0.346-0.2,0.479
			s-0.294,0.2-0.482,0.2c-0.185,0-0.344-0.066-0.477-0.2s-0.2-0.294-0.2-0.479c0-0.188,0.066-0.351,0.2-0.484
			S118.342,202.604,118.526,202.604z M118.115,205.252h0.828v6.432h-0.828V205.252z"/>
		<path fill="#231F20" d="M126.906,206.588l-0.656,0.408c-0.567-0.753-1.34-1.129-2.32-1.129c-0.783,0-1.434,0.252-1.952,0.756
			c-0.518,0.504-0.776,1.115-0.776,1.836c0,0.469,0.119,0.909,0.357,1.322c0.238,0.414,0.565,0.734,0.98,0.963
			c0.416,0.229,0.881,0.343,1.396,0.343c0.945,0,1.716-0.377,2.314-1.13l0.656,0.432c-0.307,0.463-0.72,0.822-1.238,1.077
			c-0.519,0.256-1.108,0.383-1.771,0.383c-1.017,0-1.86-0.322-2.53-0.969s-1.005-1.433-1.005-2.358c0-0.623,0.157-1.201,0.47-1.735
			c0.313-0.534,0.744-0.951,1.292-1.25c0.548-0.3,1.161-0.449,1.838-0.449c0.426,0,0.836,0.064,1.232,0.194s0.732,0.3,1.008,0.509
			S126.713,206.265,126.906,206.588z"/>
		<path fill="#231F20" d="M128.783,202.604c0.188,0,0.349,0.067,0.482,0.201s0.2,0.296,0.2,0.484c0,0.186-0.067,0.346-0.2,0.479
			s-0.294,0.2-0.482,0.2c-0.185,0-0.344-0.066-0.477-0.2s-0.2-0.294-0.2-0.479c0-0.188,0.066-0.351,0.2-0.484
			S128.598,202.604,128.783,202.604z M128.372,205.252h0.828v6.432h-0.828V205.252z"/>
		<path fill="#231F20" d="M133.964,205.087c0.991,0,1.812,0.358,2.464,1.075c0.592,0.654,0.888,1.429,0.888,2.323
			c0,0.898-0.313,1.684-0.938,2.355c-0.626,0.672-1.43,1.008-2.414,1.008c-0.987,0-1.793-0.336-2.419-1.008
			c-0.625-0.672-0.938-1.457-0.938-2.355c0-0.891,0.296-1.663,0.888-2.317C132.146,205.447,132.969,205.087,133.964,205.087z
			 M133.961,205.896c-0.688,0-1.279,0.254-1.773,0.763c-0.495,0.508-0.742,1.123-0.742,1.844c0,0.466,0.113,0.898,0.338,1.301
			c0.225,0.402,0.53,0.712,0.914,0.931c0.383,0.219,0.805,0.328,1.263,0.328c0.459,0,0.88-0.109,1.264-0.328
			s0.688-0.528,0.914-0.931s0.338-0.835,0.338-1.301c0-0.721-0.249-1.336-0.745-1.844
			C135.235,206.15,134.646,205.896,133.961,205.896z"/>
		<path fill="#231F20" d="M142.081,205.955l-0.532,0.55c-0.442-0.429-0.875-0.644-1.298-0.644c-0.269,0-0.499,0.088-0.69,0.266
			c-0.192,0.178-0.288,0.384-0.288,0.621c0,0.208,0.079,0.407,0.237,0.597c0.158,0.193,0.49,0.42,0.996,0.68
			c0.616,0.319,1.035,0.627,1.256,0.922c0.217,0.3,0.326,0.637,0.326,1.011c0,0.528-0.186,0.976-0.557,1.343
			c-0.371,0.366-0.835,0.549-1.391,0.549c-0.371,0-0.726-0.08-1.063-0.242c-0.337-0.161-0.617-0.384-0.837-0.668l0.52-0.591
			c0.423,0.477,0.871,0.715,1.345,0.715c0.332,0,0.614-0.106,0.847-0.318c0.233-0.213,0.35-0.464,0.35-0.751
			c0-0.236-0.077-0.447-0.231-0.633c-0.154-0.182-0.502-0.41-1.043-0.686c-0.581-0.3-0.976-0.595-1.185-0.887
			c-0.209-0.292-0.314-0.625-0.314-0.999c0-0.488,0.167-0.895,0.5-1.218c0.333-0.323,0.755-0.484,1.264-0.484
			C140.884,205.087,141.48,205.376,142.081,205.955z"/>
	</g>
	<g>
		<rect x="51.784" y="224.224" width="4.461" height="26.198"/>
		<rect x="71.853" y="224.224" width="4.459" height="26.198"/>
		<rect x="58.474" y="224.224" width="1.951" height="26.198"/>
		<rect x="61.261" y="224.224" width="4.459" height="26.198"/>
		<rect x="67.95" y="224.224" width="2.23" height="26.198"/>
		<rect x="79.099" y="224.224" width="2.23" height="26.198"/>
		<path d="M99.649,235.947c0-1.549-1.256-2.805-2.807-2.805c-1.549,0-2.805,1.256-2.805,2.805H99.649z"/>
		<path d="M90.806,236.605v-12.382h-4.461v15.294C87.647,238.309,89.147,237.311,90.806,236.605"/>
		<path d="M110.966,255.996H82.722c-1.23,0-2.23-0.998-2.23-2.229c0-1.232,1-2.23,2.23-2.23h28.244c1.23,0,2.229,0.998,2.229,2.23
			C113.194,254.998,112.196,255.996,110.966,255.996"/>
		<path d="M85.229,240.66v-16.437h-2.229v19.761C83.601,242.779,84.351,241.664,85.229,240.66"/>
		<path d="M96.843,237.607c-6.924,0-12.623,5.344-13.191,12.123h26.385C109.468,242.951,103.767,237.607,96.843,237.607"/>
	</g>
</g>
</svg>
